<svg width="291" height="383" viewBox="0 0 291 383" fill="none" xmlns="http://www.w3.org/2000/svg">
<rect width="290.09" height="383" rx="10" fill="#971B49"/>
<g clip-path="url(#clip0_1199_39)">
<path d="M289.693 48.6979C290.169 70.3464 290.021 91.9949 289.778 113.643C265.939 121.487 242.111 129.331 218.272 137.174C215.893 136.939 213.65 139.796 211.186 137.522C210.922 134.306 213.481 132.02 213.608 128.815C213.809 123.56 212.667 118.63 211.26 113.722C210.456 110.921 209.346 108.22 208.161 105.576C205.919 100.567 205.359 100.298 200.568 102.326C190.679 106.528 180.6 110.136 170.383 113.318C164.376 115.19 158.643 115.179 153.429 110.932C151.949 109.946 152.075 107.738 150.584 106.752C146.068 102.83 141.943 98.5275 138.644 93.3731C137.501 88.1739 136.888 82.9635 138.274 77.697C145.952 78.0332 151.578 73.0244 157.691 69.2707C159.363 68.251 160.97 67.1081 162.683 66.1668C163.879 65.5169 165.19 64.374 166.48 65.5281C167.908 66.8167 167.125 68.4975 166.533 69.9654C165.888 71.5789 165.127 73.1365 164.101 74.5259C159.088 79.5907 152.922 83.1876 148.025 88.4316C147.062 89.4625 145.92 90.3365 144.915 91.6139C148.046 88.6109 150.838 85.4958 154.18 83.0419C155.27 82.2351 156.338 80.8793 157.67 82.6833C157.744 85.0588 156.941 87.2999 156.676 89.6306C156.401 92.1069 155.143 94.1575 152.922 95.0651C150.098 96.2193 150.457 97.6535 152.604 98.8301C155.83 100.589 158.728 103.604 162.916 102.517C163.699 102.315 164.704 102.472 165.338 102.965C169.124 105.923 173.048 104.478 176.834 103.29C180.631 102.102 184.545 102.427 188.352 101.721C191.208 101.194 194.116 97.4742 193.746 94.5945C193.513 92.7793 192.075 93.3731 191.112 93.3395C184.333 93.1154 177.554 92.6448 170.764 93.093C168.712 93.2275 166.364 93.7205 165.105 91.4346C163.688 88.8574 164.45 86.3475 166.152 84.1176C167.792 83.1988 168.923 84.6218 170.267 85.1037C176.676 89.7202 183.297 90.8183 190.097 86.1906C195.311 82.6385 195.692 78.6719 191.43 73.8872C184.756 66.4133 177.088 60.0264 170.415 52.5301C168.204 50.0537 166.343 47.7678 167.623 44.0477C168.098 42.6694 167.802 41.1231 167.496 39.6776C167.083 37.7055 167.051 35.386 164.397 35.1619C162.07 34.9602 159.775 35.2516 158.686 37.7503C155.65 44.664 149.918 46.1767 143.562 46.468C141.351 46.5689 139.172 46.2999 137.438 48.3505C136.518 49.4374 134.963 49.7736 134.424 48.0255C133.567 45.213 131.484 44.8096 129.284 44.339C128.057 44.0701 126.883 43.6107 125.677 43.2521C119.406 41.3584 118.411 39.1734 120.907 32.708C121.309 31.6659 121.732 30.635 122.346 29.705C121.637 30.3325 120.897 30.6238 120.008 30.3885C118.549 29.9515 118.633 28.9206 118.877 27.6208C120.495 18.8359 128.258 11.5077 136.856 10.5104C142.663 9.83811 148.416 8.84085 153.091 4.62768C154.297 3.22702 155.915 2.35302 157.226 1.042C159.278 -1.00855 229.631 0.750668 234.348 0.481742C236.876 4.91901 166.628 5.737 162.313 7.60827C160.96 8.19094 159.5 8.69518 159.722 10.5104C160.23 14.7348 157.565 18.0179 156.972 21.9061C156.57 24.5394 154.582 25.1669 152.319 25.3686C146.417 25.9176 142.102 22.1639 137.575 19.1833C135.767 17.9955 134.202 17.1215 132.245 17.9955C130.162 18.9368 129.559 21.0321 129.802 23.1387C130.257 27.0942 130.151 31.0608 130.468 35.0051C130.627 36.9772 130.965 38.9941 133.736 37.9745C135.735 37.2349 136.708 38.7028 137.766 40.1819C140.822 44.4959 144.619 44.1373 147.041 39.3415C147.708 38.0305 148.342 36.6298 149.601 35.9575C155.481 32.82 161.129 29.1447 167.358 26.814C171.261 25.3574 173.471 27.2735 173.566 31.6995C173.588 32.5847 173.714 33.5596 173.376 34.3215C170.922 39.8345 173.027 44.6976 175.153 49.5943C175.745 50.9613 176.38 52.2051 177.649 53.0007C180.758 54.9616 190.277 54.659 192.847 52.0594C195.84 49.0452 199.489 47.7902 203.254 46.961C207.04 46.1319 210.795 44.9441 214.697 44.7536C217.965 44.5967 219.478 42.6022 219.33 39.2967C219.171 35.6101 219.562 32.4951 223.782 31.6995C224.967 31.4754 225.612 30.2877 225.739 29.0775C226.173 24.8419 227.706 20.8641 227.897 16.5388C228.108 11.6309 228.087 6.29726 234.486 4.98625C236.675 4.53804 223.888 0.280048 238.462 0.280048C238.811 0.0447378 242.111 1.96083 241.847 10.2303C239.213 25.7047 232.508 28.7189 229.694 38.8485C228.954 41.5153 228.732 43.2185 232.201 42.4453C245.305 39.5208 258.166 42.5126 271.048 44.4623C275.849 45.1906 280.64 46.0198 285.463 46.5689C287.123 46.7594 288.847 46.7818 289.725 48.6979H289.693Z" fill="#020202"/>
<path d="M163.444 73.8313C164.523 71.0748 166.744 68.8002 166.765 64.5422C160.409 68.5649 154.539 72.173 148.775 75.9715C145.761 77.9548 142.757 78.8737 139.362 77.3049C136.866 76.655 135.703 74.3804 134.169 72.5539C132.033 68.1391 129.569 63.9259 127.263 59.6119C125.507 56.3063 125.592 55.5892 127.231 52.4181C123.498 53.8076 119.669 49.3255 119.098 42.8825C115.523 36.5963 115.65 35.1397 120.219 29.806C121.425 29.2345 122.25 27.8338 123.942 27.9571C123.096 30.3326 122.261 32.6185 121.457 34.9156C120.251 38.3331 117.596 35.3189 125.01 40.238C127.327 40.6638 129.283 42.367 131.589 42.8264C134.391 43.3867 141.731 45.5605 145.147 44.877C150.393 43.8349 155.681 43.073 157.955 36.3274C159.182 32.6633 163.127 32.6969 166.321 33.0667C169.304 33.4141 168.468 36.4619 168.69 38.4004C169.007 41.0448 170.065 43.7229 168.214 46.4569C167.178 47.9921 169.24 48.8661 170.129 49.7849C177.5 57.3148 184.967 64.7439 192.339 72.2738C197.659 77.6971 197.119 82.6722 190.869 86.9414C184.428 91.3339 176.326 91.3451 169.801 86.0114C167.823 83.9833 165.813 81.731 163.698 79.8934C161.202 77.7307 161.393 75.9827 163.455 73.8761L163.444 73.8313Z" fill="#FCFCFB"/>
<path d="M46.4719 121.218C51.1255 126.406 51.1043 126.395 53.484 119.75C55.5358 114.025 58.8038 109.161 62.9708 104.926C73.9807 93.743 85.0646 82.6386 95.8735 71.2429C99.0252 67.915 101.236 67.9822 104.546 70.8844C114.033 79.2211 123.774 87.2328 133.419 95.3678C133.112 96.309 132.393 96.6676 131.568 96.8693C127.771 95.9281 125.339 92.757 122.346 90.4935C115.619 85.4175 109.792 79.1202 102.78 74.4812C100.982 75.5009 102.304 77.4394 101.648 78.784C101.278 79.5348 101.193 80.6217 100.136 80.476C99.4165 80.3752 99.205 79.5348 98.9829 78.8401C98.5387 77.4618 99.131 75.9155 98.306 74.6493C97.4705 74.5149 97.0158 75.1311 96.5292 75.6354C85.8049 86.7061 74.848 97.5304 64.2294 108.724C60.0835 113.094 57.4606 118.35 55.6415 124.132C55.0069 126.496 54.3829 128.883 51.76 129.678C50.639 129.958 49.6659 129.622 48.767 128.927C47.0959 127.247 45.6364 125.409 45.1182 122.933C45.2134 122.036 45.2768 121.106 46.4931 121.229L46.4719 121.218Z" fill="#020202"/>
<path d="M121.743 20.3374C122.494 22.8026 150.658 55.2529 115.968 36.204C117.512 40.6973 119.342 44.3166 119.469 44.5519C120.854 47.0843 121.88 49.9528 123.689 52.0482C126.29 55.0736 127.613 49.034 130.267 50.4907C130.775 50.8268 130.606 51.3423 130.341 51.6C125.836 56.0373 125.899 55.9813 129.093 61.6175C131.134 65.2144 132.922 68.9681 134.815 72.6546C133.546 75.6128 131.557 74.1001 129.738 73.5623C121.933 66.4918 96.7722 39.151 121.722 20.3374H121.743Z" fill="#020202"/>
<path d="M129.759 73.5624C131.42 73.0806 133.26 73.6857 134.836 72.6548C136.264 74.3916 137.956 79.0418 145.402 78.1117C145.254 83.4566 138.633 88.5662 139.891 93.8327C138.242 98.3596 138.876 100.522 142.895 102.237C145.793 103.469 148.374 105.497 151.494 106.158C153.757 106.461 151.917 108.926 153.186 109.755C151.568 111.145 150.055 110.136 148.543 109.498C138.675 105.352 128.85 101.127 118.972 97.0038C117.576 96.4211 116.042 96.0065 115.481 94.2249C115.63 93.194 116.359 92.7794 117.142 92.4096C121.002 91.8045 123.868 94.7067 127.285 95.6591C128.659 96.0401 129.791 97.7097 131.462 96.6228C131.853 95.7712 132.647 95.5919 133.398 95.3454C137.554 87.5241 136.317 80.1623 129.738 73.54L129.759 73.5624Z" fill="#020202"/>
<path d="M9.97293 119.369C9.92005 118.865 9.85659 118.361 9.80371 117.868C12.6593 116.254 77.1849 170.207 79.0252 171.81C85.6353 177.536 92.4358 183.015 99.2469 188.461C102.399 190.982 106.418 191.609 110.088 192.607C117.047 194.5 123.72 197.268 130.584 199.419C132.181 199.912 133.768 200.417 135.471 200.047C138.77 200.585 141.161 202.512 142.853 205.504C142.916 205.963 148.797 207.868 148.564 208.249C148.035 211.734 126.555 202.075 117.184 198.713C113.271 197.638 109.58 196.204 105.635 194.769C93.6521 190.399 84.8633 181.256 75.2495 173.3C74.3822 172.583 10.8402 120.075 9.97293 119.369Z" fill="#456978"/>
<path d="M200.652 161.546C202.185 163.899 201.836 165.557 199.562 167.406C184.629 179.631 169.832 192.024 154.952 204.305C153.323 205.65 151.451 206.658 149.695 207.824C147.94 208.787 146.734 208.216 146.025 206.322C145.951 205.874 145.994 205.426 146.131 204.989C148.363 202.165 152.202 202.804 154.74 200.26C159.024 195.946 163.867 192.282 168.606 188.539C173.217 184.898 177.024 180.091 182.524 177.726C185.041 177.009 186.363 174.656 188.224 173.043C188.51 172.774 188.817 172.527 189.145 172.314C192.55 170.544 194.792 167.16 197.997 165.132C199.467 164.202 198.325 162.655 199.002 161.591C199.552 161.232 200.102 161.199 200.652 161.557V161.546Z" fill="#456978"/>
<path d="M200.652 161.546C200.134 161.647 199.616 161.759 199.097 161.86C198.167 161.636 197.712 160.941 197.479 160.033C198.569 155.338 196.549 152.268 192.953 149.825C190.742 148.324 188.638 146.621 186.713 144.704C185.75 143.752 184.322 143.012 184.714 141.164C185.93 138.867 188.215 138.564 190.266 137.847C192.498 137.499 194.74 137.499 196.982 137.824C200.271 138.754 203.571 138.822 206.892 137.981C207.199 137.679 207.537 137.41 207.886 137.163C209.029 136.457 210.181 135.897 211.45 136.872C213.629 139.292 216.051 135.875 218.283 137.186C213.523 139.942 208.331 140.48 203.032 140.48C198.368 140.48 193.704 140.48 188.299 140.48C190.89 144.57 194.201 146.542 197.109 148.727C200.578 151.338 202.566 153.893 200.895 158.487C200.557 159.406 200.726 160.526 200.663 161.557L200.652 161.546Z" fill="#020202"/>
<path d="M9 117.61C9 116.478 9.02115 115.347 9.03173 114.226C9.27498 112.792 9.52881 111.358 9.77207 109.923C10.0682 108.164 11.0835 107.234 12.7017 107.749C23.0558 111.044 34.2561 111.57 43.5526 118.305C44.6419 119.1 46.0697 119.627 46.4822 121.229C46.2178 121.846 45.9639 122.473 45.6995 123.089C44.8111 123.37 44.0496 122.989 43.3939 122.451C35.3348 115.806 25.3297 115.078 16.0015 112.321C12.8921 111.402 12.8709 114.215 12.1834 116.153C11.422 117.375 10.7557 118.82 9.01058 117.621L9 117.61Z" fill="#020202"/>
<path d="M146.321 204.932C147.03 206.311 148.331 206.445 149.579 206.703C148.891 208.372 148.352 209 146.882 209C145.518 208.294 146.216 208.294 142.461 205.65C142.44 205.313 142.429 204.977 142.408 204.641C143.794 203.509 145.095 203.655 146.321 204.944V204.932Z" fill="#F5C9B3"/>
<path d="M251.608 75.3327C246.341 75.3103 241.064 75.0974 235.807 75.3664C233.597 75.4784 229.853 74.8621 231.651 79.8372C232.19 81.3275 230.498 82.2128 229.387 82.4593C226.722 83.0531 224.427 85.0589 221.519 84.6779C221.011 84.6107 220.08 84.7563 220.006 85.0253C219.086 88.1179 215.628 87.8154 214.01 90.415C211.524 94.4041 204.607 95.0091 200.758 92.3871C199.668 91.6476 198.663 90.5719 199.245 89.1152C200.366 86.2915 199.541 83.7031 199.351 80.8793C198.97 75.1983 195.385 72.8564 192.106 69.8646C190.975 68.8337 189.113 68.0493 189.43 66.2901C189.779 64.318 191.81 63.6681 193.407 63.9034C197.754 64.5421 200.07 61.2142 202.397 58.6145C207.008 53.4601 212.391 52.2836 218.515 53.8971C220.62 54.4574 222.492 54.6367 224.522 53.8075C226.955 52.799 229.324 51.9138 232.137 52.8999C234.601 53.7627 235.733 51.2527 236.897 49.4823C238.716 46.7146 243.866 44.9778 246.531 46.3336C246.775 46.4569 247.177 46.6025 247.198 46.793C247.378 48.1376 246.299 50.0986 248.689 50.3115C252.084 50.6028 255.521 51.0958 258.885 50.2554C260.957 49.74 262.798 48.8772 264.278 51.4768C265.135 52.9671 266.817 52.2836 268.139 52.3172C272.665 52.4292 277.16 52.2164 281.296 54.9504C282.332 55.6339 284.331 55.2642 285.674 54.7487C288.667 53.5946 288.942 55.1633 288.942 57.6621C288.9 74.1226 288.995 90.5831 288.889 107.044C288.847 112.825 283.675 110.752 280.904 112.232C279.455 113.005 277.319 112.131 275.574 112.478C271.714 113.24 268.234 114.73 264.606 116.758C259.054 119.874 253.004 124.098 246.034 122.025C241.011 120.523 238.187 123.011 235.881 127.011C234.75 128.972 234.443 131.224 231.122 129.544C229.662 128.804 227.05 130.743 224.924 131.303C220.112 132.58 218.261 130.373 217.859 125.342C217.5 120.77 218.018 116.344 217.965 111.884C217.891 105.329 219.446 99.6145 222.798 94.2696C223.147 93.7205 223.031 92.8577 223.137 92.1294C223.549 89.541 225.792 89.3169 227.473 88.5213C243.158 81.1034 258.705 73.3382 274.4 65.9204C268.244 68.9121 262.121 71.9824 255.86 74.7389C254.517 75.3327 253.195 76.5429 251.598 75.3664L251.608 75.3327Z" fill="#020202"/>
<path d="M164.026 0.280029C188.447 0.280029 212.867 0.280029 237.288 0.280029C237.245 3.76486 238.06 7.75392 232.38 6.72304C230.773 6.4317 230.212 8.7736 229.895 10.3311C228.721 16.0122 228.816 21.9061 227.346 27.5536C226.595 30.4109 227.113 33.9518 222.46 33.3018C220.641 33.0441 220.345 35.0947 220.398 36.8539C220.673 45.3587 220.567 45.101 212.751 46.2551C207.04 47.0955 201.011 47.779 196.062 50.9165C193.322 52.6533 191.271 55.0064 187.696 55.4658C184.787 55.8356 182.038 55.0512 179.182 55.1633C176.897 55.2529 174.349 53.4601 173.82 49.964C173.481 47.723 173.513 44.9441 170.531 43.9132C169.431 43.5322 169.843 41.8851 170.425 40.7757C171.863 38.0193 172.212 34.9714 172.307 31.9124C172.35 30.5454 172.974 28.6405 171.377 27.957C169.727 27.251 167.738 27.0717 166.247 28.4724C164.396 30.2092 161.752 30.2428 160.028 31.397C156.517 33.7389 152.794 35.5317 149.23 37.6831C148.722 37.9856 148.447 38.8709 148.225 39.5432C147.422 42.0195 147.094 44.6752 143.498 44.4511C140.357 44.2494 137.321 44.6864 136.454 40.2603C136.105 38.4451 134.942 37.7279 133.514 39.4535C131.483 41.9075 130.595 40.518 129.791 38.3442C129.167 36.6634 129.072 34.9378 129.029 33.1562C128.955 30.3773 129.357 27.5984 128.617 24.8195C127.76 21.5812 128.236 18.0627 131.092 16.7517C133.397 15.6872 135.862 15.6536 138.897 18.4885C142.377 21.7381 147.273 25.5927 153.175 24.0799C153.958 23.8783 155.269 24.1136 155.311 23.1947C155.533 18.8807 159.045 15.5191 158.273 10.9138C157.955 9.06493 157.903 6.53255 160.462 6.55496C165.369 6.61099 165.74 4.22427 164.037 0.280029H164.026Z" fill="#020202"/>
<path d="M211.439 136.861C211.186 137.522 210.614 138.037 208.087 138.093C206.447 139.225 204.586 138.855 202.83 138.799C187.357 138.273 171.895 139.83 156.422 139.248C155.459 139.214 154.486 139.248 153.545 139.483C150.584 140.2 147.612 141.298 144.555 140.951C134.222 139.741 124.947 143.584 115.566 147.237C113.588 148.01 111.145 150.834 109.231 148.01C107.232 145.063 110.447 143.405 111.928 141.511C115.45 137.006 120.219 134.754 125.254 133.488C119.405 133.129 114.381 135.83 109.559 139.326C107.623 140.727 105.518 141.948 103.149 142.407C101.584 142.71 100.04 142.553 99.0564 140.984C97.9882 139.259 98.8977 137.791 99.9871 136.648C104.99 131.381 109.791 125.846 116.93 123.594C120.346 122.518 123.657 121.005 127.665 119.235C124.556 120.501 122.176 121.846 119.511 121.532C112.615 120.714 106.439 123.325 100.251 125.891C97.269 127.135 94.2336 128.166 91.0501 128.502C89.4108 128.681 87.6869 128.804 86.3966 127.292C85.8889 124.994 86.9148 123.078 87.8032 121.14C95.1537 116.579 102.874 112.904 110.997 110.192C112.964 109.542 114.974 109.061 116.972 108.568C119.849 108.411 122.567 107.357 125.37 106.786C122.726 107.021 120.219 108.803 117.438 107.537C112.573 103.301 106.756 102.45 100.77 102.136C98.5275 102.013 96.3277 101.486 94.6884 99.7043C92.9962 97.8554 93.3452 95.1886 95.6191 94.8972C101.764 94.1017 107.888 92.9475 114.096 92.9475C114.646 92.9475 115.079 93.4405 115.407 93.9336C127.898 99.4914 140.367 105.128 153.196 109.778C159.076 113.98 165.179 113.778 171.779 111.604C182.355 108.108 192.783 104.22 203.095 99.962C205.58 98.9311 206.701 99.2336 207.844 101.889C210.889 108.982 213.83 116.086 214.834 123.896C215.458 128.748 214.93 133.242 211.45 136.883L211.439 136.861Z" fill="#FEFEFE"/>
<path d="M166.617 83.804C166.438 84.51 166.258 85.2159 166.067 85.9218C164.618 91.5468 165.454 92.4993 170.774 91.8942C178.653 90.9978 186.543 92.1743 194.422 92.0847C195.628 92.0735 197.14 92.9363 195.914 94.068C194.063 95.76 194.317 97.9787 193.523 99.906C192.772 101.744 192.011 103.066 189.335 103.088C183.063 103.133 176.76 103.873 170.837 106.416C169.452 107.01 168.426 107.055 167.59 105.755C166.617 104.254 164.767 103.324 163.688 103.749C159.055 105.587 156.062 102.057 152.488 100.466C150.806 99.7155 149.167 98.7742 149.05 96.4996C148.976 95.1101 149.008 93.8215 150.986 94.0344C154.222 94.3818 155.438 91.9502 155.544 89.2498C155.65 86.6614 156.401 84.3979 157.236 82.0784C159.002 77.5179 160.832 76.9576 163.931 80.1287C164.978 81.1932 166.374 82.0448 166.596 83.804H166.617Z" fill="#020202"/>
<path d="M251.608 75.3329C259.18 71.7808 266.764 68.2175 274.336 64.6767C275.436 64.1612 277.097 62.8726 277.657 64.1612C278.45 66.0101 276.282 66.1446 275.14 66.6936C258.779 74.6157 242.407 82.5154 226.056 90.4375C225.062 90.9193 224.12 91.5468 223.158 92.1071C219.372 93.8327 215.628 95.6591 211.788 97.2279C210.699 97.6761 209.028 99.5474 208.298 97.6313C207.685 96.0401 210.022 95.7376 211.122 95.1997C223.391 89.1937 235.712 83.311 248.001 77.3834C249.239 76.7895 250.413 76.0388 251.618 75.3553L251.608 75.3329Z" fill="#FEFEFE"/>
<path d="M184.227 62.7268C196.358 53.6394 209.937 48.4289 224.49 45.8181C210.805 50.7596 197.14 55.7235 184.227 62.7268Z" fill="#FEFEFE"/>
<path d="M166.617 83.804C166.184 83.2438 165.792 82.6387 165.317 82.1233C162.672 79.2622 159.986 79.2472 157.257 82.0784C152.71 84.9694 149.029 88.9136 145.412 92.9363C144.714 93.7095 143.91 95.211 142.779 93.9336C141.911 92.9587 143.223 92.0847 143.794 91.4236C149.526 84.8125 156.295 79.5124 163.212 74.4141C162.038 76.6999 162.44 78.3359 164.513 80.0055C166.543 81.6414 168.616 83.4231 169.822 85.9667C168.764 85.2495 167.707 84.5324 166.649 83.8153L166.617 83.804Z" fill="#FEFEFE"/>
<path d="M142.482 61.3038C139.013 64.9791 136.993 64.5758 135.788 60.5083C135.206 58.5473 134.593 56.5976 134.127 54.6143C133.895 53.6058 132.668 52.2052 134.17 51.5665C135.714 50.9166 135.735 52.687 136.063 53.7291C136.369 54.7039 136.729 55.6564 136.962 56.6537C137.649 59.5894 138.506 62.2787 142.472 61.3038H142.482Z" fill="#4A4A4A"/>
<path d="M148.733 57.7742C149.886 61.9089 148.215 64.0827 146.163 66.0997C145.729 66.5255 145.222 66.6823 144.703 66.2341C144.153 65.7523 144.28 65.0127 144.64 64.6878C146.448 63.0518 146.776 60.4186 148.733 57.7742Z" fill="#484848"/>
<path d="M161.519 36.2826C162.217 36.4395 162.45 36.9101 162.44 37.56C162.418 38.5797 162.355 39.5993 162.366 40.6078C162.366 41.8404 164.407 43.6444 162.249 44.1263C160.515 44.5184 160.282 41.9861 159.87 40.5518C159.404 38.9494 159.7 37.3471 161.181 36.2938C161.276 36.2266 161.435 36.2938 161.519 36.2938V36.2826Z" fill="#5A5A59"/>
<path d="M141.52 46.7146C143.35 47.1964 144.249 48.373 144.407 50.1546C144.513 51.3199 143.73 51.7682 142.831 51.6001C141.16 51.2863 140.145 50.121 140.06 48.3057C140.008 47.2749 140.716 46.8042 141.52 46.7146Z" fill="#323333"/>
<path d="M133.546 58.2449C133.504 59.1749 133.324 60.1161 132.224 59.9929C130.479 59.8136 129.58 58.5362 129.453 56.7994C129.389 55.8806 129.982 55.1186 131.018 55.2643C132.605 55.4996 133.334 56.6313 133.535 58.2337L133.546 58.2449Z" fill="#313233"/>
<path d="M51.8125 129.084C53.9277 128.188 53.547 125.678 54.6575 124.131C56.8045 123.045 58.5496 121.364 60.21 119.638C71.0612 108.332 82.3249 97.4966 93.705 86.7956C95.5664 85.0364 97.0365 82.8738 98.9825 81.193C100.008 81.0361 100.992 81.3499 101.997 81.5292C106.925 83.9831 110.204 89.1039 115.503 90.9976C116.063 91.1993 115.936 91.95 115.513 92.443C109.865 93.3955 104.165 93.8997 98.4854 94.6057C92.3512 95.3676 92.3406 95.2892 94.3607 101.228C92.7848 103.693 91.1667 102.214 89.8975 101.037C87.5602 98.8636 85.9737 99.5023 83.9431 101.687C77.9146 108.153 71.9073 114.663 65.276 120.445C62.7589 122.641 61.5849 126.361 57.9573 127.336C56.9208 127.616 57.1747 128.894 57.9996 129.387C62.4945 132.065 65.2866 136.95 69.8556 139.572C71.8016 140.682 73.5572 142.105 75.7254 142.799C78.3165 143.629 80.4001 145.287 82.05 147.584C86.5766 153.915 92.2243 158.711 99.2363 161.669C104.091 163.72 106.798 168.437 110.193 172.202C112.076 174.297 115.048 175.877 115.027 179.496C113.282 180.662 112.182 179.261 111.008 178.32C92.3724 163.428 74.1389 147.987 55.4401 133.185C54.0229 132.065 52.4682 130.989 51.8231 129.073L51.8125 129.084Z" fill="#456978"/>
<path d="M99.2995 81.6526C96.2959 86.8967 91.3673 90.1014 87.3272 94.2361C78.1999 103.559 68.9034 112.702 59.4906 121.689C58.306 122.821 57.407 125.958 54.6572 124.132C56.0321 118.002 58.8031 112.613 63.0442 108.243C74.3396 96.5892 85.7408 85.0702 97.1314 73.5288C97.6285 73.0246 98.0198 71.8593 99.0986 72.6324C99.7543 75.6242 99.4899 78.6384 99.2995 81.6526Z" fill="#FEFEFE"/>
<path d="M51.8122 129.084C57.1532 133.23 62.5365 137.298 67.8141 141.533C80.4738 151.685 92.6048 162.565 105.603 172.247C108.744 174.589 111.198 177.928 114.857 179.519C115.132 179.519 115.439 179.519 115.661 179.665C126.11 187.015 136.073 195.038 145.761 203.476C146.195 203.846 146.364 204.439 146.417 205.033C146.417 205.381 146.438 205.717 146.448 206.064C145.148 205.963 143.773 205.75 142.472 205.65C140.282 203.846 138.358 201.873 135.745 200.697C132.477 199.957 130.129 197.548 127.665 195.475C102.895 174.701 77.4384 154.879 52.542 134.272C49.6652 131.886 46.5347 130.149 42.8859 129.387C41.3735 129.073 38.9092 128.95 40.3264 125.936C43.6791 124.871 46.3972 126.485 49.0624 128.3C49.8873 128.927 50.744 129.443 51.8228 129.095L51.8122 129.084Z" fill="#F5C9B3"/>
<path d="M49.0522 128.289C45.9217 128.132 43.0872 126.182 39.8615 126.563C38.8039 127.616 37.5347 127.403 36.3502 127.067C29.042 124.961 21.6069 123.336 14.4151 120.781C12.5219 120.109 10.6499 119.358 11.3162 116.546C11.4537 115.246 11.6229 113.935 11.7181 112.635C11.845 110.719 12.7017 110.114 14.4574 110.596C21.5117 112.534 28.6295 114.248 35.6204 116.389C39.4913 117.576 42.6959 120.221 45.689 123.067C46.8101 124.804 47.9311 126.541 49.0522 128.266V128.289Z" fill="#F4F3F1"/>
<path d="M115.28 91.883C109.421 90.6952 106.343 84.9806 101.425 82.2689C100.643 79.5797 101.298 76.8344 101.171 74.1115C101.108 72.8117 101.584 71.7696 103.117 72.7557C112.573 80.7226 122.017 88.6895 131.472 96.6452C131.705 97.2839 132.308 98.1355 132.107 98.5053C131.504 99.6258 130.743 98.6173 130.097 98.3148C125.92 96.2867 121.742 94.2473 117.321 92.8691C116.338 93.2388 115.703 92.813 115.28 91.883Z" fill="#FEFEFE"/>
<path d="M103.128 72.7442C101.362 72.3185 101.457 73.5846 101.457 74.7948C101.457 77.2824 101.447 79.7699 101.436 82.2575C100.727 82.0446 100.008 81.8429 99.2996 81.6412C99.2361 78.6382 99.1621 75.6352 99.0986 72.621C100.854 74.6603 99.2255 77.3944 100.643 80.2181C100.643 77.6073 100.537 75.6352 100.674 73.6855C100.812 71.7358 101.637 71.0747 103.139 72.7442H103.128Z" fill="#020202"/>
<path d="M11.3162 116.557C12.0777 120.781 16.0015 119.818 18.3177 120.647C25.3297 123.157 32.659 124.669 39.8615 126.563C40.2316 126.978 41.7863 127.684 42.1777 127.717C50.755 128.345 54.922 135.023 61.162 139.931C71.7065 148.212 82.1452 156.66 92.5523 165.132C104.831 175.127 117.057 185.189 129.241 195.318C131.399 197.111 140.537 203.061 142.218 205.504C134.868 204.014 127.655 200.204 124.376 198.59C118.147 195.52 111.441 194.456 105.043 192.371C99.0038 190.399 94.8896 186.186 90.1409 182.668C85.0008 178.858 80.1569 174.589 75.1967 170.51C74.3823 169.838 73.4727 169.625 72.468 169.67C62.6004 161.759 52.8385 153.702 42.8334 145.982C32.5004 137.992 21.8924 130.407 12.1517 121.577C10.8403 120.389 9.76149 119.19 9 117.61C10.2057 118.316 10.597 117.027 11.3162 116.546V116.557Z" fill="#456978"/>
<path d="M115.281 91.883C115.968 92.2079 116.645 92.5441 117.322 92.869C116.909 93.6982 116.137 93.7878 115.387 93.9223C108.269 94.6731 101.161 95.435 93.7687 96.2194C95.4926 100.847 99.0251 100.926 102.23 101.06C108.163 101.318 113.789 102.192 118.242 106.898C120.188 108.702 118.591 109.139 117.29 109.688C106.915 111.996 97.5232 116.904 88.1739 121.947C86.8836 123.258 85.0221 124.322 86.4182 126.742C89.7286 129.152 92.986 127.168 95.9051 126.07C104.535 122.843 112.954 119.089 122.43 119.93C124.524 120.12 126.322 118.518 128.237 117.7C128.861 117.431 129.612 116.971 130.066 117.834C130.669 118.966 129.823 119.325 129.019 119.683C124.397 121.678 119.86 123.908 115.164 125.656C108.565 128.121 104.504 133.925 99.6385 138.609C97.5655 140.603 100.009 141.264 101.405 141.332C104.313 141.489 106.968 140.099 109.009 138.183C114.255 133.275 120.706 132.491 127.147 131.561C128.078 131.426 129.601 130.631 129.855 132.39C130.056 133.791 128.607 133.656 127.74 133.903C121.077 135.807 114.911 138.586 110.479 144.548C109.834 145.422 108.459 146.15 109.252 147.472C110.236 149.142 111.431 147.876 112.489 147.338C118.76 144.133 125.571 142.508 132.065 139.976C135.249 138.743 138.686 139.729 141.996 139.752C145.349 139.774 148.596 139.147 151.885 138.721C164.46 138.317 177.035 137.88 189.6 138.956C187.971 139.797 186.342 140.637 184.714 141.477C183.825 141.869 182.979 141.578 182.133 141.332C177.48 140.323 172.889 141.264 168.299 141.892C160.854 142.004 153.366 141.466 146.036 143.472C145.508 143.618 144.926 143.696 144.387 143.618C134.064 142.116 124.884 146.43 115.524 149.904C115.006 150.094 114.488 150.318 113.969 150.509C107.973 152.649 105.868 151.136 105.572 144.391C103.795 144.189 102.018 144.727 100.231 144.391C95.7993 143.539 94.4033 139.774 97.206 135.987C98.3165 134.485 99.6596 133.208 101.098 132.065C103.393 130.687 105.022 128.49 106.936 126.642C108.47 125.162 110.077 123.829 112.277 123.683C108.776 123.919 105.963 126.126 102.822 127.392C99.2366 128.479 95.8416 130.182 92.1505 130.9C88.6815 131.572 85.5721 131 82.9598 128.3C79.6917 124.938 79.9561 121.734 84.0703 119.627C89.7709 116.691 95.5878 113.98 101.415 111.324C102.431 110.865 103.414 110.327 104.43 109.879C106.809 108.836 109.464 108.646 112.203 107.257C108.057 103.525 103.256 105.363 99.0462 104.321C97.3117 103.693 95.2176 103.738 94.2552 101.587C93.7264 100.926 93.1235 100.309 92.6688 99.5922C91.8332 98.2587 90.7439 96.8133 91.2198 95.1885C91.8015 93.1716 93.737 93.8327 95.1542 93.6982C101.87 93.0371 108.586 92.4544 115.302 91.8381L115.281 91.883Z" fill="#020202"/>
<path d="M102.335 132.468C100.908 133.858 99.4586 135.225 98.0414 136.625C96.8991 137.768 95.8415 139.023 96.5924 140.85C97.3327 142.62 98.7288 143.393 100.548 143.584C103.382 143.898 112.319 137.118 112.52 138.396C113.208 139.606 108.311 143.293 107.909 143.763C106.418 145.489 105.868 147.382 107.359 149.299C108.713 151.047 110.447 150.666 112.288 149.948C118.538 147.528 124.831 145.265 131.103 142.9C133.218 142.105 135.312 141.813 137.607 142.049C141.605 142.463 145.603 142.049 149.622 141.477C156.115 140.559 165.486 140.178 171.694 140.2C179.87 141.175 182.334 146.968 187.717 152.929C189.727 155.148 191.408 157.4 194.391 158.52C198.442 160.044 198.748 162.969 196.125 166.667C194.158 169.446 191.504 171.227 188.976 173.244C186.765 174.656 185.369 177.088 183.18 178.511C175.057 183.295 168.638 190.467 161.15 196.17C156.517 199.7 152.678 204.596 146.396 205C135.873 196.495 106.64 173.379 96.1165 164.874C91.886 159.932 106.407 169.546 102.092 164.683C101.288 163.776 100.04 163.193 98.898 162.745C91.8648 160.044 86.2383 155.316 81.7963 149.097C79.6704 146.128 76.9946 144.626 73.8747 143.214C69.0413 141.04 64.6205 137.948 61.437 133.365C60.3371 131.774 58.8564 131.314 57.3228 130.687C56.2758 130.261 55.2499 129.544 55.2393 128.222C55.2288 126.877 56.3393 125.768 57.3017 125.835C60.5698 126.048 61.0774 122.989 62.7485 121.274C66.7145 117.207 70.6806 113.106 74.9323 109.397C78.0205 106.707 80.5165 103.458 83.2875 100.477C85.6883 97.889 87.5815 96.2866 90.2361 99.8723C91.2303 101.217 92.5206 102.001 94.2233 101.587C95.8415 102.192 97.4702 102.808 99.0884 103.413C101.267 104.668 103.71 103.357 105.921 104.186C107.38 104.735 109.707 103.94 110.109 106.08C110.585 108.568 108.258 108.915 106.65 109.61C106.016 109.89 105.35 110.091 104.905 110.708C98.2846 113.946 91.6639 117.162 85.0432 120.411C80.3685 122.709 80.1569 124.737 84.1653 128.143C86.3758 130.026 88.8506 130.586 91.5476 129.79C95.3867 128.659 99.1942 127.426 103.023 126.238C105.318 126.586 104.99 128.177 104.366 129.712C103.932 130.776 102.98 131.505 102.325 132.435L102.335 132.468Z" fill="#456978"/>
<path d="M189.008 173.266C190.636 170.331 193.894 169.199 195.565 166.151C197.543 162.543 197.12 159.899 193.344 159.293C190.964 158.913 189.833 157.635 188.542 155.786C183.392 148.424 176.105 144.211 168.278 140.894C173.101 139.752 177.945 139.516 182.831 140.345C181.71 142.486 179.521 141.231 177.638 142.239C182.895 146.295 187.844 150.475 192.847 154.576C194.804 156.178 197.014 157.545 198.103 160.089C198.442 160.683 198.78 161.277 199.119 161.871C200.811 163.596 201.382 165.008 198.558 166.263C194.941 167.877 193.175 172.404 189.018 173.266H189.008Z" fill="#456978"/>
<path d="M183.201 178.533C184.862 176.438 186.173 173.917 188.997 173.267C187.347 175.362 186.004 177.861 183.201 178.533Z" fill="#456978"/>
<path d="M198.082 160.089C190.446 153.982 180.949 146.195 173.006 139.853C177.057 139.718 179.891 139.853 182.81 140.346C183.445 140.727 184.069 141.108 184.703 141.489C188.225 144.458 191.557 147.752 195.332 150.307C199.193 152.918 199.954 155.954 198.072 160.089H198.082Z" fill="#F1EBE9"/>
<path d="M189.6 138.967C177.035 138.889 164.46 138.81 151.896 138.732C160.536 137.544 169.23 138.295 177.892 138.138C187.95 137.959 198.018 138.105 208.087 138.105C208.087 138.396 208.045 138.687 207.981 138.967C204.544 139.449 201.117 139.472 197.68 138.956C194.994 138.956 192.297 138.956 189.61 138.956L189.6 138.967Z" fill="#020202"/>
<path d="M197.68 138.956C201.117 138.956 204.554 138.956 207.981 138.956C204.544 139.931 201.106 139.976 197.68 138.956Z" fill="#020202"/>
<path d="M117.29 109.688C117.988 108.904 119.088 108.276 118.242 106.898C121.193 106.954 123.89 105.688 126.713 105.06C127.581 104.87 128.797 104.276 129.04 105.833C129.22 106.954 128.205 107.189 127.39 107.357C124.006 108.063 120.791 109.554 117.301 109.688H117.29Z" fill="#020202"/>
<path d="M104.926 110.753C105.339 108.736 107.401 109.117 108.438 108.019C108.892 107.537 109.432 106.842 109.432 106.248C109.432 105.34 108.448 105.531 107.845 105.262C105.043 104.007 101.785 105.296 99.1094 103.458C104.524 103.85 110.299 102.763 115.376 107.873C111.462 108.949 108.205 109.845 104.937 110.753H104.926Z" fill="#456978"/>
<path d="M102.335 132.468C102.451 130.384 105.603 128.703 103.044 126.272C106.481 124.244 109.908 122.171 114.201 123.235C109.114 124.759 106.322 129.454 102.335 132.457V132.468Z" fill="#456978"/>
</g>
<defs>
<clipPath id="clip0_1199_39">
<rect width="281" height="209" fill="white" transform="translate(9)"/>
</clipPath>
</defs>
</svg>
