<svg width="291" height="383" viewBox="0 0 291 383" fill="none" xmlns="http://www.w3.org/2000/svg">
<rect width="290.09" height="383" rx="10" fill="#446878"/>
<g clip-path="url(#clip0_1199_40)">
<path d="M120.852 299.909C117.142 300.237 110.724 296.486 107.658 293.711C108.726 293.2 109.766 292.616 110.871 292.196C112.971 291.402 114.14 289.996 113.468 287.778C112.777 285.487 111 285.158 108.827 285.761C98.2565 288.663 87.6675 291.539 77.0785 294.386C74.0675 295.199 71.0289 295.902 68.0088 296.65C68.0916 296.02 69.4176 295.911 68.7362 294.998C68.3034 294.432 67.7694 293.894 66.9867 294.542C66.425 295.007 65.8265 295.336 65.0623 295.245C64.9886 292.433 67.7141 291.803 69.1597 290.206C71.4249 287.723 71.4893 287.577 68.5981 285.788C68.0916 285.469 67.5484 285.195 67.0604 284.848C65.8173 283.953 63.9205 283.114 64.9149 281.288C65.9554 279.38 67.6404 280.603 69.0124 281.27C70.0897 281.799 71.1394 282.402 72.1339 283.077C73.9386 284.309 75.5223 284.209 77.4284 282.986C81.5443 280.339 84.4816 281.032 87.0321 285.332C88.266 287.404 89.6471 287.824 91.7834 287.248C94.693 286.473 97.5659 285.587 100.494 284.884C106.295 283.497 106.82 282.821 107.667 277.08C115.337 261.161 108.155 231.532 109.26 230.227C109.904 229.852 110.705 227.077 113.201 251.467C113.394 255.922 113.569 260.376 113.044 264.821C112.022 270.179 111.055 275.537 109.941 280.877C109.637 282.347 109.969 282.858 111.387 283.442C116.12 285.405 116.921 288.033 114.398 292.333C114.122 293.099 113.228 293.428 112.98 294.204C114.343 295.947 119.665 297.7 120.852 299.9V299.909Z" fill="#0C0C14"/>
<path d="M184.046 383H121.682C120.77 381.987 120.678 380.828 121.074 379.586C124.776 370.623 127.437 361.294 130.475 352.102C136.064 335.188 141.313 318.165 146.966 301.269C148.486 296.732 149.71 292.114 151.147 287.55C151.754 285.605 152.325 283.652 153.568 281.982C154.075 281.334 154.59 280.704 155.474 280.549C170.944 282.374 186.348 284.601 201.799 286.582C204.902 286.984 208.023 287.175 211.136 287.559C212.793 287.632 214.183 288.316 215.39 289.403C216.154 292.689 214.285 295.418 213.327 298.302C210.684 306.216 208.392 315.508 205.123 323.203C200.758 325.786 200.556 328.488 201.67 332.879C201.707 334.704 200.989 337.123 199.276 338.109C197.536 338.73 196.569 336.767 195.261 336.001C191.468 333.782 190.51 334.33 188.659 338.365C185.575 345.092 185.98 351.591 189.055 358.127C189.258 358.556 189.35 359.03 189.424 359.505C190.51 366.241 189.23 372.594 185.915 378.482C185.087 379.96 185.446 381.832 184.046 383.009V383Z" fill="#971B49"/>
<path d="M1.45511 328.315C1.72214 324.463 4.40162 322.345 7.19159 320.2C15.1564 314.075 24.5299 311.611 34.1613 309.73C41.8498 308.224 41.8498 308.197 42.8995 300.666C43.0929 299.251 43.1942 297.818 43.3967 296.404C43.673 294.45 44.7043 293.382 46.8313 293.729C47.5311 293.464 48.2124 293.145 48.9859 293.136C54.2804 293.136 59.4368 294.98 64.7773 294.341C65.118 294.249 65.4679 294.204 65.7902 294.076C67.0424 293.565 68.3039 293.236 69.2063 294.596C70.2468 296.166 68.8195 296.833 67.9356 297.681C65.7257 299.27 65.5784 301.771 65.1917 304.089C62.0794 322.582 58.5068 340.993 55.3301 359.468C54.2343 365.821 53.157 372.183 51.8956 378.509C51.5641 380.152 51.2602 381.813 49.8975 383H1.317C-0.0457603 381.548 0.0279024 379.723 0.0279024 377.943C0.000278902 363.055 -0.00892892 348.159 0.0371102 333.271C0.0371102 331.528 -0.17467 329.638 1.45511 328.315Z" fill="#0C0C14"/>
<path d="M49.8975 383C54.8421 355.525 59.8143 328.059 64.6668 300.566C65.0535 298.394 65.7902 297.024 68.0185 296.65C79.0494 291.812 90.9459 289.822 102.41 286.409C104.472 285.797 106.507 285.03 108.653 284.656C111.185 284.218 113.238 284.784 114.223 287.367C115.107 289.676 113.975 291.894 111.314 293.118C110.338 293.565 108.634 293.255 107.667 293.72C103.349 295.801 99.1961 295.892 94.6843 297.006C95.9734 296.714 97.2809 296.623 98.5792 296.376C101.82 295.756 104.555 298.32 104.27 301.561C104.15 302.939 103.515 303.916 102.032 303.834C100.531 303.752 99.2606 304.6 98.1649 304.619C99.6105 304.427 101.342 303.423 103.211 304.089C105.154 304.792 105.844 306.435 106.203 308.261C106.618 310.369 106.148 311.885 103.57 311.802C101.968 311.748 100.55 312.597 99.2053 312.66C98.5056 312.806 99.0857 313.263 98.8831 312.825C98.8647 312.779 98.966 312.724 99.1869 312.679C106.397 311.045 109.73 314.477 107.667 321.661C106.093 327.128 104.058 332.413 98.1188 334.85C96.1207 335.005 93.6714 336.868 92.2995 334.239C90.9275 331.619 93.0637 329.83 94.8132 328.169C95.2828 327.721 95.7985 327.32 96.3417 326.946C93.3492 328.771 91.1025 331.044 91.3603 334.887C91.4063 335.59 91.0748 336.274 90.6052 336.858C88.4046 338.492 88.5795 340.683 89.0307 343.011C91.2682 354.612 93.2387 366.259 95.3289 377.888C95.6419 379.623 96.2865 381.412 94.8685 383.009H49.9067L49.8975 383Z" fill="white"/>
<path d="M94.8594 383C92.6311 370.075 90.3936 357.15 88.1653 344.225C87.9811 343.166 87.9351 342.061 87.5852 341.057C86.6276 338.282 87.7417 336.813 90.4488 336.219C92.5758 334.439 95.6513 335.909 97.7691 334.102C104.242 330.733 106.553 324.819 107.115 318.174C107.502 313.573 105.439 312.204 100.835 313.208C100.126 313.363 99.4357 313.61 98.7267 313.683C97.7046 313.801 96.2406 315.463 95.771 313.591C95.3842 312.049 97.4744 312.332 98.4504 311.912C99.5185 311.455 100.909 311.711 101.959 311.218C103.128 310.67 105.982 312.587 105.347 309.274C104.887 306.882 104.62 303.971 100.789 304.929C99.1594 305.34 97.5296 305.769 95.9183 306.234C95.2461 306.426 94.7213 306.389 94.4911 305.668C94.2333 304.874 94.8041 304.628 95.4211 304.473C97.1705 304.025 98.9292 303.642 100.66 303.149C101.793 302.82 103.975 303.779 103.377 301.114C102.916 299.087 102.529 296.878 99.7579 297.106C97.8519 297.262 95.9919 297.882 94.1135 298.284C93.3769 298.439 92.3825 299.233 92.051 297.937C91.7471 296.75 92.9534 296.75 93.69 296.486C98.2202 294.861 103.257 295.737 107.704 293.702C111.093 294.176 113.026 294.195 117.842 295.253C118.625 295.235 119.38 295.436 120.126 295.646C125.411 297.691 131.157 298.366 136.239 300.986C136.994 301.497 137.676 302.09 138.744 301.771C140.401 301.287 140.337 302.51 140.42 303.551C139.434 311.592 136.331 319.068 134.076 326.763C129.665 341.842 125.061 356.858 120.347 371.846C119.352 375.013 120.936 377.094 121.857 379.577L121.728 382.972H94.8962L94.8594 383Z" fill="#0C0C14"/>
<path d="M191.652 380.006C189.543 381.549 189.81 381.877 189.12 383H187.665C186.68 381.749 187.324 380.49 187.674 379.248C189.064 374.319 190.639 369.445 192.269 364.589C196.302 364.169 197.637 367.382 199.506 369.874C197.711 372.923 195.105 375.469 193.816 378.838C193.236 379.504 192.646 380.125 191.643 380.006H191.652Z" fill="#971B49"/>
<path d="M192.913 364.306C191.946 370.75 189.027 376.665 187.674 383.009H185.5C184.598 381.978 184.488 380.654 185.16 379.668C188.079 375.387 188.244 370.239 189.828 365.547C190.196 364.452 190.528 363.548 191.753 363.256C192.425 363.293 192.876 363.576 192.913 364.306Z" fill="#F3CFBA"/>
<path d="M191.937 362.772C191.127 365.465 190.381 367.747 189.635 369.892C188.134 374.219 186.78 378.628 185.491 383.009H184.037C183.935 380.827 184.027 378.81 185.786 377.058C186.652 376.2 187.268 374.703 187.287 373.479C187.351 368.687 190.252 364.114 188.429 359.194C190.878 359.587 191.624 360.6 191.918 362.782L191.937 362.772Z" fill="#971B49"/>
<path d="M38.2488 253.557C37.3649 245.233 32.9543 237.976 30.9194 230.007C27.8624 218.023 35.7903 205.225 47.8986 202.386C48.5984 202.222 49.5284 202.304 49.9704 201.875C53.8377 198.096 58.681 199.119 63.2941 199.155C74.279 199.246 85.2548 199.575 96.2397 199.539C108.818 199.493 117.648 209.798 113.596 221.455C113.21 222.577 113.072 223.782 112.814 224.951C112.427 226.95 111.948 228.93 111.617 230.938C109.849 232.655 108.017 232.399 106.166 231.103C103.578 228.364 104.039 224.613 102.952 221.372C101.507 217.073 101.635 217.009 97.4643 219.154C88.1368 223.956 78.22 226.028 67.7691 225.014C64.5003 224.695 63.1836 225.909 62.5575 228.839C61.8393 232.226 60.9553 235.585 59.7307 238.834C59.6202 239.181 59.4913 239.519 59.3624 239.866C58.9848 240.687 58.7178 241.572 58.2482 242.357C57.0696 243.9 55.5964 244.904 53.5522 244.84C52.8248 244.749 52.1987 244.402 51.5541 244.083C45.7256 241.143 43.8288 241.709 40.56 247.387C39.897 248.574 40.1641 249.888 39.9707 251.138C39.8049 252.188 40.0536 253.63 38.2396 253.567L38.2488 253.557Z" fill="#0C0C15"/>
<path d="M191.873 364.26C190.667 362.837 189.47 361.413 188.263 359.98C185.418 355.808 185.538 350.934 185.188 346.251C184.893 342.253 187.49 339.086 189.322 335.791C190.381 333.892 192.103 333.846 194 334.896C195.667 335.809 197.002 337.315 198.981 337.68C199.976 337.79 200.805 338.301 201.67 338.73C203.659 339.798 205.749 340.674 207.775 342.235C205.924 339.98 204.267 337.963 202.315 336.192C201.44 335.362 201.053 334.248 200.547 333.207C199.193 327.685 200.593 323.915 204.515 322.528C205.454 322.318 206.099 322.957 206.854 323.295C210.942 325.777 214.165 329.346 217.996 332.158C219.036 333.819 221.2 335.699 221.973 336.703C222.01 336.977 220.104 335.9 220.141 336.174C221.108 337.205 221.356 338.036 219.561 338.328C217.692 338.164 216.614 336.776 215.463 335.581C212.775 332.806 209.847 330.323 206.753 328.014C205.952 327.411 205.077 326.307 203.926 327.329C203.042 328.114 203.033 329.264 203.355 330.341C203.769 331.756 204.755 332.833 205.685 333.938C208.935 337.78 212.618 341.286 215.132 345.713C215.74 346.781 216.752 347.456 217.747 348.15C219.082 349.081 221.32 350.057 220.123 351.892C218.935 353.709 216.946 352.12 215.657 351.29C210.998 348.296 205.97 345.895 201.357 342.828C198.945 341.222 196.339 339.953 193.843 338.502C192.996 338.009 191.974 337.671 191.247 338.693C190.593 339.615 190.98 340.537 191.606 341.331C192.361 342.29 193.401 342.919 194.405 343.586C200.224 347.447 206.062 351.29 211.882 355.142C212.683 355.671 213.53 356.155 214.266 356.776C215.252 357.597 216.78 358.464 215.73 359.934C214.736 361.321 213.272 360.472 212.176 359.751C206.044 355.708 199.838 351.783 193.742 347.684C192.315 346.726 190.529 344.608 189.101 345.676C187.361 346.981 189.976 348.77 190.05 350.487C190.105 351.582 188.982 352.075 188.724 353.006C190.326 359.14 194.921 363.01 199.405 366.962C200.39 367.829 201.532 368.505 202.499 369.409C203.291 370.148 204.248 371.033 203.456 372.138C202.591 373.343 201.32 372.877 200.215 372.284C199.571 371.937 199.055 371.435 199.037 370.623C196.928 368.779 194.81 366.926 192.702 365.082C192.416 364.799 192.131 364.525 191.845 364.242L191.873 364.26Z" fill="#402B29"/>
<path d="M139.747 303.085C139.176 301.36 138.587 304.263 138.366 301.935C139.968 302.392 136.957 306.983 139.213 299.288C141.598 291.146 144.13 283.04 146.588 274.926C147.113 273.182 147.73 271.904 150.051 272.279C166.68 274.971 183.447 276.779 200.012 279.919C205.344 280.932 209.579 284.209 214.616 287.285C214.34 272.762 225.84 265.962 233.464 256.725C234.753 255.164 236.015 255.538 237.414 256.88C238.51 257.93 239.109 259.536 240.738 260.038C241.54 260.641 242.083 261.316 241.42 262.338C240.508 262.904 239.689 262.585 238.888 262.074C235.481 259.061 234.873 259.025 232.074 262.457C229.956 265.068 227.617 267.459 225.214 269.787C221.411 273.474 218.815 277.792 217.977 283.068C217.572 284.337 217.783 285.66 217.599 286.938C217.378 288.472 216.78 289.658 214.975 289.759C213.704 289.631 212.719 288.919 211.734 288.216C210.343 288.189 209.165 287.559 208.069 286.838C203.327 283.725 198.005 282.365 192.471 281.607C180.915 280.01 169.369 278.349 157.84 276.505C156.588 276.304 155.271 275.884 153.955 276.55C154.056 278.203 156.054 279.344 155.179 281.187C154.82 281.616 154.461 282.055 154.102 282.484C151.542 282.237 151.192 279.471 149.314 278.376C148.089 278.65 148.246 279.8 147.979 280.631C145.953 287.011 144.24 293.483 142.169 299.845C141.754 301.132 142.021 303.131 139.71 303.094L139.747 303.085Z" fill="#0C0C14"/>
<path d="M219.653 336.941C214.939 331.354 220.426 336.028 220.344 335.371C227.277 340.546 229.358 346.735 226.596 354.85C223.778 363.129 218.898 370.239 212.821 376.455C207.904 381.485 197.02 383 190.888 380.052C191.394 379.604 191.91 379.166 192.416 378.719C194.322 378.244 197.02 378.4 198.945 378.372C204.589 378.299 209.23 376.182 212.894 371.873C216.817 367.264 220.169 362.271 222.526 356.73C225.04 350.824 225.905 344.918 220.647 339.743C219.92 339.031 219.027 338.2 219.644 336.932L219.653 336.941Z" fill="#402B29"/>
<path d="M38.249 253.557C40.0353 251.44 37.6045 248.382 39.888 246.383C41.0114 247.542 40.7996 249.03 40.8825 250.436C41.3152 257.637 44.1604 261.088 51.14 262.548C53.6077 263.069 54.3811 264.073 53.3867 266.528C51.9226 270.124 52.1528 274.031 51.8674 277.801C51.5543 281.836 50.8269 285.843 50.9558 289.914C51.0019 291.383 50.5599 292.743 49.4457 293.802C48.571 293.784 47.7055 293.757 46.8307 293.738C48.4145 290.124 47.6962 286.226 48.1935 282.484C48.7644 278.13 48.7091 273.693 49.1511 269.312C49.3721 267.094 48.8288 265.953 46.6097 265.049C41.5454 262.986 38.8291 258.988 38.249 253.576V253.557Z" fill="#0C0C15"/>
<path d="M139.747 303.085C142.887 295.728 144.553 287.906 147.086 280.348C147.537 279.006 147.96 277.655 148.494 275.976C151.229 277.71 151.984 280.713 154.13 282.466C150.64 293.154 147.132 303.834 143.651 314.532C136.819 335.581 129.996 356.63 123.21 377.688C122.933 378.546 122.657 379.239 121.801 379.605C118.725 377.961 117.943 375.88 119.066 372.284C125.705 350.961 132.003 329.538 138.559 308.197C139.084 306.49 138.762 304.646 139.747 303.085Z" fill="#F6F4F1"/>
<path d="M155.207 281.16C154.333 278.823 151.791 277.445 151.377 274.57C166.644 276.779 181.79 278.842 196.891 281.215C202.425 282.082 207.443 284.51 211.753 288.189C210.408 289.467 209.009 288.426 207.655 288.253C191.201 286.226 174.746 284.181 158.292 282.091C157.242 281.954 156.239 281.48 155.207 281.16Z" fill="#F4F2EF"/>
<path d="M200.556 333.208C201.513 333.856 202.231 334.157 203.069 334.86C203.778 336.585 203.346 337.817 201.486 338.42C201.136 339.141 199.828 338.511 198.99 337.68C200.206 336.43 200.675 334.914 200.556 333.208Z" fill="#E2CCB2"/>
<path d="M214.994 289.74C216.154 288.782 216.973 287.778 216.734 286.062C216.568 284.875 216.384 283.524 217.277 282.42C218.272 282.903 218.069 283.971 218.437 284.784C219.588 284.4 220.334 282.429 221.946 283.898C222.01 284.382 222.01 284.902 221.725 285.286C217.056 291.621 215.859 299.27 213.613 306.508C212.13 311.3 210.178 315.937 208.705 320.729C208.392 321.761 207.922 322.747 206.79 323.185C206.108 322.683 205.519 322.601 204.524 322.519C206.504 316.275 208.65 309.228 210.648 302.994C212.066 298.567 213.539 294.149 214.985 289.731L214.994 289.74Z" fill="#F3CCBB"/>
<path d="M49.4456 293.793C50.0809 285.578 50.7163 277.363 51.3424 269.148C51.3977 268.436 51.1398 267.468 51.5082 267.039C55.7437 262.22 50.8912 263.981 49.0497 263.68C43.8841 262.84 39.2802 256.004 39.6301 249.578C39.6853 248.51 39.805 247.442 39.8971 246.374C43.8841 240.03 47.2265 239.51 53.3773 244.274C54.869 244.749 55.5228 246.018 56.1765 247.396C56.7382 246.611 56.4251 245.671 57.0789 245.105C61.7012 243.042 66.5629 241.892 71.5996 241.509C73.8003 241.344 74.675 243.024 75.4669 244.694C76.6179 247.131 78.1924 248.984 80.9364 249.979C86.2032 251.878 92.5566 248.692 93.726 243.206C94.1035 241.445 94.0023 239.51 96.3595 239.09C98.5325 238.706 98.1642 219.465 99.2139 221.318C100.604 224.366 101.286 245.963 104.297 250.974C106.525 254.671 105.309 255.894 101.617 258.359C101.129 258.687 101.313 220.807 100.991 221.299C100.208 204.057 109.849 235.046 108.652 232.764C109.453 231.495 110.963 248.802 111.028 249.76C111.11 251.029 111.12 252.216 111.23 253.566C111.285 254.269 111.11 255.091 111.249 255.775C111.018 259.463 111.709 262.895 110.705 266.546C109.711 271.585 108.633 276.614 107.777 281.68C107.464 283.515 106.553 284.382 104.877 284.83C100.098 286.089 95.319 287.376 90.5493 288.663C88.6249 289.184 87.4002 289.229 86.5807 286.692C85.043 281.954 81.0284 280.978 77.3637 284.273C75.7431 285.724 74.4725 285.56 72.8979 284.629C70.9274 283.46 68.957 282.301 66.9773 281.151C66.342 280.786 65.5685 280.366 65.0897 281.188C64.6753 281.909 65.191 282.548 65.8724 282.94C67.6403 283.962 69.3621 285.094 71.2129 285.961C73.2202 286.902 73.5425 287.687 71.6641 289.211C69.3529 291.091 67.2627 293.236 65.0713 295.263C59.7399 296.084 54.6296 294.596 49.4456 293.811V293.793Z" fill="#FEFEFE"/>
<path d="M97.7599 334.102C95.7434 336.247 92.9258 335.69 90.4397 336.22C89.4821 331.208 91.9221 328.004 96.1209 325.75C97.0509 325.248 98.2663 324.39 98.9477 325.631C99.6107 326.845 98.0546 327.046 97.3179 327.457C95.6145 328.415 94.0584 329.547 93.0455 331.208C92.4378 332.212 91.9314 333.554 92.6864 334.577C93.4967 335.672 97.0601 334.221 97.7599 334.093V334.102Z" fill="#0C0C14"/>
<path d="M219.653 336.94C227.489 344.918 227.056 349.71 221.973 360.207C219.68 364.954 216.522 369.198 213.134 373.251C208.769 378.463 198.834 380.754 192.057 378.573C195.188 375.314 196.956 372.913 199.248 369.847C200.482 370.686 201.559 371.909 203.548 371.572C203.419 369.828 201.937 369.271 200.915 368.496C196.67 365.292 192.821 361.704 189.856 357.296C188.733 355.625 187.831 353.754 187.775 351.636C189.617 350.267 190.869 351.728 192.057 352.677C197.167 356.757 202.351 360.737 207.554 364.708C203.143 361.075 198.53 357.697 194.11 354.074C192.563 352.796 190.694 351.81 189.856 349.829C188.797 348.432 187.094 347.392 187.361 345.283C187.481 344.352 187.352 343.248 188.291 342.728C189.212 342.216 189.801 343.157 190.473 343.595C197.83 348.396 205.187 353.197 212.535 358.008C213.042 358.336 213.511 358.72 214.018 359.048C214.644 359.45 215.426 359.851 215.914 359.057C216.421 358.218 215.555 357.807 214.984 357.423C211.476 355.087 207.968 352.759 204.451 350.441C200.234 347.657 196.035 344.836 191.762 342.125C190.243 341.158 189.534 339.971 189.875 338.246C190.344 335.845 191.993 335.334 194.469 336.794C201.716 341.094 208.953 345.411 216.209 349.71C217.038 350.203 217.876 350.669 218.741 351.098C219.248 351.344 219.865 351.846 220.343 351.189C220.933 350.386 220.279 349.856 219.662 349.482C212.554 345.201 209.533 337.233 203.558 331.929C202.499 330.989 202.176 329.666 202.333 328.315C202.499 326.882 202.766 325.193 204.092 324.545C205.316 323.951 206.127 325.494 207.075 326.16C211.624 329.346 215.491 333.326 219.662 336.959L219.653 336.94Z" fill="#F4F3F3"/>
<path d="M59.0686 240.559C60.3025 235.977 61.2325 230.026 62.4019 225.425C62.807 223.828 63.5621 223.454 65.2379 223.682C77.5211 225.371 89.0401 223.052 99.6199 216.635C101.728 215.357 102.226 215.768 103.036 217.931C101.139 226.274 104.546 226.548 106.489 230.519C106.71 230.82 106.756 231.149 106.636 231.505C104.896 233.138 103.515 235.366 100.651 235.22C100.117 235.055 99.8409 234.471 99.27 234.316C99.1411 235.156 99.4818 235.959 99.3344 236.79C97.9901 239.19 95.6697 239.574 93.4322 237.666C92.272 236.671 91.4065 235.393 90.4673 234.188C88.7178 231.03 85.67 231.413 82.8156 231.587C80.0072 231.751 77.1804 231.787 75.9097 235.311C75.0534 237.693 72.153 238.57 70.6613 240.623C70.0352 241.144 69.3169 241.445 68.5067 241.554C65.0906 241.354 61.656 244.019 59.041 240.569L59.0686 240.559Z" fill="#F9F8F8"/>
<path d="M97.1704 239.528C96.6824 243.544 93.4965 232.828 94.8777 232.874C95.955 231.486 99.1501 242.823 97.1704 239.528Z" fill="#474244"/>
<path d="M68.7086 240.623C69.2243 240.413 69.7307 240.203 70.2463 239.993C72.2536 238.871 74.0768 237.547 75.4303 235.639C79.3345 230.108 85.7063 229.241 91.1849 233.485C93.0265 234.927 92.6398 240.002 99.9784 238.56C101.516 238.259 102.98 241.079 101.129 241.49C99.1681 241.928 95.5863 240.276 94.7852 243.389C93.7907 247.286 89.4262 251.458 85.117 251.942C81.2681 252.371 76.1117 249.559 74.7582 245.552C73.7269 242.503 72.1708 242.02 69.4268 242.722C65.357 243.772 61.2503 244.667 57.162 245.634C55.6796 245.68 56.1492 245.114 56.1307 244.74C56.0571 243.243 57.4383 242.823 57.7697 242.029C58.0368 241.362 58.3498 241.043 59.0772 240.559C60.4032 242.193 61.7659 241.6 63.4694 241.235C65.2189 240.86 67.0512 241.408 68.7178 240.623H68.7086Z" fill="#C69C80"/>
<path d="M57.7609 242.029C57.9358 242.951 57.4846 243.553 56.7572 244.028C55.4129 244.922 56.5086 245.224 57.1623 245.634C56.3613 247.177 59.5195 249.039 57.457 249.806C55.9101 250.381 55.5878 247.597 54.7223 246.301C54.2711 245.625 53.8199 244.95 53.3779 244.274C55.0722 243.964 56.4626 243.069 57.7701 242.02L57.7609 242.029Z" fill="#0C0C15"/>
<path d="M206.798 323.194C210.509 312.879 213.962 302.474 216.761 291.885C217.636 288.581 220.306 286.591 221.743 283.752C222.663 279.663 226.531 277.883 228.796 274.844C231.402 273.027 234.164 271.439 235.444 268.217C235.95 266.948 237.193 265.597 238.823 266.345C240.453 267.094 239.919 268.618 239.532 270.079C238.215 274.99 237.046 279.928 234.91 284.583C234.854 286.81 232.948 288.563 233.243 290.881C228.409 303.414 224.081 316.12 220.279 328.999C219.514 330.049 218.759 331.099 217.995 332.158C214.257 329.173 210.527 326.179 206.789 323.194H206.798Z" fill="#971B49"/>
<path d="M189.874 349.82C196.255 354.713 202.636 359.614 209.008 364.507C209.588 364.945 210.343 365.474 209.818 366.232C209.119 367.245 208.345 366.488 207.701 365.976C202.287 361.768 196.909 357.524 191.458 353.371C190.399 352.567 189.589 350.988 187.784 351.618C187.885 350.34 189.524 350.806 189.874 349.802V349.82Z" fill="#3D3B3F"/>
<path d="M200.593 338.775C201.412 337.716 202.959 336.229 203.07 334.859C205.703 337.205 208.125 339.715 210.473 343.421C206.753 341.888 203.171 340.61 200.593 338.775Z" fill="#971B49"/>
<path d="M229.054 275.784C226.623 278.44 224.183 281.096 221.752 283.753C219.561 283.57 219.635 286.372 217.793 286.81C216.927 285.359 217.738 283.807 217.277 282.411C217.664 278.057 219.754 274.488 222.618 271.329C225.914 267.697 229.45 264.264 232.599 260.513C234.616 258.112 236.199 257.647 238.124 260.394C238.465 260.878 238.925 261.289 239.321 261.727C240.527 263.151 240.085 264.356 238.814 265.433C235.159 268.518 232.756 272.753 229.045 275.784H229.054Z" fill="#F6F0EC"/>
<path d="M229.054 275.784C231.208 271.64 235.195 269.029 237.893 265.323C238.722 264.182 239.901 263.352 239.32 261.727C239.983 261.864 240.637 262.01 241.3 262.147C242.552 264.739 241.963 267.003 240.803 269.613C238.934 273.821 237.727 278.33 236.309 282.739C236.042 283.57 219.201 331.144 218.188 331.354C219.478 326.544 237.488 274.962 238.768 270.152C239.063 269.047 239.799 267.578 238.464 266.994C237.341 266.501 236.576 267.888 236.227 268.837C234.928 272.315 231.927 273.967 229.054 275.784Z" fill="#971B49"/>
<path d="M69.7588 293.419C72.8894 290.699 76.0109 287.96 79.1508 285.249C80.2373 284.309 81.4435 283.981 82.7694 284.83C84.2979 285.797 85.2555 287.248 85.2555 288.955C85.2555 290.681 83.5153 290.598 82.2998 290.927C78.276 292.022 74.2522 293.109 70.2376 294.195C70.0811 293.939 69.9153 293.674 69.7588 293.419Z" fill="#FEFEFE"/>
<path d="M96.0288 268.372C93.6531 267.815 91.1026 267.231 88.5612 266.61C87.8614 266.437 87.0972 266.117 87.2997 265.223C87.5115 264.31 88.3494 264.392 89.0492 264.547C91.609 265.113 94.1596 265.707 96.7009 266.336C97.3915 266.51 98.1742 266.912 97.9992 267.751C97.7967 268.71 96.8759 268.317 96.0288 268.372Z" fill="#0C0C15"/>
<path d="M76.6 244.256C75.2188 239.181 76.4527 236.342 81.0197 234.088C88.0361 232.408 92.861 236.863 91.6087 243.508C90.6603 248.51 85.3382 249.97 82.714 248.82C80.4212 247.816 77.8615 246.785 76.6 244.247V244.256Z" fill="#F5F1F0"/>
<path d="M88.2016 243.891C87.8609 245.89 86.756 246.657 84.8315 245.443C83.2846 243.462 83.7726 240.979 85.5313 240.194C88.2108 238.998 88.395 242.777 88.2016 243.891Z" fill="#1C1D21"/>
<path d="M100.697 248.564C105.356 259.673 97.4374 260.787 94.5553 261.134C94.0121 261.197 93.5333 261.197 93.4964 260.595C93.4688 260.175 93.6161 259.554 93.9108 259.344C95.2828 258.377 97.0967 258.085 98.5608 257.263C100.329 256.277 100.338 254.507 99.5736 252.508C98.2477 249.057 97.2901 245.461 96.1851 241.919C96.3785 241.089 95.7063 241.426 97.8149 241.381C98.1556 241.499 99.3987 246.766 100.697 248.555V248.564Z" fill="#474244"/>
<path d="M109.84 231.495C103.975 231.742 99.4171 236.653 99.6565 242.467C99.8959 248.281 104.859 252.8 110.724 252.562C116.59 252.316 121.148 247.405 120.908 241.591C120.66 235.776 115.706 231.258 109.84 231.495ZM117.952 244.073C117.004 249.076 113.883 249.495 111.028 249.751C107.336 250.08 104.205 247.35 102.953 244.822C101.572 239.747 102.806 236.908 107.373 234.654C114.389 232.974 119.214 237.428 117.962 244.073H117.952Z" fill="#C69C80"/>
<path d="M108.45 244.357C108.109 246.356 107.004 247.122 105.08 245.908C103.533 243.928 104.021 241.445 105.779 240.66C108.459 239.464 108.643 243.243 108.45 244.357Z" fill="#1C1D21"/>
</g>
<defs>
<clipPath id="clip0_1199_40">
<path d="M0 199H242V383H9.99999C4.47715 383 0 378.523 0 373V199Z" fill="white"/>
</clipPath>
</defs>
</svg>
