<?xml version="1.0" encoding="UTF-8"?>
<svg id="Layer_1" data-name="Layer 1" xmlns="http://www.w3.org/2000/svg" viewBox="0 0 185.33 104.1">
  <defs>
    <style>
      .cls-1 {
        fill: #971a4a;
      }

      .cls-1, .cls-2 {
        stroke-width: 0px;
      }

      .cls-2 {
        fill: #15445b;
      }
    </style>
  </defs>
  <path class="cls-1" d="m184.82,87.66c-3.54-9.56-7.85-18.77-13.93-27.17-13.73-18.96-30.04-35.49-50.15-48.47-5.52-3.56-11.1-7.04-17.21-9.63-4.33-1.83-8.83-2.83-13.66-2.2-4.27.55-8.18,1.99-11.91,3.95-20.52,10.83-37.85,25.23-52.68,42.47C14.99,58.57,6.31,71.39,1.01,86.11c-.44,1.22-.95,2.4-1,3.71-.12,3.2,1.82,5.4,5.16,5.83,2.02.26,3.96-.11,5.83-.79,11.68-4.25,23.75-6.9,36.21-7.85,7.46-.57,14.95-.82,22.38.39,7.86,1.29,14.99,4.2,21.21,9.03,1.82,1.42,1.88,1.4,3.65.05,1.91-1.44,3.88-2.78,6-3.94,8.72-4.77,18.23-6.14,30.09-5.93,2.81-.05,7.57.27,12.32.82,10.59,1.23,20.88,3.62,30.87,7.19,1.44.51,2.89.96,4.43,1.06,5.39.35,8.46-3.21,6.67-8.04Zm-27.68-2.8c-12.23-3.41-24.72-4.59-37.42-3.74-6.18.41-12.03,2-17.51,4.79-2.98,1.52-5.48,3.56-7.75,5.93-1.76,1.84-1.91,1.86-3.54.11-6.71-7.2-15.56-10.02-25.21-10.78-12.77-1.01-25.36.25-37.67,3.75-.59.17-1.16.51-1.83.21-.11-.86.56-1.39,1.01-1.98,15.88-20.91,35.68-37.28,60.73-47.64,3.21-1.33,6.11-1.33,9.33-.03,16.22,6.56,30.33,16.04,42.86,27.73,6.31,5.89,12.29,12.07,17.3,19.03.65.91,1.42,1.76,1.8,2.83-.8.44-1.44,0-2.1-.19Z"/>
  <path class="cls-2" d="m160.55,95.47c-12.65-3.8-25.59-5.64-38.86-4.98-3.4.17-6.84.36-10.15,1.27-7.65,2.09-14.1,5.95-19.09,11.98-.28-.3-.51-.56-.75-.81-5.93-6.23-13.17-10.33-21.93-11.72-8.05-1.27-16.16-1.08-24.24-.21-7.44.81-14.73,2.32-21.86,4.51-2.24.69-2.67,1.31-2.83,4,13.71-3.9,27.52-5.49,41.57-4.97,10.37.38,20.1,2.91,28.52,8.97,1.32.95,2.1.66,3.25-.16,7.97-5.67,17.1-8.3,26.92-8.83,13.96-.74,27.69.71,41.16,4.32.67.18,1.33.57,2.12.12-.38-2.06-1.92-2.9-3.83-3.48Z"/>
</svg>