<svg width="21" height="20" viewBox="0 0 21 20" fill="none" xmlns="http://www.w3.org/2000/svg">
<path d="M5.79858 2.5V4.375M14.5486 2.5V4.375M2.67358 15.625V6.25C2.67358 5.75272 2.87113 5.27581 3.22276 4.92417C3.57439 4.57254 4.0513 4.375 4.54858 4.375H15.7986C16.2959 4.375 16.7728 4.57254 17.1244 4.92417C17.476 5.27581 17.6736 5.75272 17.6736 6.25V15.625M2.67358 15.625C2.67358 16.1223 2.87113 16.5992 3.22276 16.9508C3.57439 17.3025 4.0513 17.5 4.54858 17.5H15.7986C16.2959 17.5 16.7728 17.3025 17.1244 16.9508C17.476 16.5992 17.6736 16.1223 17.6736 15.625M2.67358 15.625V9.375C2.67358 8.87772 2.87113 8.40081 3.22276 8.04917C3.57439 7.69754 4.0513 7.5 4.54858 7.5H15.7986C16.2959 7.5 16.7728 7.69754 17.1244 8.04917C17.476 8.40081 17.6736 8.87772 17.6736 9.375V15.625" stroke="#446878" stroke-linecap="round" stroke-linejoin="round"/>
</svg>
