<svg width="1199" height="1010" viewBox="0 0 1199 1010" fill="none" xmlns="http://www.w3.org/2000/svg">
<g clip-path="url(#clip0_302_15)">
<path d="M984.296 52.2241C984.481 52.4056 984.683 52.5541 984.834 52.7521C987.188 55.9862 983.724 61.0519 987.054 63.1639C991.123 65.7215 996.437 64.088 1001.18 64.1045C1042.38 64.2035 1083.59 64.154 1124.79 64.1705C1127.8 64.1705 1130.77 64.2035 1133.82 64.8965C1151.22 68.8401 1154.16 76.3643 1154.65 89.8782C1155.58 115.949 1154.99 142.086 1154.89 168.19C1154.84 182.182 1143.37 193.699 1128.77 192.973C1107.54 191.917 1086.2 192.693 1064.89 192.676C1061.43 191.125 1061.85 187.891 1061.46 185.004C1059.71 171.902 1056.85 159.065 1050.26 147.415C1037.48 124.826 1016.53 114.15 991.627 109.563C986.179 108.557 980.647 107.963 975.115 107.435C969.212 104.844 966.993 100.01 966.606 94.0364C969.532 88.5747 973.046 83.4265 976.073 77.9979C979.52 71.8267 982.059 65.474 982.295 58.3623C982.362 56.1677 982.295 53.8412 984.296 52.2241Z" fill="#F4E3D7"/>
<path d="M424.765 194.887C397.456 195.019 370.165 195.135 342.857 195.267C338.014 191.01 334.382 183.931 334.802 177.694C344.202 160.665 358.058 147.663 373.209 135.469C388.914 122.846 406.52 112.005 425.639 104.828C433.643 101.824 441.967 99.2504 450.795 101.775C454.175 104.002 455.251 107.699 456.882 111.032C461.304 120.107 466.786 128.423 475.177 134.495C477.363 136.079 479.852 138.076 482.778 136.36C485.233 134.924 485.149 132.136 485.3 129.661C485.485 126.658 484.695 123.737 484.375 120.767C484.056 117.681 482.963 114.15 487.183 112.451C495.221 113.259 500.602 117.615 504.335 124.43C508.102 131.311 510.187 138.72 511.515 146.343C513.869 159.708 517.249 172.463 530.331 180.053C526.901 184.624 521.722 185.911 516.492 186.835C507.177 188.485 497.962 188.897 489.016 184.723C484.022 182.396 482.542 179.69 486.124 174.938C490.799 168.734 494.784 162.084 497.895 154.94C495.036 160.434 492.362 166.011 488.73 171.093C483.4 178.552 480.558 178.535 475.883 170.4C469.662 159.576 463.675 148.62 458.194 137.399C456.546 134.033 454.595 130.865 452.191 127.928C444.809 118.919 434.753 117.681 427.119 118.176C442.286 115.965 452.695 125.288 459.909 140.617C466.147 153.9 472.873 166.952 482.004 178.766C486.309 184.36 491.841 186.868 497.962 187.577C510.523 189.013 522.58 187.363 533.375 179.69C540.522 174.608 548.458 170.582 554.394 163.932C556.597 161.474 559.304 161.045 562.634 161.358C575.8 162.612 584.914 170.268 593.12 179.393C596.803 183.502 594.97 187.247 591.556 190.531C581.568 200.134 570.857 208.929 558.8 215.909C541.463 225.941 523.555 234.67 502.855 235.577C501.729 235.544 500.518 236.419 499.576 235.742C468.266 237.541 503.847 226.799 507.967 225.001C513.667 222.509 497.306 237.458 493.809 233.086C485.048 238.069 497.811 229.819 489.151 234.95C488.142 235.429 487.066 235.544 485.989 235.544C462.465 231.914 446.288 217.262 431.726 200.382C425.437 193.089 419.888 185.234 414.776 177.76C417.299 183.518 424.142 187.429 424.815 194.887H424.765Z" fill="#923535"/>
<path d="M195.958 194.227C193.268 192.346 190.174 192.676 187.147 192.676C168.129 192.676 149.11 192.33 130.092 192.808C119.061 193.089 106.584 184.211 105.844 171.357C104.415 146.788 104.566 122.335 105.458 97.7983C105.609 93.4257 105.273 89.1026 106.113 84.6804C108.737 70.9355 116.623 64.2528 131.185 64.1538C141.829 64.0713 152.49 64.1043 163.134 64.1703C166.212 64.1868 169.205 64.0383 172.047 62.8008C173.224 63.9063 173.509 65.3914 173.577 66.8599C173.846 73.5426 177.226 77.8822 183.599 80.1758C190.241 82.5684 195.924 80.7203 201.103 76.5787C205.728 72.8661 208.317 67.8664 210.587 62.5698C211.394 60.6887 211.092 57.0586 215.161 58.4281C217.667 61.9097 221.4 61.7612 225.217 62.2068C235.71 63.4278 246.27 61.1837 256.729 63.1143C262.042 64.9953 262.53 70.721 265.876 74.1861C267.491 81.1328 263.388 83.9214 257.418 85.3239C255.636 85.4394 253.853 85.3404 252.138 84.9279C241.965 82.4034 233.86 85.8355 226.68 92.8317C209.78 109.316 197.572 129.05 185.768 149.082C184.978 153.768 189.299 155.27 191.62 157.943C194.041 160.715 197.74 162.53 198.11 166.77C198.766 173.437 198.48 180.103 198.396 186.769C198.363 189.442 198.413 192.264 195.958 194.244V194.227Z" fill="#F4E3D7"/>
<path d="M975.098 106.313C1024.23 105.504 1060.07 137.499 1063.7 185.366C1063.88 187.809 1064.49 190.234 1064.91 192.66C1065.35 213.401 1063.61 233.795 1055.34 253.216C1049.72 266.4 1042.11 278.264 1031.95 288.577C1028.25 292.323 1024.23 294.913 1018.73 294.682C1008.9 295.54 1000.17 293.065 992.788 286.498C991.661 281.927 990.719 277.423 997.311 276.02C997.832 275.905 998.538 275.525 998.471 275.195C997.21 268.628 999.497 266.235 1006.34 268.166C1007.7 268.545 1008.04 266.664 1007.25 265.394C1006.32 263.892 1004.66 263.018 1003.73 261.483C1002.88 260.048 1002.79 258.48 1003.9 257.325C1004.89 256.286 1006.22 257.045 1007.38 257.573C1009.37 258.464 1010.56 260.922 1013.44 260.444C1014.82 255.279 1007.5 253.876 1008.26 249.075C1012.07 240.94 1016.43 233.02 1018.5 224.192C1024.65 206.586 1017.71 191.026 1010.21 175.73C1007.85 170.929 1005 166.127 1001.83 163.503C1007.45 171.605 1015.29 180.152 1015.62 192.346C990.148 192.412 964.655 192.478 939.18 192.528C932.202 188.584 927.847 182.66 925.543 175.186C929.511 167.694 932.017 159.378 937.751 152.877C939.802 150.55 940.525 148.405 939.533 145.584C939.702 144.858 940.122 144.379 940.828 144.115C944.09 142.828 946.562 149.065 950.127 145.072C951.153 143.917 953.995 143.67 951.153 141.03C947.84 137.977 950.093 135.386 953.12 133.423C961.393 128.638 965.597 120.553 970.305 112.913C971.735 110.603 972.492 107.831 975.081 106.313H975.098Z" fill="#456978"/>
<path d="M785.992 154.015C785.505 151.854 784.613 149.692 784.597 147.531C784.496 127.367 784.344 107.204 784.597 87.04C784.782 74.0706 795.796 64.2033 809.567 64.1703C843.249 64.1043 876.93 63.9723 910.594 64.3023C916.95 64.3683 919.456 62.4873 918.834 56.4646C923.962 59.2697 922.483 64.5828 923.727 68.8565C923.811 69.599 923.895 70.358 923.996 71.1005C926.653 76.6612 925.257 82.7334 926.333 88.5251C927.746 96.1153 930.15 102.831 938.138 106.115C939.55 106.692 940.744 107.682 940.122 109.547C938.457 112.071 935.666 112.748 933.043 113.606C916.58 119.001 901.026 126.344 886.212 135.122C857.609 152.052 826.215 157.349 793.458 157.25C790.667 157.25 787.136 158.009 785.959 154.015H785.992Z" fill="#F4E3D7"/>
<path d="M183.565 149.214C194.899 129.182 207.493 110.042 223.367 93.0957C233.053 82.7664 244.353 79.8953 257.754 84.5155C258.293 84.9775 258.763 85.5055 259.133 86.116C261.555 93.9043 262.412 102.171 266.364 109.514C268.886 114.216 271.694 119.365 277.496 119.711C283.297 120.058 285.433 114.381 288.442 110.471C291.469 106.527 291.301 100.834 295.808 97.6994C308.604 98.0129 318.407 104.168 324.377 114.629C333.373 130.387 337.274 148.009 340.738 165.632C340.974 166.853 340.57 168.09 339.914 169.212C329.001 178.931 315.246 179.971 301.575 180.911C296.194 181.274 295.27 177.826 296.968 173.437C302.803 158.306 306.62 142.63 309.781 126.79C306.553 142.944 302.517 158.883 296.615 174.295C294.664 179.41 296.564 184.673 295.303 189.756C294.799 191.802 295.909 194.359 293.201 195.663C274.738 195.894 256.292 196.108 237.828 196.339C233.271 189.739 233.439 181.67 236.836 175.945C241.107 168.75 241.561 161.523 241.729 154.131C241.948 144.643 243.024 135.337 244.285 128.374C243.293 133.439 241.595 140.815 241.965 148.372C242.301 155.138 240.922 161.705 240.317 168.354C240.014 171.737 237.929 172.958 234.886 173.569C218.541 176.803 191.401 163.982 183.565 149.247V149.214Z" fill="#5C6E91"/>
<path d="M336.03 166.886C332.852 151.821 329.068 136.954 323.469 122.533C317.92 108.243 307.713 99.8939 292.26 97.7159C291.537 97.3034 291.15 96.6928 291.082 95.8843C291.318 93.2607 293.235 91.9737 295.404 91.1817C305.863 87.3371 309.983 78.8888 312.808 69.17C313.951 65.2099 310.521 64.0549 316.356 62.6523C320.308 62.9329 323.284 63.0319 326.63 63.0319C366.516 63.0649 406.385 63.1639 446.271 63.0814C513.499 62.9493 464.953 83.3274 465.861 90.2082C464.247 98.5574 455.823 100.141 447.65 102.138C428.548 100.488 413.162 109.53 397.608 118.523C371.611 133.571 351.046 154.032 334.264 178.387C331.507 178.073 336.467 173.948 336.08 171.787C335.929 167.991 335.795 170.401 336.03 166.886Z" fill="#F4E3D7"/>
<path d="M785.992 154.015C817.975 156.755 848.73 152.728 877.317 137.532C894.031 128.638 910.325 118.985 928.452 112.929C932.286 111.642 936.053 110.207 939.853 108.837C941.114 109.085 942.005 109.811 942.577 110.916C944.242 118.44 942.459 126.806 948.311 133.291C953.877 137.367 957.694 144.676 952.902 147.151L943.451 158.636C940.744 162.893 932.975 168.387 929.495 171.902C927.948 173.47 927.964 172.447 927.561 174.856C926.3 182.479 924.433 168.255 917.842 163.322C913.755 157.613 911.906 150.864 908.929 144.99C912.192 152.827 915.571 160.913 920.784 168.206C922.567 170.697 925.762 173.701 922.298 177.364C900.942 183.139 879.856 190.135 857.441 191.125C832.941 192.726 808.458 193.798 783.907 191.521C779.014 191.059 776.424 189.723 776.256 184.855C774.037 174.691 771.06 164.576 774.861 154.147C778.56 154.098 782.259 154.065 785.959 154.015H785.992Z" fill="#456978"/>
<path d="M214.388 58.1479C212.319 62.8341 210.739 67.8007 208.099 72.1569C202.819 80.8196 192.645 84.8787 184.473 82.2717C174.031 78.9386 170.718 73.7574 172.047 62.8176C172.534 62.2731 172.938 61.6296 173.509 61.184C183.548 53.5773 188.576 44.106 188.879 31.1531C189.08 23.1504 197.555 21.1043 204.803 19.9493C207.292 19.5533 209.864 19.2398 212.336 19.4543C219.432 20.0978 224.09 18.5468 227.857 11.3031C234.448 -1.43532 245.664 -3.54739 257.519 5.72589C266.078 12.4251 272.384 17.4907 284.928 12.2601C296.413 7.47494 307.662 14.9827 315.751 23.8269C319.887 28.3481 324.444 30.2456 330.027 31.0211C335.256 31.7307 341.596 31.3511 342.168 38.4464C342.706 45.1621 339.242 50.4092 333.171 53.6928C331.423 54.6333 329.371 55.0459 327.471 55.7059C314.574 57.9334 304.081 54.2043 295.724 44.9971C292.377 41.3009 290.612 40.5419 287.904 44.4195C284.827 48.8417 282.338 53.9403 276.722 56.0689C275.982 56.1844 275.242 56.1184 274.503 56.0359C272.199 55.8049 270.131 52.2903 267.81 54.7818C265.54 57.2239 266.868 60.3755 267.928 63.1311C269.761 67.8667 273.695 74.2359 265.96 77.0905C261.874 74.0379 259.84 67.8832 257.368 63.7746C250.49 55.8709 253.769 47.0761 255.165 38.5124C255.653 35.4763 258.124 32.8692 257.973 29.3546C254.156 29.6351 253.248 32.4567 251.97 34.7007C250.12 37.9513 249.078 41.5485 247.85 45.0631C244.47 54.7818 240.72 57.2734 230.816 54.6498C224.309 52.9173 219.045 53.4453 214.337 58.1644L214.388 58.1479Z" fill="#050505"/>
<path d="M195.958 194.227C196.143 184.31 196.311 174.394 196.496 164.477C205.492 165.863 213.059 171.688 222.274 172.414C223.014 172.48 223.72 172.876 224.46 173.008C235.777 174.938 235.962 174.938 235.743 186.538C235.272 210.843 243.176 232.31 258.242 251.401C266.028 262.803 278.051 268.925 289.62 275.591C291.15 276.466 292.781 277.225 294.227 278.215C295.824 279.304 298.364 280.228 297.876 282.472C297.287 285.095 294.53 283.808 292.697 284.138C290.292 284.567 287.82 282.95 284.962 284.534C288.476 290.277 294.328 292.686 299.692 295.755C302.164 297.174 305.846 297.52 305.577 301.612C299.087 303.246 294.496 299.203 289.939 296.86C293.033 301.414 300.735 299.583 304.064 304.945C303.997 305.853 303.929 306.744 303.845 307.652C297.186 309.071 292.159 304.549 287.198 303.295C290.813 306.563 297.859 305.209 301.357 310.638C300.819 312.189 299.709 313.163 298.111 313.608C292.142 314.45 287.686 310.407 282.927 309.335C285.231 311.628 290.561 310.391 292.26 314.846C282.641 315.753 275.545 309.846 268.012 305.737C223.451 281.432 201.978 242.59 195.992 194.211L195.958 194.227Z" fill="#F6907A"/>
<path d="M334.685 174.74C335.66 176.308 336.652 177.875 337.627 179.459C338.081 185.251 341.226 190.218 342.857 195.646C353.35 222.641 365.322 248.893 383.735 271.796C386.711 275.492 390.226 278.759 393.303 282.373C395.237 284.666 398.533 286.663 396.246 290.491C390.697 289.815 385.299 288.643 380.574 285.491C376.202 282.571 371.779 286.927 368.198 285.409C374.504 285.227 382.037 283.445 387.367 290.277C389.234 296.431 395.203 299.269 399.004 303.856C401.795 307.223 402.602 310.011 399.474 313.344C392.9 310.49 389.452 304.417 385.417 300.358C388.124 305.176 394.144 308.526 397.456 314.136C397.137 316.446 395.136 317.057 393.438 317.981C386.56 314.318 382.457 307.965 378.085 302.817C380.843 308.262 387.653 311.529 389.873 318.228C389.251 320.489 387.552 321.149 385.4 321.116C379.229 317.502 375.143 311.876 370.972 307.47C372.469 310.176 375.748 312.47 378.321 315.39C379.666 316.925 382.373 317.997 380.809 320.852C375.664 322.716 372.603 319.367 369.745 316.265C353.636 298.857 341.276 278.908 329.539 258.546C316.793 236.435 307.007 213.021 297.926 189.261C297.657 187.495 298.33 182.132 297.237 183.188C293.285 177.545 293.941 181.225 299.574 180.812C310.622 179.987 321.619 178.981 331.86 174.311C332.835 173.866 333.827 174.13 334.685 174.757V174.74Z" fill="#F69079"/>
<path d="M959.846 282.356C965.883 285.31 971.937 288.247 977.973 291.201C980.866 291.844 982.917 293.725 984.8 295.821C985.776 300.738 981.891 303.378 979.419 306.645C975.905 311.331 970.743 314.879 969.297 320.935C970.036 322.304 971.533 322.915 972.559 323.987C972.946 324.466 973.282 324.994 973.568 325.538C974.577 327.7 976.544 328.442 978.73 328.855C979.369 328.987 979.974 329.168 980.58 329.35C983.791 330.406 986.885 329.779 989.946 328.69C992.922 327.832 994.923 325.357 997.698 324.169C1002.54 322.255 1004.51 317.684 1007.48 314.054C1008.88 312.354 1009.3 308.873 1012.98 310.737C1018.11 313.377 1023.21 316.083 1028.37 318.641C1032.69 320.786 1034.76 324.037 1034.2 328.805C1029.16 329.812 1026.2 325.505 1022.08 324.218C1019.24 323.327 1017.12 320.869 1013.59 320.786C1012.93 320.638 1013.5 322.453 1013.54 321.463C1013.54 321.034 1013.76 320.836 1014.11 320.984C1020.89 323.905 1028.23 325.885 1033.19 331.874C1025.26 347.187 1013.62 359.942 1003.2 373.538C1000.84 376.607 997.631 374.924 994.856 373.753C977.402 366.393 961.108 356.823 944.259 348.309C938.642 345.471 933.228 342.27 927.729 339.217C925.812 338.161 923.29 337.683 923.29 334.778C929.965 320.951 940.475 309.714 949.488 297.471C951.775 294.369 953.356 290.326 957.845 289.287C963.041 290.706 966.875 294.567 971.785 296.514C966.892 294.22 962.638 290.854 957.694 288.61C956.349 287.637 955.643 286.333 955.609 284.683C956.13 282.389 957.089 280.838 959.813 282.356H959.846Z" fill="#F6BB65"/>
<path d="M530.197 180.515C520.999 178.436 516.173 172.199 513.869 163.751C511.196 153.933 508.69 144.066 506.168 134.215C503.511 123.836 497.626 116.411 486.662 113.573C486.427 111.89 487.25 110.652 488.444 109.58C490.58 107.93 492.463 109.761 494.784 109.695C501.981 109.448 518.695 110.256 521.587 94.7787C522.092 92.1056 521.873 89.3666 522.26 86.677C522.344 85.918 522.529 85.1919 522.765 84.4659C524.48 79.2848 526.397 74.1861 527.86 68.9225C528.414 66.9259 528.263 64.2528 531.391 63.9558C531.307 67.7509 531.979 71.1665 535.006 74.0376C538.47 77.3377 539.26 81.5948 539.227 86.314C539.075 112.632 539.126 138.934 539.227 165.252C539.227 168.074 538.067 171.308 541.127 173.519C539.176 178.37 535.41 180.499 530.231 180.532L530.197 180.515Z" fill="#F3E3D7"/>
<path d="M465.155 90.5052C461.843 81.4135 461.826 71.7442 460.077 62.3884C461.069 54.0062 459.556 45.4259 466.921 38.1657C474.37 30.823 491.438 25.6253 501.325 29.701C511.448 33.8756 520.848 40.5088 532.77 38.7927C536.234 38.2977 539.731 37.9182 543.767 37.4232C544.002 43.0333 541.211 46.7625 537.226 49.9636C539.277 52.2406 541.228 48.561 543.632 50.0296C541.026 55.3097 535.965 57.5868 531.24 60.2434C527.675 64.3355 522.882 62.9824 518.477 62.8834C514.374 62.7844 510.658 61.0354 506.908 59.5008C495.995 55.0292 492.934 56.3987 488.545 67.0251C486.965 70.8532 486.292 75.2588 482.542 77.9814C480.154 78.8559 478.792 77.1894 477.262 75.9353C475.682 74.6483 473.933 73.0972 471.881 74.5493C469.863 75.9848 470.57 78.2784 471.427 80.0274C473.781 84.8786 473.294 88.7067 467.93 91.0993C466.938 91.5448 465.962 91.2973 465.172 90.5052H465.155Z" fill="#0A0A09"/>
<path d="M984.296 52.2241C985.591 68.7246 977.536 81.7105 967.918 94.1188C965.093 92.5513 965.765 89.5977 965.076 87.1886C965.009 86.4626 965.11 85.7366 965.295 85.0436C966.724 82.387 969.784 81.067 971.096 78.2784C971.954 76.4798 973.08 74.6483 971.97 72.6682C970.608 70.2426 968.473 71.5132 966.589 71.9257C965.278 72.2062 964.101 72.1402 963.058 71.2327C960.62 68.6751 960.906 65.276 960.216 62.1904C958.518 54.5672 957.694 53.9567 950.077 56.0852C942.745 58.1313 935.347 59.2203 927.712 58.4613C924.635 58.1478 921.861 57.0917 919.305 55.4252C912.444 51.4981 910.325 45.4919 912.124 38.2812C913.941 31.0375 922.668 24.4208 930.638 23.7113C942.678 22.6552 952.767 27.6384 962.436 33.8096C965.379 35.6906 968.237 37.2417 971.987 37.8027C980.025 38.9907 982.245 45.7229 984.313 52.2406L984.296 52.2241Z" fill="#070707"/>
<path d="M613.484 177.925C619.223 180.796 620.154 184.861 616.275 190.119C599.493 212.823 579.483 231.238 550.073 236.403C539.63 238.234 527.591 238.68 517.165 235.396C517.77 231.485 522.714 231.865 525.405 230.941C549.905 222.509 570.907 208.649 589.892 191.521C594.179 187.644 597.576 184.113 592.061 178.766C591.153 177.892 591.254 176.473 591.825 175.235C593.154 173.486 595.02 172.843 597.122 172.678C602.806 173.701 608.977 173.338 613.484 177.908V177.925Z" fill="#923535"/>
<path d="M597.307 174.278C595.592 175.054 593.877 175.829 592.162 176.588C591.186 177.017 590.127 177.265 589.32 176.456C581.501 168.635 572.572 162.909 561.137 161.705C560.179 161.606 561.507 161.705 560.683 161.127C560.431 160.946 560.767 160.451 561.339 160.154C563.575 154.23 558.598 150.303 557.034 145.452C556.429 143.571 555.05 141.624 556.496 139.908C558.228 137.845 560.111 139.99 561.911 140.436C569.494 147.465 578.39 146.772 586.697 149.791C586.31 151.606 584.561 151.639 583.283 152.25C584.477 152.035 585.62 151.408 586.797 151.359C605.345 150.633 623.808 148.356 642.406 148.818C644.693 148.884 646.627 149.956 648.325 151.755C647.871 156.441 645.634 157.547 645.634 158.504C638.69 162.233 640.22 161.804 632.821 164.114C621.101 167.793 609.986 173.767 597.307 174.262V174.278Z" fill="#F5907A"/>
<path d="M1013 310.737C1009 312.75 1008.24 317.255 1005.42 320.208C1003.23 322.502 1001.75 325.588 997.933 325.687C997.731 322.518 1000.09 320.654 1002.37 317.172C998.253 322.782 995.159 327.518 989.879 330.158C986.499 332.056 983.152 332.897 979.89 329.927C985.876 325.67 990.652 320.208 995.394 314.714C990.618 320.159 985.742 325.522 979.974 329.993C976.409 330.158 972.424 331.049 972.172 325.588C977.62 320.868 983.304 316.347 986.885 311.1C982.547 315.357 979.083 321.941 971.684 324.201C970.289 323.591 968.893 322.997 967.48 322.386C969.179 314.928 976.191 311.199 980.025 305.226C981.908 302.289 985.725 300.259 984.498 295.887C981.387 293.626 980.748 293.098 977.956 291.184C980.68 288.379 983.405 285.557 986.129 282.752C989.34 281.449 991.358 283.28 993.309 285.343C1000.76 291.134 1009.96 292.306 1018.72 294.649C1017.98 300.408 1015.37 305.292 1012.98 310.721L1013 310.737Z" fill="#F3907B"/>
<path d="M774.911 154.131C775.079 164.378 777.215 174.542 776.307 184.838C764.116 188.518 751.588 188.287 739.077 187.561C735.866 187.38 731.813 187.693 729.812 183.898C734.52 180.169 740.742 183.931 745.198 180.713C739.716 182.792 733.68 182.281 727.66 181.984C726.214 180.961 726.449 179.542 726.718 178.123C727.744 176.275 729.594 176.159 731.342 176.291C737.615 176.77 743.685 175.466 747.956 174.74C742.171 177.38 733.831 174.839 726.18 177.496C724.414 174.757 724.684 172.001 726.163 169.246C732.671 172.166 738.926 167.414 744.29 168.635C741.23 168.552 737.177 169.064 733.108 169.955C730.972 170.417 728.551 170.83 727.038 168.404C728.786 164.427 732.654 164.757 736.034 164.163C741.97 163.124 748.124 162.975 753.539 159.906C763.594 159.131 764.149 167.364 767.428 173.123C765.124 167.315 762.821 161.886 755.96 158.982C748.326 155.748 747.367 153.917 746.779 148.57C756.818 147.25 765.511 152.415 774.928 154.131H774.911Z" fill="#F3907A"/>
<path d="M561.339 160.17C573.833 161.639 583.098 168.932 592.162 176.588C598.787 185.861 599.005 186.092 590.346 193.831C571.546 210.645 550.678 224.275 526.397 232.426C523.79 233.3 522.311 233.795 518.51 235.033C515.13 235.115 512.255 236.122 508.858 236.188C506.571 236.419 503.898 238.927 502.737 234.967C528.112 232.723 549.417 220.81 569.663 206.784C577.515 201.339 584.796 195.102 591.64 188.403C594.415 185.68 594.449 183.551 591.741 180.862C583.67 172.826 575.615 165.252 563.256 163.586C559.002 163.008 556.799 164.048 554.024 166.539C543.145 176.324 531.811 185.399 516.879 188.782C497.626 193.138 485.132 188.485 474.958 172.018C469.191 162.678 464.18 152.861 459.135 143.109C448.188 121.955 443.346 118.985 419.686 119.777C429.456 113.309 447.852 118.143 455.285 130.172C462.902 142.482 469.309 155.501 476.253 168.206C477.094 169.741 477.918 171.292 478.843 172.777C481.197 176.555 483.131 176.77 486.04 172.826C491.37 165.615 494.801 157.283 500.383 150.187C498.971 158.834 494.078 165.879 489.453 172.975C483.82 181.604 483.568 182.149 493.708 185.201C506.403 189.013 518.678 187 530.18 180.482C534.031 178.469 538.218 176.968 541.077 173.47C546.037 170.945 549.72 166.902 553.469 163.041C555.756 160.682 558.06 159.461 561.322 160.137L561.339 160.17Z" fill="#112C22"/>
<path d="M650.393 126.905C657.338 133.753 646.811 131.938 645.634 133.654C640.842 135.485 636.42 135.947 631.51 136.079C611.667 136.64 591.876 138.852 572 138.093C570.52 138.043 568.94 138.241 567.897 136.805C567.779 136.327 567.628 135.848 567.544 135.353C565.207 120.024 566.518 118.556 582.072 117.698C603.092 116.543 624.111 115.091 645.147 114.051C647.148 113.952 653.302 110.768 650.427 117.962C644.76 121.312 638.404 121.807 632.081 121.592C614.56 120.998 597.307 124.183 579.87 124.81C578.154 124.876 576.389 125.107 574.976 127.037C577.364 129.793 580.542 129.182 583.317 129.116C603.024 128.687 622.648 126.427 642.355 125.882C645.13 125.8 647.921 125.123 650.41 126.922L650.393 126.905Z" fill="#F3A731"/>
<path d="M650.393 126.905C626.448 129.347 602.402 130.486 578.373 131.641C575.464 131.789 571.378 133.308 571.21 127.813C571.058 122.516 574.775 122.698 578.39 122.467C602.402 120.965 626.398 119.464 650.41 117.946C648.443 120.932 648.527 123.902 650.393 126.905Z" fill="#ECDBCA"/>
<path d="M857.491 191.125C877.064 186.488 896.654 181.852 916.227 177.182C918.43 176.654 920.583 175.928 922.752 175.285C928.603 179.954 933.16 185.531 935.548 192.66C912.41 194.838 889.239 191.191 866.067 192.973C863.276 193.188 860.35 191.785 857.491 191.125Z" fill="#F2E6DC"/>
<path d="M586.478 149.676C567.292 150.303 571.344 151.211 565.122 143.109C566.215 142.135 564.13 138.489 565.223 137.515C573.967 139.083 582.812 138.439 591.523 137.895C605.698 137.004 619.856 136.591 634.032 136.608C636.84 136.608 639.648 136.657 642.204 137.961C644.676 139.231 645.92 141.327 645.584 144.082C645.248 146.854 643.633 149.082 640.792 149.016C623.573 148.653 606.488 151.623 589.253 150.815C588.244 150.765 587.319 150.221 586.478 149.66V149.676Z" fill="#ECD6C6"/>
<path d="M586.478 149.676C602.705 149.049 618.932 148.587 635.142 147.63C638.337 147.448 643.987 149.725 644.34 144.214C644.726 138.34 639.446 138.423 634.99 138.406C618.259 138.324 601.545 138.835 584.864 140.254C579.567 140.7 574.22 140.568 568.889 140.634C566.804 140.667 564.618 140.617 565.223 137.515C566.115 137.284 567.006 137.053 567.897 136.822C570.402 136.542 572.908 136.014 575.413 136.03C596.18 136.245 616.863 134.908 637.529 133.093C640.472 132.829 643.633 132.169 646.391 134.116C650.141 139.314 649.199 145.138 648.661 150.897C624.262 151.755 597.912 152.514 573.513 153.356C573.261 152.283 569.982 150.088 571.226 149.742C574.926 148.702 581.988 149.841 586.478 149.676Z" fill="#CE492A"/>
<path d="M258.242 251.401C248.456 243.844 244.521 232.756 240.351 221.981C235.356 209.061 233.473 195.514 234.297 181.72C234.583 176.885 233.641 174.674 227.941 174.575C216.523 174.394 206.585 168.998 196.479 164.477C192.41 160.946 188.257 157.464 184.288 153.817C183.01 152.646 180.774 151.194 183.565 149.214C196.429 164.048 212.941 171.258 232.649 172.116C237.408 172.331 239.173 171.159 239.409 166.11C239.997 153.751 241.225 141.393 242.553 129.083C242.957 125.305 243.495 121.229 247.497 117.797C247.917 123.341 245.244 127.648 244.874 132.284C243.932 144.132 243.108 156.012 241.998 167.843C241.309 175.037 234.633 180.911 237.139 188.963C237.862 191.274 237.626 193.881 237.828 196.339C238.265 214.11 245.025 229.753 254.576 244.504C255.972 246.666 258.73 248.25 258.259 251.401H258.242Z" fill="#5C3D28"/>
<path d="M597.307 174.278C612.575 169.163 627.793 163.866 643.163 159.065C646.896 157.893 651.15 158.355 655.169 158.058C656.665 158.24 658.532 158.256 658.481 160.22C658.431 162.183 656.48 162.975 654.9 163.536C646.66 166.473 638.337 169.196 630.08 172.133C624.666 174.064 619.335 176.209 613.954 178.271C608.405 176.935 602.856 175.615 597.307 174.278Z" fill="#E8695E"/>
<path d="M956.786 285.36C957.341 286.333 957.896 287.307 958.451 288.297C958.837 288.957 958.703 289.419 957.946 289.666C947.42 302.107 938.003 315.357 928.519 328.558C926.939 330.752 925.072 332.732 923.323 334.811C923.004 331.181 920.33 328.673 918.783 325.621C927.056 314.829 935.868 304.451 944.443 293.89C947.537 290.079 949.639 283.94 956.786 285.393V285.36Z" fill="#EBD8C6"/>
<path d="M993.326 285.36C990.938 284.502 988.533 283.627 986.146 282.769C985.288 280.904 986.062 279.403 987.272 278.033C995.226 269.041 1001.41 258.843 1008.26 249.075C1010.53 251.963 1013.66 254.009 1015.54 257.424C1016.82 259.718 1017.78 260.955 1015.54 262.935C1013.05 265.13 1011.55 263.43 1009.77 261.929C1008.17 260.592 1007.27 258.233 1004.66 258.15C1002.68 263.397 1014.8 262.869 1009.28 269.354C1006.02 273.182 1003.15 270.938 1000.76 267.869C998.858 270.592 999.766 272.06 1001.25 273.644C1003.23 275.756 1002.25 278.066 999.766 277.637C992.317 276.35 994.52 282.076 993.343 285.36H993.326Z" fill="#456978"/>
<path d="M334.685 174.74C325.47 179.278 315.515 181.06 305.376 181.901C294.765 182.776 294.748 182.628 296.262 193.204C296.043 194.326 296.178 195.745 295.522 196.521C294.782 197.395 293.756 196.554 293.184 195.663C291.032 180.961 298.094 168.091 301.676 154.511C304.266 144.676 306.435 134.727 308.755 124.81C309.142 123.193 308.638 121.196 311.664 120.305C312.236 126.938 309.848 132.961 308.52 138.984C306.031 150.386 303.24 161.804 298.565 172.562C295.875 178.783 298.649 179.014 303.66 178.766C316.541 178.139 328.816 175.796 339.376 167.926C341.091 172.364 335.593 172.018 334.685 174.707V174.74Z" fill="#614122"/>
<path d="M425.084 195.762C420.712 188.238 413.969 182.05 412.355 172.909C419.619 182.545 426.48 192.528 434.265 201.752C448.02 218.005 485.737 244.257 521.587 231.683C521.571 234.588 523.134 232.739 521.302 234.142C484.207 246.996 448.626 221.255 435.611 207.395C432.029 203.583 428.582 199.639 425.084 195.762Z" fill="#112C22"/>
<path d="M1015.64 192.346C1011.87 179.674 1005.16 168.553 995.411 158.966C998.505 157.365 999.396 158.867 1000.27 159.84C1014.11 175.252 1022.11 193.006 1021.95 213.764C1021.91 217.345 1022.97 221.8 1018.5 224.192C1019.32 213.417 1020.25 202.643 1015.64 192.346Z" fill="#2A324F"/>
<path d="M956.786 285.36C950.968 286.432 948.378 291.382 945.167 295.243C937.583 304.352 930.554 313.905 923.256 323.245C922.163 324.647 920.767 325.703 918.8 325.588C919.019 320.06 923.458 316.876 926.502 313.146C934.22 303.675 941.282 293.626 950.228 285.178C952.784 282.769 955.441 279.304 959.846 282.34C957.963 282.488 956.82 283.363 956.786 285.343V285.36Z" fill="#EFC589"/>
<path d="M935.531 192.66C931.277 186.868 927.006 181.076 922.752 175.285C916.463 163.734 908.845 152.762 907.702 139.033C911.452 146.986 915.202 154.923 918.951 162.876C921.995 166.49 925.291 169.972 926.081 174.856C929.579 181.373 934.876 186.604 939.197 192.528C936.254 192.808 937.364 192.808 935.548 192.66H935.531Z" fill="#2E354D"/>
<path d="M387.367 290.277C379.699 283.676 368.87 289.501 359.05 283.792C373.461 282.224 385.198 284.617 396.229 290.508C393.236 291.877 390.293 291.415 387.35 290.277H387.367Z" fill="#663C38"/>
<path d="M746.762 148.57C747.452 153.058 750.798 155.649 754.548 156.837C762.989 159.527 766.117 166.226 768.757 173.684C762.838 170.004 762.165 160.517 753.522 159.923C751.151 157.893 748.578 156.045 746.459 153.784C745.03 152.266 743.197 150.105 746.762 148.587V148.57Z" fill="#5B3935"/>
<path d="M727.643 182C736.269 180.911 744.879 179.806 753.505 178.717C753.623 179.492 753.724 180.268 753.841 181.027C746.14 183.65 737.816 182.941 729.812 183.898C728.669 183.716 727.962 183.073 727.66 181.984L727.643 182Z" fill="#5B3935"/>
<path d="M389.89 318.212C384.441 311.529 377.295 306.15 374.672 297.157C380.927 304.104 387.182 311.034 393.438 317.964C392.261 318.047 391.067 318.129 389.873 318.195L389.89 318.212Z" fill="#59332B"/>
<path d="M301.34 310.638C294.479 306.926 286.122 306.15 280.371 300.062C288.426 301.959 295.673 306.216 303.829 307.668C304.871 310.16 303.711 310.902 301.323 310.655L301.34 310.638Z" fill="#613934"/>
<path d="M304.047 304.962C297.489 301.612 289.704 300.342 284.777 294.138C291.923 296.233 298.145 300.474 305.561 301.629C306.065 303.18 305.426 304.22 304.047 304.962Z" fill="#603B33"/>
<path d="M397.473 314.12C391.1 308.675 385.013 302.982 381.734 294.732C387.653 300.936 393.555 307.14 399.474 313.328C398.802 313.592 398.129 313.856 397.473 314.12Z" fill="#57322E"/>
<path d="M380.826 320.836C376.874 314.384 369.728 310.242 367.895 302.091C373.73 308.427 379.582 314.78 385.417 321.116C383.718 323.707 382.373 320.638 380.826 320.836Z" fill="#4F2E29"/>
<path d="M292.243 314.862C287.501 311.942 281.481 311.199 278.034 305.672C284.726 308.328 291.419 310.968 298.111 313.625C296.749 316.677 294.277 314.78 292.26 314.879L292.243 314.862Z" fill="#6D403C"/>
<path d="M1033.23 331.891C1026.32 328.129 1019.39 324.383 1012.48 320.621C1020.9 320.671 1026.79 326.611 1034.24 328.822C1034.59 330.059 1034.93 331.297 1033.23 331.891Z" fill="#513D25"/>
<path d="M941.501 110.256C941.955 107.171 944.578 106.659 946.932 105.983C957.206 103.029 963.142 96.0494 966.169 86.2976C966.758 88.8882 967.329 91.4953 967.918 94.0858C969.145 98.8215 970.911 103.244 975.115 106.28C969.868 117.352 965.261 128.885 953.406 135.172C951.523 134.793 949.354 136.212 947.689 134.347C939.348 127.862 941.82 118.705 941.501 110.24V110.256Z" fill="#EB7E72"/>
<path d="M481.264 77.6183C481.601 79.0538 482.677 80.8854 482.155 81.8754C476.724 92.0067 483.282 99.1349 488.226 106.742C488.831 107.682 489.588 107.798 489.756 109.019C489.033 110.091 487.368 112.5 486.662 113.573C484.358 119.233 487.721 124.81 486.914 130.502C486.46 133.703 487.049 137.433 483.854 139.281C480.171 141.409 476.976 138.67 474.219 136.707C462.465 128.275 456.579 115.833 451.013 103.227C455.755 99.0194 461.792 96.1978 465.138 90.5217C470.082 88.6901 473.596 86.5781 469.393 80.6049C467.593 78.0473 466.904 74.1367 470.317 71.9751C473.395 70.0116 476.018 72.1896 478.204 74.4172C479.246 75.4732 480.239 76.5788 481.264 77.6513V77.6183Z" fill="#EA695E"/>
<path d="M277.664 85.9015C280.506 91.1981 281.884 96.0493 289.754 94.5807C292.209 93.6237 293.605 94.7292 293.655 97.3528C293.302 105.24 288.896 111.312 283.919 116.889C279.093 122.285 274.94 122.038 270.097 116.295C264.144 109.233 262.059 100.504 260.294 91.7922C259.789 89.3501 259.739 86.8915 257.855 84.9775L257.771 84.5154C261.672 82.6839 271.661 74.6977 266.734 65.4904C265.876 63.8898 265.002 61.9098 264.766 60.0122C264.413 57.1411 263.707 53.841 266.7 51.861C270.315 49.4684 272.047 52.752 274.133 54.6826C279.614 59.7317 270.837 73.1301 277.681 85.9015H277.664Z" fill="#EC8265"/>
<path d="M214.388 58.1477C215.918 51.5475 220.239 50.0459 226.377 51.8445C227.335 52.125 228.344 52.323 229.32 52.554C242.335 55.4746 242.705 55.1776 246.522 42.3897C248.153 36.9116 250.171 31.5159 254.694 27.5723C256.426 26.0707 258.662 24.8662 260.899 26.3842C263.539 28.1828 261.101 29.8328 260.243 31.3674C254.442 41.7627 254.055 52.587 257.418 63.7414C244.571 65.4244 231.691 64.0549 218.81 64.1704C214.035 64.2199 214.539 61.0683 214.388 58.1312V58.1477Z" fill="#FAF8F8"/>
<path d="M996.201 142.597C994.503 134.198 994.183 126.097 999.547 118.771C998.438 126.707 997.311 134.66 996.201 142.597Z" fill="#202B52"/>
<path d="M257.839 84.9775C262.177 86.0831 261.134 89.8947 261.74 92.7328C263.455 100.752 265.674 108.557 270.753 115.206C274.973 120.718 278.135 120.817 283.045 115.899C288.274 110.652 290.662 103.838 293.672 97.3529C294.109 97.3859 294.53 97.3199 294.933 97.1549C295.169 97.6994 295.404 98.2439 295.656 98.7884C293.252 105.092 290.797 111.362 286.29 116.592C279.783 124.133 273.443 124.1 267.793 115.899C261.42 106.643 258.679 96.0659 257.855 84.994L257.839 84.9775Z" fill="#58301F"/>
<path d="M940.677 337.204C938.272 336.643 938.205 334.894 938.726 333.623C942.627 323.839 948.63 315.456 956.887 308.724C958.114 307.718 959.897 307.338 960.805 309.005C961.915 311.051 961.746 313.361 960.334 315.324C955.239 322.353 949.976 329.251 943.435 335.092C942.527 335.9 941.501 336.593 940.694 337.22L940.677 337.204Z" fill="#F2C993"/>
<path d="M984.514 295.903C989.593 297.421 985.792 299.665 984.699 301.068C979.1 308.262 973.248 315.291 967.497 322.387C964.773 318.922 968.153 317.189 969.784 315.11C974.762 308.757 981.101 303.411 984.514 295.903Z" fill="#5C3D2D"/>
<path d="M971.684 324.218C979.033 318.789 984.851 311.876 991.106 305.325C986.6 313.724 981.336 321.396 972.155 325.604C972.021 325.142 971.852 324.68 971.667 324.218H971.684Z" fill="#542D27"/>
<path d="M957.946 289.65C958.081 289.188 958.249 288.726 958.451 288.28C965.311 290.541 971.079 294.567 976.611 299.005C969.515 297.487 963.613 293.775 957.946 289.65Z" fill="#59462B"/>
<path d="M989.879 330.158C994.452 324.73 999.026 319.317 1004.61 312.701C1004.34 319.235 999.733 321.759 997.916 325.687C995.075 326.891 993.998 331.181 989.862 330.158H989.879Z" fill="#56332A"/>
<path d="M979.974 330.01C985.658 323.641 991.341 317.272 997.025 310.902L998.69 312.42C992.855 318.641 989.441 327.089 979.89 329.927L979.974 329.993V330.01Z" fill="#52302A"/>
<path d="M726.163 177.512C726.802 174.262 729.56 175.235 731.611 174.988C737.833 174.245 744.072 173.618 750.293 173.024C751.554 172.909 753.505 171.506 753.824 173.915C754.094 175.912 752.143 176.027 750.68 176.159C742.693 176.852 734.689 177.479 726.685 178.139C726.5 177.941 726.331 177.727 726.146 177.512H726.163Z" fill="#5B3935"/>
<path d="M727.021 168.42C735.311 169.361 743.281 166.028 751.992 166.209C746.863 170.978 730.787 172.661 726.146 169.262C726.415 168.965 726.701 168.684 727.021 168.42Z" fill="#5B3935"/>
<path d="M275.293 56.2832C280.876 55.2932 284.525 48.7755 287.787 41.6308C289.569 37.7201 292.293 36.4166 295.488 41.0367C302.046 52.5541 305.544 55.0787 323.2 56.2172C320.324 58.6593 319.046 66.167 317.567 69.1371C310.117 84.169 307.259 90.0597 296.396 94.5478C286.811 95.4059 280.791 98.7555 274.065 78.8229C272.821 69.2031 270.921 71.3811 275.276 56.2832H275.293Z" fill="#F4917D"/>
<path d="M296.934 77.5689C301.071 84.9281 303.375 81.7105 304.4 76.1004C305.056 72.5198 304.585 70.7047 308.806 67.9326C305.88 72.7673 305.796 76.5789 304.367 80.9845C303.879 82.5026 302.181 83.4266 300.146 82.8821C297.136 82.0735 296.06 78.1794 296.934 77.5689Z" fill="#44251E"/>
<path d="M286.357 77.2222C287.349 81.6938 288.863 84.1689 294.799 87.502C287.669 86.3139 285.113 84.0534 286.357 77.2222Z" fill="#44251E"/>
<path d="M290.427 58.6592C293.47 58.1972 296.615 56.7947 300.096 59.5007C303.324 59.0222 295.135 54.1051 290.427 58.6592Z" fill="#44251E"/>
<path d="M295.152 68.378C293.908 67.949 293.134 67.0415 293.386 65.7214C293.689 64.0714 294.177 62.0913 296.278 62.1408C298.364 62.1903 297.926 64.1209 297.792 65.4574C297.657 66.9259 297.153 68.2955 295.152 68.378Z" fill="#44251E"/>
<path d="M309.327 73.7407C308.251 72.9982 307.746 71.9256 308.352 70.7046C309.109 69.2031 310.117 67.421 312.119 68.0315C314.103 68.6421 313.144 70.3746 312.657 71.6286C312.118 72.9982 311.244 74.1862 309.31 73.7407H309.327Z" fill="#44251E"/>
<path d="M966.236 85.4065C966.421 85.7365 966.388 86.0335 966.152 86.314C966.674 96.5443 959.611 101.709 951.893 106.049C948.715 107.847 945.537 108.474 941.972 109.646C941.417 109.167 940.408 109.299 939.853 108.821C928.553 104.349 922.886 95.2573 923.761 82.0899C923.996 78.5093 923.862 75.2917 922.113 72.1731C922.18 71.9421 922.197 71.6451 922.348 71.4801C922.97 70.721 923.878 70.226 924.484 69.434C923.727 69.0545 922.92 70.9355 922.197 69.368C921.087 65.0614 919.977 60.7547 918.867 56.4481C918.867 56.0521 919.019 55.7056 919.271 55.3921C931.193 56.8111 943.014 57.4051 954.381 52.3065C959.09 50.1944 960.704 53.1645 961.427 57.1906C962.285 62.0583 962.167 67.1074 964.42 71.6946C966.488 76.0672 965.311 80.8688 966.236 85.39V85.4065Z" fill="#F59079"/>
<path d="M922.197 69.3681C924.131 67.8996 925.19 64.6655 929.36 66.3485C927.023 68.8566 925.392 71.3812 922.13 72.1732C922.146 71.2492 922.18 70.3087 922.197 69.3681Z" fill="#654037"/>
<path d="M966.236 85.4064C961.41 81.3803 963.663 76.4467 964.42 71.711C967.43 71.051 969.851 65.8204 973.416 69.9785C976.578 73.6911 974.291 77.5027 971.886 80.6708C970.44 82.5683 968.153 83.8389 966.253 85.4064H966.236Z" fill="#E9695D"/>
<path d="M939.079 91.4953C926.955 87.6012 936.893 77.4699 932.168 71.3152C936.086 74.1203 936.406 74.1533 935.666 80.8195C935.195 85.0766 936.288 88.3602 939.063 91.4788L939.079 91.4953Z" fill="#663A31"/>
<path d="M952.414 89.2676C950.379 95.0923 946.058 97.7653 939.853 97.5508C944.04 94.7952 948.227 92.0232 952.414 89.2676Z" fill="#56362C"/>
<path d="M945.805 60.8042C949.942 62.2727 952.33 64.0383 954.499 68.9554C950.211 66.4144 947.235 65.3253 945.805 60.8042Z" fill="#613931"/>
<path d="M950.43 76.2818C950.093 77.8658 949.354 78.9549 948.025 78.8889C946.243 78.7899 945.688 77.3378 945.772 75.7868C945.839 74.5327 946.411 73.2622 947.907 73.4932C949.505 73.7242 950.245 75.0113 950.43 76.2983V76.2818Z" fill="#59352E"/>
<path d="M931.159 79.0045C930.823 80.5885 930.083 81.6775 928.755 81.6115C926.972 81.5125 926.417 80.0605 926.502 78.5094C926.569 77.2554 927.141 75.9849 928.637 76.2159C930.235 76.4469 930.974 77.7339 931.159 79.021V79.0045Z" fill="#59352E"/>
<path d="M481.264 77.6184C484.442 73.6418 485.468 68.7576 487.15 64.154C490.681 54.5507 496.348 52.0591 505.697 56.8278C513.92 61.0189 522.277 62.3389 531.223 60.2434C531.273 61.4809 530.836 62.6029 530.886 63.824C528.499 70.8697 526.565 78.0309 524.177 85.0766C523.79 84.8126 523.219 84.6806 523.05 84.9776C522.697 85.6046 523.572 86.5121 523.874 86.9082C522.916 93.8384 521.15 96.528 518.947 101.561C513.079 109.563 507.21 109.844 494.313 111.543C492.615 111.543 491.337 110.405 489.756 109.002C481.365 99.399 474.824 90.5053 481.264 77.6019V77.6184Z" fill="#F59079"/>
<path d="M508.354 104.63C500.871 105.389 498.819 104.085 495.574 96.3298C500.299 99.5969 503.561 103.178 508.354 104.63Z" fill="#44251E"/>
<path d="M515.971 80.5059C516.532 90.3512 513.976 95.9008 508.303 97.1549C517.165 93.1122 512.659 86.2315 515.971 80.5059Z" fill="#44251E"/>
<path d="M503.461 86.0171C502.082 85.6706 501.392 84.7301 501.224 83.41C501.022 81.7765 501.493 80.2089 503.259 79.9944C504.553 79.8459 505.428 81.0175 505.546 82.42C505.697 84.0865 504.991 85.2911 503.461 86.0171Z" fill="#44251E"/>
<path d="M521.571 88.8221C520.259 88.2775 519.721 87.2545 519.755 85.918C519.805 84.2679 520.528 82.7994 522.294 82.8489C523.605 82.8819 524.278 84.1854 524.177 85.588C524.059 87.271 523.185 88.3435 521.554 88.8221H521.571Z" fill="#44251E"/>
<path d="M499.021 75.0938C502.065 74.6318 505.209 73.2292 508.69 75.9353C511.919 75.4568 503.73 70.5396 499.021 75.0938Z" fill="#44251E"/>
<path d="M526.666 78.9879C524.53 78.3113 522.462 76.6778 519.637 79.1034C517.384 78.3938 523.841 74.1202 526.666 78.9879Z" fill="#44251E"/>
<path d="M318.592 65.2594C316.659 64.1868 314.944 62.1903 311.715 64.0383C309.663 62.9163 316.827 59.9462 318.592 65.2594Z" fill="#44251E"/>
<path d="M96.8987 419.855C93.6701 419.888 90.4416 419.937 87.213 419.97C89.2477 415.152 88.5919 410.384 87.4148 405.433C83.1605 387.497 79.2762 369.479 75.106 351.526C73.0545 342.699 71.7261 342.204 63.2007 345.817C61.1492 345.883 60.2244 344.134 58.8119 343.177C55.8524 341.147 52.9601 342.237 50.2192 343.59C47.142 345.124 47.1084 347.929 47.8819 350.718C53.3805 370.601 57.0967 390.913 62.1245 410.895C64.1928 419.079 67.5727 419.574 77.7628 413.832C81.9498 414.113 83.0596 418.221 85.9351 420.152C74.3493 422.891 62.9316 423.072 52.2707 416.984C45.6959 413.222 43.3754 406.869 43.3081 399.873C43.1231 379.445 43.0222 359.018 43.3081 338.606C43.4931 324.202 52.7752 315.489 67.3036 315.473C116.32 315.44 165.337 315.44 214.371 315.473C227.84 315.473 238.333 325.868 238.366 339.167C238.417 358.836 238.434 378.521 238.366 398.19C238.333 411.06 227.806 421.488 214.842 421.571C201.642 421.637 188.425 421.571 175.225 421.604C172.147 421.604 169.121 421.604 166.43 419.871C165.808 417.149 163.387 415.796 161.688 413.865C161.268 410.846 162.546 408.337 164.11 405.912C165.472 404.097 166.481 402.051 167.792 400.269C150.842 399.031 133.926 400.203 117.027 399.625C114.017 399.526 109.594 401.176 108.77 395.896C111.343 393.784 114.488 394.048 117.497 394.032C133.237 393.982 148.976 393.933 164.429 394.048C161.671 393.058 157.35 394.791 155.803 390.302C159.25 386.887 163.891 388.751 167.708 387.844C150.523 387.91 133.169 387.844 115.816 387.877C109.258 387.888 105.531 390.984 104.634 397.167C104.499 398.157 104.197 399.097 103.776 400.005C93.1657 403.833 95.3517 411.951 96.8819 419.838L96.8987 419.855Z" fill="#F4E3D7"/>
<path d="M63.2511 345.735C64.3105 341.346 67.8922 340.884 71.5075 340.851C75.9804 340.818 75.6441 344.794 76.2326 347.335C81.2099 368.786 85.8173 390.302 90.8451 411.737C91.8036 415.829 91.2319 418.403 87.213 419.987L86.5572 419.921L85.9519 420.185C80.655 421.043 80.0329 416.934 78.6708 413.601C75.829 412.133 75.3582 409.344 74.8201 406.687C71.1375 388.669 66.631 370.815 62.8307 352.83C62.3263 350.487 61.2165 347.995 63.2175 345.735H63.2511Z" fill="#8FD5E0"/>
<path d="M96.8987 419.855C90.4079 415.532 93.4011 409.047 93.9224 403.75C94.41 398.932 100.211 401.523 103.44 400.236C104.466 399.46 105.592 398.883 106.887 398.932C125.266 399.543 143.645 398.998 162.008 399.229C163.992 399.262 166.111 399.097 167.439 401.061C168.717 403.668 167.187 405.202 165.27 406.605C153.953 411.06 142.283 408.7 130.748 408.205C121.449 407.793 112.335 408.667 101.809 409.327C105.76 412.578 108.905 411.852 111.814 411.885C125.266 411.984 138.718 411.885 152.171 411.968C155.652 411.984 159.351 411.44 162.294 414.113C165.27 414.938 170.315 414.377 166.43 419.904C143.259 419.904 120.07 419.888 96.8987 419.871V419.855Z" fill="#35785C"/>
<path d="M63.2511 345.735C68.3966 368.357 73.5589 390.979 78.7044 413.601C76.468 420.069 70.549 419.69 65.5044 419.739C60.1067 419.789 60.8465 414.476 60.073 411.258C55.3143 391.474 50.9086 371.591 46.3685 351.757C45.4437 347.715 43.1399 343.144 49.4121 341.346C54.8771 339.778 61.0483 337.022 63.2511 345.751V345.735Z" fill="#397478"/>
<path d="M167.473 401.061C146.134 400.797 124.795 400.516 103.457 400.252C101.725 397.497 102.498 394.444 102.313 391.507C102.078 387.629 104.18 386.111 107.845 386.111C129.151 386.095 150.472 386.045 171.777 386.062C173.442 386.062 175.914 385.93 175.679 388.322C175.443 390.633 172.971 390.006 171.307 390.039C166.245 390.187 161.184 390.237 156.106 390.336C153.415 392.86 150.002 392.316 146.79 392.365C137.205 392.497 127.604 392.233 118.019 392.514C114.706 392.613 110.67 391.854 108.989 396.16C117.666 398.239 126.477 397.068 135.221 397.183C146.84 397.332 158.46 397.068 170.079 397.183C171.979 397.2 175.41 395.748 175.443 399.064C175.477 401.589 172.316 400.566 170.483 400.83C169.491 400.978 168.465 400.978 167.473 401.044V401.061Z" fill="#CA4830"/>
<path d="M162.31 414.096C143.023 414.294 123.736 414.509 104.466 414.69C101.103 414.723 98.4289 414.113 98.4961 409.839C98.5802 405.367 101.842 406.209 104.449 406.226C124.728 406.292 145.007 406.457 165.287 406.589C164.295 409.097 163.303 411.588 162.31 414.096Z" fill="#F9FBFA"/>
<path d="M108.989 396.144C105.592 391.573 108.03 390.088 112.503 390.088C127.032 390.088 141.577 390.236 156.106 390.319C159.2 392.893 162.899 391.292 166.296 391.639C168.566 391.87 171.576 391.573 171.408 394.543C171.239 397.332 168.213 396.028 166.514 396.045C147.328 396.16 128.158 396.127 108.972 396.144H108.989Z" fill="#F8EDE8"/>
</g>
<g clip-path="url(#clip1_302_15)">
<path d="M203.61 989.955C198.62 990.157 193.63 990.358 188.64 990.56C176.569 992.027 175.67 991.385 173.725 980.18C182.091 967.892 192.988 957.861 206.417 952.194C227.13 943.446 248.246 935.065 269.71 933.634C267.876 934.624 264.317 933.396 260.978 934.863C258.428 935.982 255.217 936.385 253.548 933.506C252.08 930.975 254.428 928.884 255.731 926.867C256.465 925.711 257.565 924.813 258.556 923.859C258.428 923.951 258.262 924.006 258.207 924.134C250.245 940.456 233.569 941.502 219.076 946.417C218.342 946.123 217.7 945.702 217.15 945.133C214.067 941.373 208.068 944.638 205.225 939.044C193.759 939.613 182.237 939.484 171.579 944.895C168.698 946.362 165.781 948.251 162.24 947.939C151.527 945.261 141.014 950.341 130.355 948.838C121.219 943.556 113.239 947.756 105.24 951.9C100.488 952.799 96.8377 951.68 93.7372 947.499C90.6735 943.372 86.6741 939.961 81.7024 936.22C85.6467 939.429 88.7655 942.07 91.499 945.096C93.1685 946.93 95.2966 948.691 94.0491 951.552C92.9484 954.046 90.4717 953.863 88.2702 953.844C85.2982 953.808 82.4179 954.083 80.9869 954.945C88.1418 954.688 96.3056 951.497 104.928 953.092C105.552 953.624 105.845 954.284 105.772 955.11C102.58 957.989 98.6356 959.97 95.9387 963.528C93.6822 966.517 93.5354 968.846 97.4247 971.395C100.158 966.077 98.4888 953.459 98.8557 946.93C105.295 947.921 116.835 952.029 122.705 950.855C125.549 950.085 128.466 949.736 131.328 949.058C137.382 948.709 143.381 948.654 149.453 947.536C163.616 944.95 173.67 953.111 182.953 962.17C186.072 965.233 183.944 968.113 181.522 970.79C163.745 990.523 141.913 1000.79 115.037 1000.54C103.112 1000.43 91.3156 999.308 79.4642 998.593C67.411 996.007 55.7798 992.449 46.5151 983.646C44.1118 980.84 41.6902 978.034 39.2869 975.21C32.6457 968.351 34.4436 960.3 36.8469 952.707C40.8096 940.2 49.0101 930.406 59.137 922.337C79.0789 906.437 102.286 897.744 126.925 892.333C129.108 892.022 131.273 892.095 133.346 892.957C136.043 894.406 136.832 897.102 137.639 899.743C139.969 907.39 144.592 913.461 150.536 918.669C156.003 923.456 164.203 925.033 169.781 922.19C176.679 918.687 174.532 912.47 174.184 906.822C174.129 905.996 174.037 905.171 174.037 904.346C174.184 902.585 174.991 901.173 176.257 899.999C185.815 897.34 189.392 888.959 193.997 881.531C201.372 880.303 208.215 882.87 215.04 884.796C240.339 891.948 265.344 899.944 286.24 916.853C304.145 931.342 306.017 954.395 290.771 970.625C270.829 986.104 246.778 986.452 223.332 988.561C216.801 989.148 210.233 990.285 203.592 989.973L203.61 989.955Z" fill="#A5BFCC"/>
<path d="M358.669 757.776C369.236 766.872 376.41 778.83 385.087 789.485C398.058 805.367 414.385 816.242 432.988 824C441.556 827.576 451.059 825.687 460.048 827.448C469.716 829.337 478.834 831.996 485.842 839.442C487.2 842.34 484.668 843.972 483.659 846.081C481.091 851.399 480.137 856.828 484.503 861.486C489.053 866.328 494.96 866.511 500.556 863.65C506.94 860.386 512.957 856.424 516.938 850.116C517.764 848.795 518.113 846.924 520.241 846.906C520.699 849.712 522.424 850.831 525.176 851.454C539.394 854.719 550.695 862.531 559.556 874.012C562.033 875.736 563.83 877.918 564.252 881.018C564.179 886.96 561.354 891.233 556.694 894.864C550.401 899.761 545.118 905.831 539.174 911.15C536.257 913.772 534 917.807 529.102 917.33C526.075 910.709 529.799 905.171 531.945 899.357C533.523 895.066 537.211 891.508 536.403 886.41C536.202 885.676 536.073 884.924 535.945 884.172C534.716 879.716 534.917 874.874 532.477 870.748C531.744 870.032 530.918 869.482 529.909 869.207C520.314 872.123 516.095 880.247 511.325 887.95C508.224 892.975 507.545 899.577 501.693 902.823C498.409 902.2 497.253 899.211 495.272 897.102C493.97 895.708 492.887 893.048 490.209 895.268C488.227 901.448 490.374 907.225 491.786 913.057C495.254 927.197 500.868 940.731 503.986 954.963C499.932 961.143 499.382 967.195 504.262 973.321C505.399 974.751 506.114 976.695 504.555 978.511C475.147 979.666 445.738 979.153 416.33 978.749C412.991 974.568 414.092 969.745 414.862 965.251C419.907 935.945 429.282 908.105 443.904 882.118C446.839 876.91 448.912 871.206 452.618 866.419C446.986 873.535 444.931 882.76 438.73 889.546C427.246 885.309 416.715 879.514 408.129 870.582C378.813 851.638 354.046 828.2 336.159 797.939C333.609 793.648 330.582 789.595 333.425 784.295C335.205 776.721 341.571 772.649 346.543 767.606C350.175 763.901 354.156 760.453 358.669 757.721V757.776Z" fill="#14445A"/>
<path d="M903.375 976.952C862.5 977.264 821.607 977.117 780.733 977.099C777.137 977.099 773.56 976.916 769.964 976.806C768.973 975.65 767.909 974.568 767.285 973.138C765.231 967.324 761.727 961.987 761.25 955.623C763.946 949.388 770.367 947.334 775.119 943.391C778.678 940.438 782.567 937.834 785.594 934.276C803.72 915.533 821.772 896.753 837.091 875.534C838.192 874.012 839.256 871.445 842.155 872.747C844.228 874.746 846.833 874.067 849.254 874.086C879.947 874.122 1084.25 874.379 1114.94 874.416C1144.62 875.736 1145.03 969.341 1114.94 973.688C1115.21 976.622 910.401 976.897 903.375 976.952Z" fill="#F3E3D8"/>
<path d="M408.129 870.637C418.33 876.634 428.548 882.65 438.749 888.647C438.804 896.423 434.144 902.603 431.52 909.444C423.1 931.415 415.798 953.587 414.532 977.319C414.477 978.456 413.853 979.391 413.193 980.29C411.083 979.281 410.753 976.714 406.937 976.769C370.998 977.264 335.04 977.044 299.1 977.172C295.028 977.172 291.468 976.53 288.46 973.743C287.01 971.67 289.212 970.753 289.836 969.323C304.127 950.58 302.403 932.827 284.13 918.045C262.61 900.641 236.835 892.517 210.545 885.804C204.968 884.374 199.207 883.585 193.538 882.503C191.172 879.807 191.135 877.038 193.318 874.214C262.702 874.177 332.086 874.177 401.47 873.939C403.561 873.939 408.698 877.148 408.111 870.656L408.129 870.637Z" fill="#F4E3D7"/>
<path d="M769.138 973.908C770.386 974.586 769.927 975.76 769.982 976.805C739.748 976.824 709.533 976.86 679.299 976.879C677.391 976.879 675.41 977.154 673.942 975.485C666.365 962.354 663.448 948.306 665.503 933.267C667.136 926.573 669.319 920.026 672.034 913.699C674.749 907.372 678.895 902.402 685.977 900.623C689.114 900.054 692.251 900.164 695.37 900.769C706.396 902.457 717.238 902.805 728.099 899.082C742.005 894.314 755.728 889.234 768.258 881.439C785.118 872.288 798.749 859.652 809.132 843.532C809.573 842.871 810.178 842.394 810.875 842.064C811.664 842.028 816.416 832.179 817.021 832.675C817.92 833.188 813.223 844.228 814.049 841.588C816.819 832.84 830.45 811.987 837.587 819.58C841.641 818.81 835.495 819.415 839.036 818.48C849.842 820.827 858.464 826.182 863.528 836.397C857.4 849.107 850.043 861.101 842.136 872.783C824.91 894.717 807.188 916.23 786.842 935.431C779.632 939.979 773.028 945.39 766.368 950.635C745.417 967.122 722.026 975.705 695.15 973.834C693.26 973.706 691.334 973.743 689.444 973.853C699.865 973.669 710.303 974.274 720.724 973.174C736.868 973.541 753.031 971.67 769.138 973.944V973.908Z" fill="#79B7D0"/>
<path d="M667.521 932.167C667.117 944.509 666.182 956.925 672.896 968.241C674.162 970.368 674.437 972.936 673.924 975.467C669.943 976.659 665.925 977.172 661.742 977.154C635.783 976.952 609.842 976.934 583.882 976.842C582.525 975.302 582.048 973.376 582.176 971.469C583.644 947.866 576.306 925.95 569.297 903.961C566.16 896.478 564.179 888.665 562.766 880.706C561.702 878.487 560.638 876.25 559.593 874.03C581.552 874.104 603.531 873.81 625.472 874.471C632.003 874.672 627.16 868.125 631.031 867.575C633.673 874.177 636.058 880.871 639.58 887.125C642.057 891.508 640.222 895.69 637.471 899.467C634.205 903.942 630.866 908.344 629.288 913.791C626.426 923.712 629.912 930.058 639.91 932.46C646.442 934.038 653.064 933.836 659.651 932.277C662.256 931.653 664.916 930.168 667.558 932.204L667.521 932.167Z" fill="#F4E3D7"/>
<path d="M323.262 769.971C317.831 783.781 315.997 784.937 300.55 782.516C283.048 779.765 265.839 775.785 249.291 769.238C244.448 767.331 242.448 764.763 243.439 759.316C248.906 728.891 254.043 698.392 259.492 667.967C260.207 663.95 262.023 660.117 263.326 656.193C269.453 654.267 275.306 655.679 281.14 657.605C294.532 662.043 308.053 666.023 321.28 670.956C324.032 671.983 326.766 673.285 331.095 673.157C313.392 666.573 296.825 660.429 279.911 655.221C276.792 654.267 271.6 654.23 273.618 648.252C285.414 649.866 296.11 655.019 307.154 658.98C316.969 662.502 326.472 666.903 336.214 670.626C341.039 672.46 342.14 675.523 341.094 680.254C338.746 690.965 336.654 701.748 334.471 712.495C329.976 715.668 326.344 711.12 322.216 711.175C317.703 710.129 316.364 711.89 318.584 715.796C320.198 718.621 323.097 720.363 325.757 722.27C328.545 724.269 332.104 725.626 332.783 729.661C330.233 743.251 328.765 757.097 323.28 769.99L323.262 769.971Z" fill="#456978"/>
<path d="M127.127 894.167C106.965 898.99 87.518 905.519 70.0528 917.11C60.3112 923.584 51.6336 931.103 45.0841 940.841C37.9843 951.387 34.6087 962.629 39.3236 975.173C20.8493 981.94 -1.71603 972.441 0.302007 948.892C1.73298 932.13 0.558849 915.166 0.595541 898.275C0.613886 883.53 10.0436 874.14 25.0138 874.122C52.4408 874.067 79.8495 874.159 107.276 874.049C110.248 874.049 114.285 875.718 115.422 870.766C121.348 877.552 130.062 882.943 127.127 894.167Z" fill="#F4E3D7"/>
<path d="M570.985 902.347C579.296 926.482 587.093 950.708 583.882 976.842C581.479 986.855 579.076 996.851 570.068 1003.42C553.924 1011.08 538.77 1008.73 525.084 996.832C516.076 989.001 507.784 980.657 501.913 970.13C499.381 965.582 499.308 962.042 503.014 957.512C510.517 948.269 519.892 940.841 527.194 931.415C530.698 926.885 533.67 927.765 536.11 933.652C542.439 948.874 554.419 958.814 567.169 968.076C554.804 958.759 542.311 949.516 536.862 933.964C536.99 931.782 537.431 929.599 536.954 927.417C535.981 922.832 538.22 920.705 542.146 918.559C546.897 915.955 552.694 913.405 551.979 906.143C551.924 905.593 552.144 905.061 552.401 904.584C553.006 903.484 554.492 902.75 555.098 903.264C560.767 908.142 565.335 895.506 570.985 902.328V902.347Z" fill="#14445A"/>
<path d="M511.435 760.875C506.922 755.41 504.115 749.615 508.866 742.939C512.939 737.199 521.176 735.842 529.23 739.344C534.165 741.49 538.036 744.92 541.192 749.266C546.787 756.969 559.813 757.005 566.087 749.523C567.665 747.634 569.408 745.727 571.444 744.388C577.223 740.537 583.405 738.372 590.102 742.205C596.926 746.13 597.623 752.659 596.89 759.536C595.679 770.778 589.404 778.463 579.039 782.351C574.049 784.221 572.013 786.954 570.692 792.071C565.628 811.767 550.53 820.644 532.404 825.816C530.294 826.421 528.111 826.769 525.946 827.228C523.268 822.606 526.276 817.893 525.726 813.235C525.836 811.988 526.13 810.777 526.625 809.622C529.138 805.312 534.257 804.578 537.761 801.626C539.449 800.195 541.247 798.563 540.549 796.142C539.779 793.428 537.321 793.685 535.101 793.868C532.165 794.125 529.083 795.097 526.79 792.162C526.423 791.41 525.928 790.622 526.001 789.833C527.12 778.389 524.607 768.798 512.921 763.718C511.948 763.296 511.765 761.902 511.416 760.875H511.435Z" fill="#050505"/>
<path d="M127.127 894.167C128.191 887.932 123.237 884.447 120.577 879.899C118.816 876.873 117.128 873.81 115.422 870.766C112.78 862.55 113.404 855.159 120.155 848.813C123.678 845.512 122.797 840.506 123.494 836.251C126.98 815.197 147.601 801.662 167.818 807.989C179.174 811.547 189.649 813.29 199.739 804.67C203.629 801.351 209.132 800.837 213.866 803.386C218.764 806.009 218.525 811.071 218.397 815.875C218.269 820.992 216.581 825.65 214.067 829.96C212.104 833.28 210.38 836.471 209.719 840.451C208.307 849.033 201.445 849.62 194.529 849.73C191.686 851.161 189.135 850.024 186.714 848.648C184.421 847.346 182.237 846.649 179.761 848.153C174.569 851.326 170.551 848.795 166.203 845.842C161.213 842.468 157.452 834.949 151.82 835.756C146.151 836.563 145.656 845.311 141.601 849.675C137.969 853.582 136.446 858.698 133.731 863.118C124.778 867.153 124.026 870.234 131.676 875.681C136.685 879.239 137.914 883.475 137.217 888.977C136.832 891.159 136.079 893.085 133.786 893.929C131.585 894.002 129.365 894.075 127.163 894.167H127.127Z" fill="#050505"/>
<path d="M133.639 862.586C133.529 858.24 134.924 854.572 137.914 851.308C141.675 847.218 145.05 842.596 146.555 837.333C148.444 830.694 150.939 830.052 155.783 834.637C159.177 837.865 163.011 840.634 166.478 843.788C170.643 847.585 174.367 849.877 180.311 846.136C185.411 842.908 189.466 849.529 194.529 849.73C193.465 857.855 189.099 865.833 193.318 874.214C193.392 876.983 193.465 879.752 193.538 882.503C192.108 892.608 186.695 899.009 176.459 900.971C162.607 904.529 151.967 898.642 143.711 890.884C149.545 897.909 159.03 901.375 169.671 902.347C171.579 902.512 173.56 902.255 175.046 903.869C177.046 910.746 179.706 917.88 172.588 923.382C166.515 928.077 155.599 926.555 149.032 920.65C140.996 913.424 136.245 904.327 133.768 893.929C134.355 892.242 134.942 890.536 135.511 888.849C136.758 884.722 135.896 880.156 138.611 876.249C140.391 873.7 138.923 871.023 137.29 868.602C135.988 866.658 133.089 865.631 133.639 862.568V862.586Z" fill="#F58F7A"/>
<path d="M511.435 760.875C511.692 760.949 511.948 761.04 512.205 761.114C528.717 765.827 528.184 779.196 528.074 792.346C528.35 792.841 528.661 793.52 528.368 793.85C523.837 799.077 523.818 804.34 528.148 809.677C528.056 810.686 527.983 811.676 527.891 812.685C524.791 818.865 519.47 822.716 513.324 825.1C507.142 827.485 500.959 830.199 494.171 830.657C494.281 827.136 491.64 827.796 489.548 827.613C482.1 826.953 478.596 822.991 479.476 815.472C479.825 812.464 480.1 809.42 480.852 806.504C481.971 802.103 482.925 798.068 478.963 794.308C476.211 791.686 476.486 787.963 480.485 787.413C496.63 785.139 501.675 770.338 511.435 760.894V760.875Z" fill="#F58F79"/>
<path d="M321.042 709.194C325.518 710.295 329.995 711.395 334.453 712.477C335.7 713.174 336.948 713.871 338.195 714.549C343.901 719.464 351.734 722.472 353.092 731.257C353.642 740.371 355.771 749.138 358.632 757.776C357.348 763.223 351.826 764.653 348.597 768.248C343.662 773.731 338.47 778.995 333.389 784.35C329.995 779.563 326.619 774.776 323.225 769.972C324.546 755.593 328.344 741.71 331.682 727.735C337.535 726.543 339.333 728.799 337.608 734.429C336.122 739.271 334.508 744.076 333.921 749.138C334.288 744.204 335.939 739.528 337.663 734.98C339.461 730.285 338.342 727.754 333.572 726.415C327.573 724.728 322.51 721.39 318.749 716.457C316.455 713.449 314.859 709.928 320.987 709.157L321.042 709.194Z" fill="#EA695F"/>
<path d="M755.287 875.644C779.779 856.553 799.06 833.151 813.278 805.55C814.507 803.166 814.544 798.985 819.222 801.112C824.818 804.725 834.211 812.354 836.688 818.938C828.249 822.111 820.58 825.632 817.204 833.188C815.645 836.691 813.443 839.955 810.526 842.596L810.563 842.56C805.408 849.73 801.225 857.8 792.749 861.908C782.806 861.504 778.788 864.824 777.798 874.324C775.853 877.496 772.752 879.385 769.872 881.55C760.993 886.024 752.205 890.683 742.959 894.351C739.235 895.818 735.584 898.44 731.181 896.46C729.456 894.736 730.704 893.269 731.933 892.315C739.455 886.391 746.408 879.661 755.306 875.644H755.287Z" fill="#79B7D0"/>
<path d="M894.881 801.607C894.734 806.376 890.845 808.686 887.799 811.034C879.433 817.508 871.508 824.642 862.023 829.593C855.07 828.493 851.108 821.946 844.43 820.002C841.825 819.25 839.366 818.461 836.651 818.498C834.798 817.783 834.174 816.297 834.064 814.463C835.844 806.687 837.495 798.893 839.238 791.099C839.935 787.999 840.834 783.836 845.127 784.441C848.704 784.955 849.218 788.751 849.071 791.777C848.704 799.37 851.163 799.535 857.547 796.582C866.922 792.254 875.012 786.22 883.323 780.407C885.396 778.958 886.864 775.712 890.313 777.619C891.652 778.261 892.037 779.453 892.202 780.792C889.285 787.357 881.873 789.1 878.259 793.648C883.066 791.025 886.442 784.606 893.615 784.111C895.541 785.193 895.468 786.917 895.082 788.733C892.092 793.831 886.295 795.739 882.809 799.443C887.047 796.436 891.303 792.603 896.147 789.54C896.238 792.107 896.348 794.675 896.44 797.242C894.037 800.599 890.368 802.414 887.157 804.762C889.652 803.46 891.45 800.654 894.862 801.589L894.881 801.607Z" fill="#F48F7B"/>
<path d="M494.171 830.657C496.373 829.612 497.785 827.411 500.482 827.008C511.233 825.376 519.984 819.8 527.891 812.703C529.193 817.801 526.185 822.349 525.946 827.246C522.387 833.317 521.341 840.121 520.241 846.925C517.911 855.507 504.482 866.548 495.511 867.465C489.475 868.07 484.301 866.291 481.146 861.211C478.009 856.149 478.944 850.556 481.531 845.421C482.613 843.257 484.393 841.441 485.861 839.46C488.631 836.526 491.419 833.61 494.19 830.676L494.171 830.657Z" fill="#EE866B"/>
<path d="M79.2257 997.181C97.9751 998.575 116.798 1000.12 135.492 997.071C155.196 993.861 168.735 980.437 182.348 967.416C184.989 964.885 182.036 963.711 180.513 962.317C169.689 952.432 158.149 945.17 142.409 950.085C138.85 951.203 134.722 950.562 130.851 950.727C127.182 951.167 123.421 952.799 120.063 949.755C122.21 945.665 125.842 947.664 128.961 947.627C137.547 947.866 145.968 946.472 154.425 945.39C157.452 945.005 160.498 945.17 163.286 946.655C170.239 946.655 175.138 951.093 179.577 955.293C185.191 960.593 189.429 959.97 195.08 955.385C201.904 949.846 209.738 945.793 218.892 945.261C227.295 942.529 235.624 939.558 244.136 937.192C248.282 936.037 249.456 932.68 251.475 929.82C254.722 925.198 257.767 920.338 265.803 919.219C261.418 924.849 255.309 927.16 254.08 933.708C261.656 934.349 268.628 930.535 276.186 932.589C238.981 940.42 202.271 949.186 175.321 978.86C171.78 985.535 165.836 989.13 158.975 991.551C135.639 1004.35 110.615 1002.76 85.4816 1000.12C83.8488 999.748 79.3725 997.639 79.244 997.181H79.2257Z" fill="#50221A"/>
<path d="M832.083 814.922C827.79 810.319 823.515 805.716 819.222 801.112C823.002 790.897 823.717 780.26 824.011 769.495C824.102 766.34 822.653 762.874 825.24 760.013C828.377 762.269 826.414 765.662 827.184 767.844C827.551 764.69 826.12 760.655 828.799 757.226C831.899 753.741 835.367 753.704 839.091 756.144C841.054 759.738 840.247 763.663 840.467 767.129C841.146 764.47 839.036 760.857 842.54 758.528C846.356 765.644 844.962 773.401 845.255 780.939C841.366 784.46 839.843 789.192 839.036 794.107C837.917 800.892 836.376 807.549 834.358 814.115C833.771 814.83 833.018 815.105 832.101 814.94L832.083 814.922Z" fill="#F48F7B"/>
<path d="M538.036 933.799C541.045 942.364 546.897 948.911 553.208 955.165C559.409 961.308 566.967 965.673 573.59 971.138C554.052 963.069 540.403 949.039 532.055 928.756C522.332 939.869 512.939 950.635 502.354 960.245C499.528 962.812 501.179 965.948 502.684 968.589C511.49 984.123 523.451 996.465 539.852 1004C547.98 1007.74 556.4 1008.15 564.784 1004.53C566.472 1003.8 567.94 1002.04 570.068 1003.4C562.014 1011.56 552.328 1010.9 542.568 1007.96C529.432 1004.02 519.764 994.962 510.774 985.077C508.756 982.857 506.646 980.693 504.573 978.511C503.418 976.365 502.409 974.109 501.088 972.074C497.07 965.875 495.914 960.08 502.904 955.091C512.26 944.143 520.846 932.479 531.854 922.997C538.091 924.189 537.302 929.416 538.073 933.781L538.036 933.799Z" fill="#4D3A2B"/>
<path d="M273.6 648.233C273.746 653.167 278.094 652.36 280.865 653.24C299.449 659.09 317.795 665.638 336.269 672.918C332.141 677.98 327.958 675.688 324.069 674.294C306.695 668.077 289.322 661.86 271.416 657.33C268.775 656.67 266.004 656.56 263.289 656.193C267.656 654.744 270.683 651.571 273.581 648.233H273.6Z" fill="#E3D7D1"/>
<path d="M413.193 980.29C413.028 961.84 417.761 944.289 423.65 927.087C428.108 914.084 433.667 901.448 438.749 888.647C444.032 878.872 448.252 868.437 455.572 859.707C457.81 861.89 456.251 863.027 455.425 864.384C436.309 895.726 423.393 929.453 416.899 965.582C416.128 969.873 416.495 974.366 416.33 978.768C415.284 979.263 414.239 979.777 413.193 980.272V980.29Z" fill="#544330"/>
<path d="M833.917 814.188C835.587 805.349 837.073 796.472 839.017 787.706C839.715 784.57 841.201 781.379 845.237 780.92C846.906 782.608 848.576 784.295 850.227 785.982C853.437 788.55 851.107 795.445 857.62 795.464C866.445 790.604 874.92 785.23 882.736 778.811C884.717 777.179 887.01 772.741 890.312 777.619C879.03 784.808 868.481 793.153 856.501 799.278C848.025 803.606 847.402 803.441 847.181 794.217C847.145 792.566 847.236 790.915 847.108 789.283C846.961 787.394 846.723 785.065 844.283 785.139C842.265 785.194 842.54 787.541 842.008 789.027C839.109 797.279 839.825 806.541 835.018 814.262C834.651 814.225 834.284 814.207 833.899 814.17L833.917 814.188Z" fill="#5C3936"/>
<path d="M289.836 969.323C289.377 970.79 288.918 972.275 288.46 973.743C275.728 984.563 259.73 985.938 244.32 988.323C231.808 990.248 219.039 990.597 206.381 991.514C205.5 991.569 204.546 990.505 203.629 989.955C214.673 985.59 226.488 987.332 237.899 985.847C256.355 983.426 274.59 981.372 289.836 969.323Z" fill="#58362F"/>
<path d="M158.938 991.55C164.387 987.314 169.836 983.096 175.284 978.859C175.633 987.442 179.816 991.642 188.64 990.56C178.788 992.449 168.863 992.211 158.938 991.55Z" fill="#EF917C"/>
<path d="M79.2257 997.181C81.2988 998.153 83.3718 999.143 85.4633 1000.11C70.9334 998.281 56.2017 996.942 46.5701 983.609C56.9539 989.35 67.3376 995.072 79.244 997.181H79.2257Z" fill="#644B44"/>
<path d="M857.639 795.464C852.832 798.563 849.731 798.563 850.319 791.539C850.465 789.705 850.282 787.834 850.245 785.982C852.025 783.855 854.134 781.122 856.978 782.424C860.244 783.91 858.391 787.248 857.84 789.797C857.437 791.704 856.923 793.538 857.639 795.464Z" fill="#F48F7B"/>
<path d="M837.238 817.856C847.567 817.398 854.63 823.835 862.005 829.593C861.344 832.106 867.197 833.151 863.528 836.342C856.483 828.988 848.888 822.459 838.651 819.91C837.972 820.075 837.366 819.965 836.834 819.525C836.541 818.865 836.651 818.296 837.22 817.856H837.238Z" fill="#3D2333"/>
<path d="M353.11 731.257C349.625 724.379 342.011 721.152 338.214 714.549C348.304 718.022 353.269 723.591 353.11 731.257Z" fill="#EA695F"/>
<path d="M893.633 784.13C886.441 787.798 881.25 794.492 872.59 796.234C879.14 791.099 885.689 785.945 892.22 780.81C893.743 781.471 893.706 782.791 893.615 784.13H893.633Z" fill="#5F3530"/>
<path d="M828.799 757.207V776.831C828.065 776.849 827.331 776.867 826.597 776.886C824.396 771.494 826.524 765.515 825.258 759.995C826.01 758.528 827.111 757.501 828.799 757.207Z" fill="#813F37"/>
<path d="M842.522 758.509C841.751 764.158 843.035 770.173 839.862 775.437C838.1 768.963 838.761 762.544 839.073 756.125C840.229 756.914 841.366 757.721 842.522 758.509Z" fill="#652621"/>
<path d="M894.881 801.607C890.661 803.735 887.432 807.733 881.58 807.109C886.552 803.827 891.505 800.544 896.477 797.261C897.559 799.297 895.835 800.305 894.881 801.607Z" fill="#532F2B"/>
<path d="M218.911 945.261C208.564 950.176 197.721 954.193 189.117 962.189C186.677 964.463 185.118 962.005 183.595 960.74C177.229 955.458 170.533 950.708 163.323 946.637C173.798 941.905 183.723 935.413 196.29 938.512C199.464 939.301 202.455 933.469 206.527 937.082C207.371 944.821 214.654 940.695 218.232 943.409C218.452 944.033 218.691 944.638 218.911 945.261Z" fill="#F38E77"/>
<path d="M120.339 949.259C123.586 951.643 127.383 949.938 130.851 950.708C128.136 952.542 124.852 951.607 121.953 952.505C116.394 953.551 110.817 954.193 105.167 953.808C94.4894 954.981 83.7938 956.155 73.1165 957.329C78.0149 953.312 83.537 952.505 89.1691 952.084C90.7285 951.974 92.9117 952.469 93.1869 950.323C93.3153 949.278 92.1595 947.865 91.2789 946.893C86.6557 941.868 81.2988 937.687 76.1619 933.047C84.0873 934.973 90.3249 939.723 95.0031 946.05C97.9568 950.048 101.002 951.258 105.479 950.25C110.505 950.763 115.11 944.913 120.394 949.278L120.339 949.259Z" fill="#561F14"/>
<path d="M105.405 955.531C107.79 959.731 107.919 963.326 103.02 965.967C101.956 966.535 101.131 967.947 100.672 969.139C99.9381 971.065 103.039 974.788 98.6539 974.806C95.4984 974.806 93.829 971.395 91.8293 969.194C89.2792 966.388 91.8843 964.536 93.6822 963.087C97.2963 960.171 98.8741 954.009 105.35 955.458L105.405 955.513V955.531Z" fill="#A5BFCC"/>
<path d="M175.046 903.851C156.957 904.052 142.592 896.423 139.84 884.264C148.756 897.413 161.819 901.026 176.459 900.971C175.982 901.925 175.523 902.897 175.046 903.869V903.851Z" fill="#5E3630"/>
<path d="M120.339 949.259C115.367 949.59 110.395 949.901 105.424 950.231C109.771 946.784 117.146 947.132 118.614 938.989C118.926 946.545 125.971 944.326 128.961 947.609C126.356 949.571 123.127 948.287 120.339 949.259Z" fill="#A5BFCC"/>
<path d="M530.79 924.372C522.552 935.596 513.654 946.215 502.886 955.128C496.483 937.43 490.41 919.623 487.053 901.008C486.448 897.707 487.126 895.121 488.723 892.48C497.088 893.745 498.776 900.971 501.106 907.097C502.904 911.847 505.032 914.689 509.307 913.387C509.362 913.387 510.793 913.259 510.536 913.277C502.409 913.919 500.757 909.261 501.51 902.548C506.665 894.864 508.903 885.493 515.03 878.432C519.378 873.425 523.029 866.97 531.175 867.281C528.661 874.214 522.864 879.22 520.442 885.474C524.112 880.211 526.46 873.205 532.716 869.079C538.623 872.875 536.183 879.239 537.467 884.447C535.101 886.41 533.541 888.94 532.092 891.783C533.945 889.454 534.569 886.226 537.798 885.401C541.338 888.28 538.476 890.793 537.266 893.324C533.596 900.935 529.12 908.289 529.744 917.238C531.835 919.347 531.377 921.842 530.808 924.354L530.79 924.372Z" fill="#EA6A5F"/>
<path d="M530.79 924.373C528.772 922.245 529.304 919.751 529.725 917.257C539.54 909.151 547.484 899.027 557.978 891.526C560.693 889.582 563.152 885.199 562.748 880.706C567.316 887.235 567.573 895.396 570.985 902.347C569.499 901.943 567.646 900.054 566.564 902.017C563.298 907.922 559.024 908.27 552.896 904.162C561.042 915.056 546.31 913.992 546.127 920.228C537.266 919.623 538.587 925.363 539.32 930.92C539.43 931.818 538.495 932.845 538.054 933.817C534.734 931.36 536.66 924.886 530.808 924.373H530.79Z" fill="#14445A"/>
<path d="M501.491 902.567C501.289 913.424 512.334 910.911 519.874 916.432C512.737 916.432 508.646 913.736 503.986 914.634C501.253 915.166 501.344 911.645 500.666 909.683C498.262 902.842 495.602 896.221 488.723 892.48C497.767 889.784 497.474 898.917 501.491 902.567Z" fill="#512A23"/>
<path d="M532.698 869.079C527.506 876.36 522.864 883.989 518.058 891.6C519.745 882.063 524.332 874.085 531.156 867.281C531.67 867.887 532.184 868.474 532.698 869.079Z" fill="#5D2C28"/>
<path d="M537.779 885.419C535.229 889.491 532.679 893.544 530.129 897.615C529.432 897.138 528.716 896.661 528.019 896.203C530.698 891.985 530.698 886.024 537.431 884.484C537.486 884.814 537.596 885.144 537.761 885.438L537.779 885.419Z" fill="#672F29"/>
<path d="M769.138 973.908C764.974 977.062 760.167 975.301 755.691 975.375C743.418 975.577 731.126 975.283 718.834 975.173C718.908 972.532 721.072 972.349 722.87 971.854C735.712 968.369 747.6 962.739 759.011 955.99C760.021 955.403 761.066 955.293 762.075 956.027C764.423 961.987 766.772 967.947 769.12 973.908H769.138Z" fill="#79B7D0"/>
<path d="M762.094 956.027C748.499 964.243 734.135 970.753 718.853 975.173C706.322 975.467 693.755 976.439 681.5 973.156C685.463 969.671 689.408 972.165 693.187 972.386C723.347 974.219 748.499 962.354 771.835 944.858C776.532 941.337 780.219 935.926 786.86 935.376C780.109 944.069 769.615 948.269 762.094 956.008V956.027Z" fill="#321E2F"/>
<path d="M695.37 902.53C701.387 898.495 708.395 904.089 714.45 900.568C720.687 901.87 725.494 898.44 730.502 895.689C735.841 898.422 752.04 888.445 762.461 883.989C765.212 882.815 767.432 880.669 773.78 877.973C774.275 878.304 771.23 881.476 771.028 881.751C770.845 882.008 770.661 882.155 770.478 882.155C757.599 889.931 743.601 897.743 729.677 898.605C724.76 904.657 719.403 904.474 714.523 902.97C710.505 905.079 706.983 904.401 703.13 904.254C700.488 904.144 697.516 905.098 695.37 902.548V902.53Z" fill="#3D2333"/>
<path d="M837.11 818.993C828.249 817.361 823.717 822.184 820.25 829.52C818.067 834.16 814.801 838.305 812.031 842.67L811.279 842.706L810.545 842.578C813.297 833.94 818.764 826.659 822.598 818.553C824.561 814.408 829.331 817.141 832.101 814.903C832.707 814.665 833.33 814.427 833.936 814.188C834.303 814.262 834.67 814.298 835.055 814.28C835.33 815.765 835.807 817.123 837.275 817.856C837.201 818.223 837.165 818.608 837.146 818.993H837.11Z" fill="#79B7D0"/>
<path d="M305.044 709.268C304.696 722.179 300.99 733.678 289.652 741.234C283.213 745.525 277.049 743.618 272.994 737.144C264.023 722.821 269.307 696.962 283.396 687.297C290.093 682.694 297.779 684.363 301.687 691.57C304.659 697.054 305.54 702.996 305.044 709.249V709.268Z" fill="#9CB4BA"/>
<path d="M321.042 709.194C317.519 711.175 317.354 713.376 320.18 716.328C324.472 720.84 329.701 724.049 335.48 725.663C340.8 727.149 340.965 729.515 339.461 733.934C337.535 739.565 336.251 745.415 334.288 752.604C331.719 745.25 334.196 739.858 336.214 734.595C338.03 729.845 336.324 728.011 331.737 727.736C325.848 724.856 320.18 721.665 316.125 716.31C314.529 714.201 313.887 711.817 315.63 709.561C317.153 707.58 319.097 706.939 321.06 709.194H321.042Z" fill="#593439"/>
<path d="M315.593 739.711C317.63 747.524 310.952 775.217 306.053 780.003C309.227 766.579 312.401 753.136 315.593 739.711Z" fill="#202C51"/>
<path d="M331.205 677.173C332.343 687.022 328.564 693.367 326.491 700.061C326.637 692.964 327.463 685.995 331.205 677.173Z" fill="#1E284B"/>
<path d="M528.148 809.695C522.179 805.905 522.155 800.128 528.074 792.364C531.175 793.703 533.853 791.356 536.807 791.411C539.339 791.447 541.779 791.667 543.155 794.18C544.586 796.821 542.898 798.801 541.522 800.837C538.275 805.605 531.982 805.807 528.148 809.714V809.695Z" fill="#E56A5F"/>
<path d="M133.639 862.586C142.849 869.959 143.051 870.674 137.675 881.109C136.391 883.585 137.932 886.776 135.492 888.867C136.043 883.714 135.437 879.752 129.512 877.258C125.732 875.663 122.32 871.554 123.824 866.511C125.292 861.596 129.989 863.027 133.621 862.586H133.639Z" fill="#E2695E"/>
<path d="M180.935 885.713C173.927 890.719 167.065 889.876 160.681 883.2C167.029 885.584 173.615 886.006 180.935 885.713Z" fill="#6A3933"/>
<path d="M177.211 876.635C181.21 871.554 176.073 866.786 177.174 861.963C181.192 866.786 184.476 871.646 177.211 876.635Z" fill="#6A3E34"/>
<path d="M163.103 864.2C162.901 866.364 161.727 867.905 159.745 868.235C157.232 868.657 156.608 866.584 156.462 864.659C156.333 862.917 157.214 861.321 159.03 861.101C161.14 860.863 162.479 862.201 163.084 864.2H163.103Z" fill="#512D28"/>
<path d="M184.659 857.891C186.769 857.8 187.503 859.304 187.668 860.917C187.851 862.843 187.301 864.86 185.081 865.227C183.136 865.557 182.311 863.888 182.036 862.256C181.669 860.147 182.696 858.698 184.659 857.891Z" fill="#58352A"/>
<path d="M152.279 858.992C151.361 853.728 153.233 850.226 158.7 848.997C156.553 852.335 154.407 855.672 152.279 858.992Z" fill="#61342D"/>
<path d="M1123.5 675.174C1126.4 664.244 1124.25 668.949 1127 658C1129.5 648.133 1156.14 649.114 1165.54 652.03C1172.31 654.139 1173.54 657.77 1170.45 666.555C1169.83 668.334 1169.08 670.058 1168.4 671.8C1169.13 672.882 1169.11 674.019 1168.62 675.174C1167.3 677.338 1165.08 678.567 1163.17 680.071C1158.29 683.904 1155.56 687.664 1161.23 693.294C1164.09 696.136 1163.43 700.446 1163.37 704.279C1162.29 711.89 1159.78 719.153 1158.29 726.654C1154.09 742.261 1151.24 758.198 1146.55 773.676C1145.25 777.362 1143.81 780.957 1139.85 782.681C1137.16 782.608 1134.44 782.553 1131.74 782.479C1128.33 780.847 1124.07 780.333 1122.96 775.73C1120.85 773.309 1121.45 770.54 1122.09 767.863C1127.71 744.535 1133.56 721.262 1139.39 698.007C1139.87 696.1 1140.59 694.321 1142.49 693.349L1123.5 675.174Z" fill="#4E796B"/>
<path d="M1131.72 782.498C1111.71 785.579 1091.57 785.78 1071.62 782.791C1059.81 781.012 1051.79 770.467 1051.72 758.711C1051.54 727.204 1051.54 695.696 1051.72 664.207C1051.79 650.031 1063.66 638.44 1078.69 638.293C1109.4 637.982 1140.11 637.835 1170.8 638.348C1185.46 638.587 1196.72 648.765 1197.95 669.782C1198.17 673.634 1197.97 677.522 1197.95 681.391C1197.18 681.96 1196.43 681.923 1195.72 681.318C1191.26 673.579 1183.79 672.258 1175.81 672.075C1173.13 672.02 1170.36 673.432 1167.79 671.561C1166.77 668.719 1168.38 666.188 1168.78 663.529C1169.48 658.889 1168.6 655.221 1163.32 654.175C1158.55 653.222 1155.21 654.927 1153.81 659.751C1151.45 667.949 1149.65 676.275 1147.47 684.527C1146.62 687.682 1146.22 691.075 1143.37 693.312C1143.1 693.349 1142.79 693.514 1142.57 693.422C1126.06 686.967 1126.33 687.04 1121.69 704.334C1116.31 724.324 1111.87 744.516 1106.79 764.58C1105.69 768.945 1103.47 773.951 1108.48 777.491C1113.42 780.975 1117.89 778.463 1122.17 775.639C1126.2 776.776 1130 778.224 1131.72 782.553V782.498Z" fill="#F4E3D7"/>
<path d="M1114 783.946C1114.66 782.809 1116.7 776.17 1122.96 775.749C1131.78 775.162 1144.64 785.212 1144.64 774.41C1149.85 775.95 1154.62 778.61 1160.14 779.545C1166.36 780.609 1169.44 778.445 1170.86 772.594C1173.98 759.83 1176.71 746.974 1179.94 734.228C1184.1 718.841 1187.33 703.216 1191.9 687.939C1192.65 685.426 1192.49 682.308 1195.75 681.171C1196.5 681.245 1197.26 681.3 1197.99 681.373C1197.99 704.884 1197.51 728.414 1198.17 751.907C1198.71 771.072 1184.6 786.789 1165.37 784.515C1156.91 783.506 1122.35 786.936 1114.02 783.946H1114Z" fill="#F4E3D7"/>
<path d="M1142.49 693.367C1136.66 717.337 1130.81 741.307 1125.01 765.277C1124.17 768.725 1123.63 772.264 1122.94 775.749C1120.06 784.075 1114.13 782.057 1108.04 780.334C1101.49 778.481 1102.26 773.933 1103.44 769.128C1109.62 743.636 1115.8 718.162 1122.02 692.689C1122.77 689.589 1124.15 686.215 1127.73 686.6C1133.23 687.187 1139.69 686.6 1142.49 693.367Z" fill="#6CA9C3"/>
<path d="M1195.72 681.171C1191.04 699.126 1186.36 717.062 1181.68 735.016C1174.03 729.991 1165.1 728.616 1156.51 726.287C1158.14 718.529 1159.79 710.79 1161.43 703.032C1163.19 693.422 1162.75 683.317 1168.12 674.551C1168.21 673.634 1168.31 672.698 1168.38 671.781C1176.49 666.426 1184.19 671.305 1191.86 673.047C1195.46 673.872 1196.23 677.577 1195.7 681.153L1195.72 681.171Z" fill="#971B49"/>
<path d="M1156.53 726.287C1166.2 725.516 1175.3 726.36 1181.7 735.016C1178.36 749.156 1174.38 765.992 1171.1 780.132C1170.47 782.828 1169.35 782.571 1166.88 782.314C1158.91 781.452 1150.14 782.314 1144.62 774.391C1148.02 758.216 1151.76 742.132 1156.51 726.287H1156.53Z" fill="#971B49"/>
<path d="M1168.14 674.551C1167.46 684.399 1164.97 693.844 1161.45 703.032C1161.21 699.584 1162.58 695.568 1158.99 693.165C1152.11 688.581 1154.62 684.894 1159.48 680.676C1162.2 678.329 1164.95 676.165 1168.14 674.551Z" fill="#629584"/>
<path d="M1156.88 701.822C1157.1 703.362 1155.89 704.646 1154.68 704.077C1150.71 702.244 1147.15 699.346 1146.07 695.146C1145.59 693.294 1149.69 689.754 1150.68 690.451C1154.29 693.037 1156.44 697.09 1156.9 701.822H1156.88Z" fill="#629584"/>
<path d="M486.301 806.137C492.906 809.512 498.061 803.68 504.702 803.02C497.253 810.3 491.75 811.236 486.301 806.137Z" fill="#62362D"/>
<path d="M508.298 767.551C514.902 771.952 515.636 776.464 514.205 783.653C512.059 777.784 510.517 773.566 508.298 767.551Z" fill="#5E352D"/>
<path d="M507.839 781.581C507.6 783.506 506.408 785.285 503.986 785.542C502.574 785.689 501.473 784.478 501.565 782.956C501.711 780.517 503.344 778.958 505.546 778.536C506.903 778.279 507.931 779.508 507.839 781.581Z" fill="#5F3A33"/>
<path d="M792.272 860.826C809.077 858.772 765.267 896.478 776.715 867.116C781.357 863.595 784.182 855.801 792.272 860.826Z" fill="#79B7D0"/>
<path d="M896.165 789.558C891.633 796.234 884.625 799.664 878.498 804.23C877.929 803.515 877.36 802.8 876.792 802.084C882.901 797.646 889.01 793.208 895.101 788.751C895.468 789.008 895.816 789.283 896.165 789.558Z" fill="#613933"/>
<path d="M833.294 756.492C835.844 763.369 835.697 769.862 833.129 776.757C831.276 769.201 831.679 762.856 833.294 756.492Z" fill="#622A2B"/>
<path d="M535.046 877.588C531.909 883.072 528.753 888.555 525.066 895.011C524.68 887.767 527.671 882.027 535.046 877.588Z" fill="#5D2A27"/>
<path d="M770.478 882.137C770.496 881.696 770.533 881.275 770.569 880.834C771.982 877.735 792.272 868.62 806.949 845.091C807.921 843.568 823.589 817.838 837.256 817.856C835.825 817.746 840.65 820.461 837.256 820.461C823.901 820.461 804.216 854.04 801.133 857.36C791.3 868.015 782.568 876.194 770.496 882.137H770.478Z" fill="#3D2333"/>
<path d="M667.521 932.167C658.385 935.908 648.992 937.137 639.305 934.753C627.619 931.892 623.454 924.648 626.995 913.167C628.554 908.142 630.903 903.209 634.572 899.559C640.314 893.837 639.489 888.702 635.104 882.87C631.728 878.395 629.38 873.443 630.976 867.538C635.911 861.559 642.699 858.442 649.67 855.801C654.422 854.004 656.605 851.454 656.238 845.989C654.954 826.879 662.219 811.841 684.711 808.576C687.353 808.191 690.013 807.054 692.398 805.807C698.837 802.451 705.295 799.737 711.074 806.486C716.614 812.978 715.605 819.58 710.193 825.797C707.643 830.419 702.782 831.354 698.415 832.473C692.453 833.977 690.783 837.149 691.114 843.11C691.499 850.354 692.655 857.983 687.848 864.53C687.389 864.842 686.894 865.062 686.399 865.282C683.28 866.584 677.996 863.687 677.042 868.235C676.088 872.747 681.537 872.838 684.381 874.599C685.592 875.351 686.839 876.268 686.986 877.643C687.811 885.933 690.343 894.369 685.353 902.273C676.841 906.62 673.318 914.451 670.731 922.997C669.796 926.115 668.603 929.141 667.521 932.203V932.167Z" fill="#040404"/>
<path d="M687.408 864.274C689.316 855.306 689.316 846.246 688.252 837.223C687.866 834.013 688.417 832.711 691.664 832.308C698.287 831.483 704.066 828.053 710.212 825.797C712.835 827.246 713.881 829.905 714.578 832.473C715.936 837.571 718.926 840.928 723.457 843.568C727.805 846.099 733.034 847.475 730.209 855.746C728.686 860.202 733.548 866.823 735.529 872.453C739.18 877.9 735.877 881.238 731.768 884.026C726.118 887.858 719.476 888.629 712.909 889.454C696.783 887.437 689.774 881.696 686.802 868.143C686.509 866.768 686.436 865.466 687.408 864.292V864.274Z" fill="#F59079"/>
<path d="M755.287 875.644C747.967 883.494 738.427 888.592 730.502 895.689C726.117 901.741 720.559 903.887 713.404 900.879C710.707 896.57 708.982 892.168 712.413 887.4C717.678 886.153 723.219 886.373 728.282 883.879C733.181 881.458 736.208 878.23 735.547 872.453C741.766 875.754 749.031 872.582 755.306 875.644H755.287Z" fill="#F1E2D7"/>
<path d="M712.413 887.4C711.698 892.003 713.973 896.148 714.45 900.568C712.321 904.199 708.946 903.3 705.827 902.769C702.323 902.182 698.856 902.347 695.37 902.53C692.031 902.438 688.71 902.347 685.371 902.255C685.628 898.165 686.05 894.076 686.087 889.986C686.16 883.219 688.068 875.553 677.391 874.287C674.713 873.975 671.961 870.913 673.025 867.428C674.144 863.779 677.464 862.862 681.023 863.228C683.17 863.448 685.28 863.925 687.408 864.292C690.251 877.918 697.81 886.483 712.413 887.4Z" fill="#EA8069"/>
<path d="M715.44 869.867C718.706 869.574 720.595 869.079 722.375 869.317C724.411 869.592 728.19 867.667 728.025 871.445C727.915 874.232 724.43 874.269 721.935 874.14C719.66 874.03 717.899 872.875 715.44 869.849V869.867Z" fill="#FBFCFD"/>
<path d="M706.029 831.813C705.607 836.031 704.763 840.029 701.406 843.972C699.993 838.122 702.25 834.637 706.029 831.813Z" fill="#6D4435"/>
<path d="M712.853 847.456C710.872 847.016 709.496 845.696 709.166 843.66C709.001 842.688 709.368 841.276 710.945 841.588C712.707 841.936 713.716 843.293 714.193 844.944C714.505 846.026 714.394 847.108 712.853 847.456Z" fill="#56392F"/>
</g>
<defs>
<clipPath id="clip0_302_15">
<rect width="1112" height="422" fill="white" transform="translate(43.1736)"/>
</clipPath>
<clipPath id="clip1_302_15">
<rect width="1198" height="372" fill="white" transform="translate(0.173584 638)"/>
</clipPath>
</defs>
</svg>
