<svg width="141" height="24" viewBox="0 0 141 24" fill="none" xmlns="http://www.w3.org/2000/svg">
<g clip-path="url(#clip0_309_15)">
<path d="M11.7272 20.508C12.2357 20.2011 12.8723 20.2011 13.3808 20.508L17.895 23.2326C19.1067 23.964 20.6015 22.8776 20.2799 21.4992L19.0819 16.3647C18.9469 15.7862 19.1434 15.1807 19.5924 14.7918L23.5829 11.3349C24.6527 10.4081 24.0808 8.65085 22.6705 8.53124L17.4201 8.08595C16.8288 8.03579 16.3138 7.66246 16.0822 7.11607L14.0271 2.26757C13.4758 0.966763 11.6322 0.966763 11.0809 2.26757L9.02581 7.11606C8.79422 7.66246 8.27922 8.03579 7.68789 8.08595L2.43752 8.53124C1.0272 8.65085 0.45532 10.4081 1.52511 11.3349L5.51563 14.7918C5.96456 15.1807 6.16112 15.7862 6.02615 16.3647L4.82808 21.4992C4.50647 22.8776 6.00128 23.964 7.21302 23.2326L11.7272 20.508Z" fill="#13445A"/>
</g>
<g clip-path="url(#clip1_309_15)">
<path d="M40.7272 20.508C41.2357 20.2011 41.8723 20.2011 42.3808 20.508L46.895 23.2326C48.1067 23.964 49.6015 22.8776 49.2799 21.4992L48.0819 16.3647C47.9469 15.7862 48.1434 15.1807 48.5924 14.7918L52.5829 11.3349C53.6527 10.4081 53.0808 8.65085 51.6705 8.53124L46.4201 8.08595C45.8288 8.03579 45.3138 7.66246 45.0822 7.11607L43.0271 2.26757C42.4758 0.966763 40.6322 0.966763 40.0809 2.26757L38.0258 7.11606C37.7942 7.66246 37.2792 8.03579 36.6879 8.08595L31.4375 8.53124C30.0272 8.65085 29.4553 10.4081 30.5251 11.3349L34.5156 14.7918C34.9646 15.1807 35.1611 15.7862 35.0262 16.3647L33.8281 21.4992C33.5065 22.8776 35.0013 23.964 36.213 23.2326L40.7272 20.508Z" fill="#13445A"/>
</g>
<g clip-path="url(#clip2_309_15)">
<path d="M69.7272 20.508C70.2357 20.2011 70.8723 20.2011 71.3808 20.508L75.895 23.2326C77.1067 23.964 78.6015 22.8776 78.2799 21.4992L77.0819 16.3647C76.9469 15.7862 77.1434 15.1807 77.5924 14.7918L81.5829 11.3349C82.6527 10.4081 82.0808 8.65085 80.6705 8.53124L75.4201 8.08595C74.8288 8.03579 74.3138 7.66246 74.0822 7.11607L72.0271 2.26757C71.4758 0.966763 69.6322 0.966763 69.0809 2.26757L67.0258 7.11606C66.7942 7.66246 66.2792 8.03579 65.6879 8.08595L60.4375 8.53124C59.0272 8.65085 58.4553 10.4081 59.5251 11.3349L63.5156 14.7918C63.9646 15.1807 64.1611 15.7862 64.0262 16.3647L62.8281 21.4992C62.5065 22.8776 64.0013 23.964 65.213 23.2326L69.7272 20.508Z" fill="#13445A"/>
</g>
<g clip-path="url(#clip3_309_15)">
<path d="M98.7272 20.508C99.2357 20.2011 99.8723 20.2011 100.381 20.508L104.895 23.2326C106.107 23.964 107.602 22.8776 107.28 21.4992L106.082 16.3647C105.947 15.7862 106.143 15.1807 106.592 14.7918L110.583 11.3349C111.653 10.4081 111.081 8.65085 109.67 8.53124L104.42 8.08595C103.829 8.03579 103.314 7.66246 103.082 7.11607L101.027 2.26757C100.476 0.966763 98.6322 0.966763 98.0809 2.26757L96.0258 7.11606C95.7942 7.66246 95.2792 8.03579 94.6879 8.08595L89.4375 8.53124C88.0272 8.65085 87.4553 10.4081 88.5251 11.3349L92.5156 14.7918C92.9646 15.1807 93.1611 15.7862 93.0262 16.3647L91.8281 21.4992C91.5065 22.8776 93.0013 23.964 94.213 23.2326L98.7272 20.508Z" fill="#13445A"/>
</g>
<g clip-path="url(#clip4_309_15)">
<path d="M127.727 20.508C128.236 20.2011 128.872 20.2011 129.381 20.508L133.895 23.2326C135.107 23.964 136.602 22.8776 136.28 21.4992L135.082 16.3647C134.947 15.7862 135.143 15.1807 135.592 14.7918L139.583 11.3349C140.653 10.4081 140.081 8.65085 138.67 8.53124L133.42 8.08595C132.829 8.03579 132.314 7.66246 132.082 7.11607L130.027 2.26757C129.476 0.966763 127.632 0.966763 127.081 2.26757L125.026 7.11606C124.794 7.66246 124.279 8.03579 123.688 8.08595L118.438 8.53124C117.027 8.65085 116.455 10.4081 117.525 11.3349L121.516 14.7918C121.965 15.1807 122.161 15.7862 122.026 16.3647L120.828 21.4992C120.506 22.8776 122.001 23.964 123.213 23.2326L127.727 20.508Z" fill="#13445A"/>
</g>
<defs>
<clipPath id="clip0_309_15">
<rect width="24" height="24" fill="white" transform="translate(0.554077 -0.0078125)"/>
</clipPath>
<clipPath id="clip1_309_15">
<rect width="24" height="24" fill="white" transform="translate(29.5541 -0.0078125)"/>
</clipPath>
<clipPath id="clip2_309_15">
<rect width="24" height="24" fill="white" transform="translate(58.5541 -0.0078125)"/>
</clipPath>
<clipPath id="clip3_309_15">
<rect width="24" height="24" fill="white" transform="translate(87.5541 -0.0078125)"/>
</clipPath>
<clipPath id="clip4_309_15">
<rect width="24" height="24" fill="white" transform="translate(116.554 -0.0078125)"/>
</clipPath>
</defs>
</svg>
