<svg width="25" height="25" viewBox="0 0 25 25" fill="none" xmlns="http://www.w3.org/2000/svg">
<path d="M9.96667 3.125H5.46875C4.84715 3.125 4.25101 3.37193 3.81147 3.81147C3.37193 4.25101 3.125 4.84715 3.125 5.46875V9.96667C3.125 10.5885 3.37187 11.1854 3.81146 11.624L13.7917 21.6042C14.5198 22.3323 15.6458 22.5125 16.5073 21.9479C18.6756 20.5277 20.5277 18.6756 21.9479 16.5073C22.5125 15.6458 22.3323 14.5198 21.6042 13.7917L11.625 3.8125C11.4073 3.59455 11.1488 3.42165 10.8643 3.30368C10.5797 3.18572 10.2747 3.125 9.96667 3.125Z" stroke="#F5F5F5" stroke-width="1.5" stroke-linecap="round" stroke-linejoin="round"/>
<path d="M6.25 6.25H6.258V6.258H6.25V6.25Z" stroke="#F5F5F5" stroke-width="1.5" stroke-linecap="round" stroke-linejoin="round"/>
</svg>
