<?xml version="1.0" encoding="UTF-8"?>
<svg id="Layer_1" data-name="Layer 1" xmlns="http://www.w3.org/2000/svg" viewBox="0 0 516.19 489.18">
  <defs>
    <style>
      .cls-1 {
        fill: #aaaaab;
      }

      .cls-1, .cls-2, .cls-3, .cls-4, .cls-5, .cls-6, .cls-7, .cls-8, .cls-9, .cls-10, .cls-11, .cls-12, .cls-13, .cls-14, .cls-15, .cls-16, .cls-17, .cls-18, .cls-19, .cls-20, .cls-21, .cls-22, .cls-23, .cls-24, .cls-25, .cls-26 {
        stroke-width: 0px;
      }

      .cls-2 {
        fill: #f4f4f5;
      }

      .cls-3 {
        fill: #adacae;
      }

      .cls-4 {
        fill: #bababa;
      }

      .cls-5 {
        fill: #e6e7e8;
      }

      .cls-6 {
        fill: #121213;
      }

      .cls-7 {
        fill: #18455b;
      }

      .cls-8 {
        fill: #fffefe;
      }

      .cls-9 {
        fill: #14445a;
      }

      .cls-10 {
        fill: #d6e2f3;
      }

      .cls-11 {
        fill: #97969a;
      }

      .cls-12 {
        fill: #fff;
      }

      .cls-13 {
        fill: #939598;
      }

      .cls-14 {
        fill: #a4a3a4;
      }

      .cls-15 {
        fill: #231f20;
      }

      .cls-16 {
        fill: #456978;
      }

      .cls-17 {
        fill: #f1f2f2;
      }

      .cls-18 {
        fill: #bcbec0;
      }

      .cls-19 {
        fill: #d1d3d4;
      }

      .cls-20 {
        fill: #a3a2a7;
      }

      .cls-21 {
        fill: #e5d0ac;
      }

      .cls-22 {
        fill: #fff4e9;
      }

      .cls-23 {
        fill: #212121;
      }

      .cls-24 {
        fill: #858486;
      }

      .cls-25 {
        fill: #971b49;
      }

      .cls-26 {
        fill: #4f959c;
      }
    </style>
  </defs>
  <path class="cls-21" d="m360.1,291.18l-.49,3.54-72.24,50.43-11.08.88s-2.82,3.14-2.31-1.18l.52-4.32,5.52,1.54s1.56.48,5.35-.78l3.79-1.26,7.3-4.98s60.82-43.08,62.22-43.47l1.41-.39Z"/>
  <polygon class="cls-12" points="8.59 160.21 45.62 160.21 54.11 200.06 69.65 199.59 89.22 193.38 103.56 186.39 110.97 180.13 115.62 176.84 120.23 178.1 121.34 181.32 115.62 190.76 114.65 194.29 120.38 196.01 128.82 195.07 137.86 191.31 142.73 191.85 145 195.48 142.57 198.6 128.62 205.07 138.23 204.46 140.45 204.08 142.39 205.07 143.63 206.7 142.75 209.24 140.45 213.04 138.29 213.04 139.71 215.09 135.86 218.55 128.62 223.03 120.63 225.19 103.89 225.19 91.54 227.12 69.16 233 46.67 236.38 37.89 236.38 27.02 230.99 21.1 223.45 17.7 205.51 13.39 184.44 8.59 160.21"/>
  <path class="cls-12" d="m370.22,68.56s36.65-8.9,37.73,0c2.9,23.87,0,25.07,11.86,27.64,3.32.72,1.19,13.7.86,13.55s-26.99,0-26.99,0l-12.8-1.9-4.44-2.92-2.29-5.92-1.75-4.5-2.17-25.95Z"/>
  <circle class="cls-5" cx="405.65" cy="81.33" r="5.21"/>
  <polyline class="cls-12" points="95.42 272.25 124.01 265.01 132.75 295.1 109.32 303.18 95 272.09"/>
  <path class="cls-10" d="m371.42,79.72c-.91,1.61.75,13.54.97,14.8-3.72.48-13.14-9.79-.97-14.8Z"/>
  <path class="cls-21" d="m3.08,150.6c.53-4.79,1.57-9.47,2.71-14.16,1.7-6.96,4.79-13.15,8.77-18.99.13-.19.33-.32.5-.48.25-1.38,1.2-2.3,2.15-3.22,2.27-1.94,4.8-3.46,7.45-4.82.94-.16,2.47-.5,3.41-.41,1.81.51,2.9.41,4.56-.28.21-.1.42-.17.64-.24,1.68-.41,3.39-.7,4.97-1.46,2.83-1.22,5.83-1.82,8.81-2.46,1.76.08,3.38-.46,4.97-1.12.41-.05.79.03,1.12.28,1.33,1.89,1.16,4.21,1.64,6.31,1.02,4.47,2.32,8.81,4.13,13.01.67,1.55,1.8,2.26,3.51,2.26,13.71,0,27.42,0,41.13-.02,2.46,0,2.94-.72,1.98-3.11-1.85-4.6-4.13-9.03-6.15-13.56-.44-.99-1.14-2.03.27-2.87,1.69-.5,2.86.67,4.19,1.32,1.64,1.08,3.46,1.75,5.28,2.46.23.09.44.21.64.35,1.19.83,2.61,1.11,3.92,1.63,3.06,1.2,4.69,3.42,4.94,6.6.2,2.6.95,5.1,1.31,7.67.33,2.39,1.29,4.61,2.94,6.58,2.69,3.22,4.56,6.99,6.26,10.81.82,1.85.13,2.69-1.88,2.54-.79-.06-1.57-.13-2.36-.16-4.97-.17-9.93-.29-14.45,2.31-3,.17-2.95.18-3.04,3.11-.22,7.09.58,14.15.6,21.25.01,2.96.32,5.96.35,8.95.02,1.74-.74,2.98-2.14,3.96-5.26,3.7-11.14,6.18-16.99,8.73-4.62,2.02-9.42,3.54-14.29,4.68-4.18.98-8.38,2.25-12.78,1.94-2.09.51-4.21.52-6.33.4-2.22-.12-2.88-.83-3.2-2.98-.87-5.82-2.27-11.54-3.38-17.31-.61-3.15-1.04-6.34-1.7-9.49-.48-2.29-1.1-4.57-1.32-6.93-.12-1.28-.19-2.5.74-3.79-1.37-.13-2.58-.1-3.79-.1-12.51,0-25.02,0-37.53,0-3.82,0-4.11-.32-4.11-4.22.03-1.81,2.09.84,1.55-4.98Z"/>
  <path class="cls-25" d="m398.32,103.18c4.37,3.88,9.29,5.04,14.69,2.53,3.99-1.84,6.45-4.97,6.81-9.51,2.98-.5,5.71.64,8.5,1.32,4.11,1,8.27,1.74,12.37,2.72,1.89.45,4.11.59,5.07,2.82-.27.27-.58.5-.95.61-2.94.45-4.35,2.76-5.64,4.98-3.33,5.75-3.07,12.08-2.62,18.41.02.3.18.6.64.84.44-.91.15-1.81.06-2.7-.49-4.76-.14-9.43,1.51-13.95.85-2.32,2.08-4.42,4.04-6.01,1.21-.52,2.12-1.43,3.06-2.31.76-.46,1.57-.43,2.23.07,2.31,1.76,4.89,3.19,6.94,5.28,11.54,11.74,23.25,23.29,34.87,34.95,5.22,5.24,10.48,10.45,15.69,15.71,5.91,5.96,7.77,13.03,5.7,21.22-2.22,8.81-8.05,13.67-16.57,15.89-5.08,1.32-10.26,2.17-15.38,3.29-6.27,1.37-12.51,2.98-18.87,3.94-3.56.54-3.94.23-4.11-3.4.74-4.74,1.23-9.51,1.82-14.26.9-7.25,1.57-14.52,2.81-21.73.3-1.75,1.01-2.58,2.8-2.85,2.75-.43,5.5-.38,8.25-.37,4.48.02,8.97.12,13.87-1.06-3.51.11-6.54-.19-9.56.36-3.04.55-5.55-.65-7.85-2.47-1.26-.99-2.43-2.12-4.23-2.82.74,1.28,1.79,1.69,2.65,2.33.77.57,1.76,1.16,1.45,2.21-.28.97-1.41.82-2.26.87-1.18.07-2.36.02-3.53.24-1.72.32-2.66,1.21-2.54,3.07.1,1.58-.17,3.14-.49,4.69-.51,2.53-1.1,2.76-3.57,2.24-9.07-1.92-15.46-7.81-21.47-14.29-1.5-1.62-2.95-3.27-4.18-5.12-1.24-1.85-2.67-3.46-5.15-3.78-1.52-.2-2.04-1.58-2.46-2.9-.99-3.16-2.08-6.28-3.26-9.37-1.46-3.8-4.25-5.61-8.24-6.05-2.99-.33-5.97-.34-8.96-.42-13.06-.32-26.11-1.24-39.18-.95-.63.01-1.26-.04-1.85-.3-1.23-1.04-.48-1.97.23-2.81,3.88-4.61,8.04-8.94,12.49-13,1.97-1.79,4.2-3,7-2.64,6.05,1.05,11.24-.62,15.6-4.94.46-.46.89-1.2,1.75-.59Z"/>
  <path class="cls-23" d="m458.88,68.13c-4.77,7.05-14.11,8.8-22.09,7.15-7.53-1.55-13.14-6.24-18.55-11.27-.74-.69-3.84-3.38-3.85-4.64-.01-1.59-.83-2.81-2.26-3.58-.31-.26-.67-.4-1.06-.48-.69-.14-1.49-.52-1.99.12-.59.76.36,1.22.64,1.81h0c1.28,1.87,1.8,4.02,2.34,6.17h0c.84,4.7.91,9.38-.55,13.99-.3.96-.92,1.19-1.79.64h-.01c-3.18-2.55-4.65-2.63-7.96-.3-.64.45-1.24.62-1.97.48-1.1-.18-2.2-.34-2.88-1.39-1.38-2.7-3.42-3.64-6.48-2.95-1.8.4-3.76.09-5.65.07-3.38-.72-6.69-1.6-9.41-3.91-.8-.86-1.25-.63-1.59.43-.67,2.07-1.5,4.08-2.69,5.93-.62.96-1.3,1.58-2.41.64-1.35-1.01-2.81-1.88-3.87-3.25-2.8-4.15-1.95-8.96,2.34-11.81,2.19-1.63,5.19-.55,7.4-2.23.89-.67,1.97-1.09,2.96-1.62,1.52-.9,3.26-1.34,4.74-2.33h0c1.64-.68,3.11-1.72,4.8-2.29,1.5-.22,2.67-1.38,4.22-1.45,3.26-.55,6.44-2,9.86-.61,1.13.46,1.45-.4,1.5-1.43.07-1.47.13-2.94.3-4.42.44-3.68,3.05-5.55,5.51-7.65,5.29-3.54,10.91-4.87,17.07-2.52,2.22,1.52,3.81,3.67,5.64,5.59,1.13,1.18,2.24,2.4,3.64,3.29,4.02,2.61,8.44,2.11,12.85,1.64.14.08.26.06.38-.05,1.7-.6,3.45-1.14,5.22-1.33,5.43-.57,7.84,2.01,9.18,6.61,1.5,5.15.82,10.39-2.03,15.16-.41.7-.91,1.27-1.52,1.78Z"/>
  <path class="cls-23" d="m157.09,458.41c-.06,8.74.25,17.49-.36,26.22-.17,2.51.26,3.04,2.8,3.04,28.3,0,56.6,0,84.9,0,2.87,0,3.05-.17,3.05-3.12.01-6.78,0-13.56,0-20.34,0-.71.02-1.42.13-2.11.08-.5.44-.85,1-.81.6.04.75.5.77,1,.03.55.02,1.1.02,1.65,0,7.17,0,14.35,0,21.52q0,3.7-3.61,3.7c-44.7,0-89.4,0-134.09,0-31.61,0-63.22.02-94.84.02-3.64,0-3.59,0-3.58-3.72.02-19.08.02-38.15.02-57.23,0-41.94,0-83.87.01-125.81,0-.82-.37-1.75.47-2.43.51.33,1.26.29,1.52,1-.04,1.18-.1,2.36-.1,3.54,0,57.47,0,114.94,0,172.41,0,.79.02,1.58.02,2.36-.01,1.9.81.56,1.35.36.99,1.44.2,2.71-.42,3.97-.38.77-.99,1.43-1.25,2.27-.32,1.02,0,1.69,1.11,1.89,1.09.2,2.2.17,3.3.17,32.4-.04,64.8.04,97.2.05,1.25,0,2.54.14,3.66-.64,1.21-.46,2.47-.38,3.72-.38,6.82,0,13.65-.13,20.46.05,3.32.09,6.49-.49,9.67-1.18.59.11.86.63,1.43,1.19.01-6.82.06-13.45-.02-20.08-.03-2.38.45-4.69.59-7.04.04-.64.05-1.49,1.07-1.53Z"/>
  <path class="cls-18" d="m96.08,294.71c.79-.19,1.12.41,1.48.91,1.11,1.53,2.5.96,3.76.4,1.25-.56,1.46-1.66,1.15-2.95-.23-.98-.52-1.97-.32-3,1.26-.2,1.38.88,1.58,1.59.97,3.44,3.51,5.89,5.4,8.74.68,1.03,1.54,1.11,2.62.45,2.27-1.4,4.67-2.55,7.18-3.45,1.17-.42,1.49-.42,2.95-.64.83-.13,1.72-.94,2.48-.5-.28.7-1.22-.59-.16-.63,1.79-.07,3.53-.16,5.13-1.07.74-.04,1.49-.88,3.13-.46,1.23,1.01.06.23.29,1.57,1.29,4.04,2.34,8.15,3.46,12.23,1.14,4.14.13,5.43-3.71,7.32-5.23,2.57-10.6,2.62-16.12,1.8-3.03-.45-6.14-.14-9.11-1.16-.73-.25-1.56-.1-2.3.24-1.64-3.59-4.15-6.7-5.77-10.32-.57-1.28-1.11-2.53-.72-3.83.76-2.5.23-4.44-1.87-5.98-.15-.85-.61-.72-.54-1.24Z"/>
  <path class="cls-23" d="m456.55,204.72c-.29.09-.58.18-.87.27-2.35-.03-1.37-1.88-1.67-3.03-.04-.62.02-1.25.11-1.87.35-2.5.1-2.99-2.35-3.03-2.61-.05-5.12-.69-7.68-1-1.35-.17-10.13-1.64-10.74-3.58,2.41-1.23,4.82-.2,7.14.24,4.26.8,8.61.78,12.84,1.7,1.3.28,1.84-.43,2.11-1.6.4-1.7.54-3.42.71-5.14.46-4.44,1.29-8.84,1.59-13.3.08-1.21-.09-2.14-1.54-2.45-8.48-1.83-15.21-6.57-21.1-12.72-2.56-2.67-4.98-5.47-7.19-8.45-.79-1.07-1.7-2.35-3.28-1.48-1.44.8-1.6,2.22-1.16,3.73.63,2.12,1.58,4.11,2.31,6.19.41,1.17.96,2.38.09,3.6-1.19.1-1.39-.89-1.64-1.63-1.07-3.23-2.91-6.24-2.93-9.79,0-.84-.62-1.39-1.12-1.99-.83-1-1.42-2.07-.75-3.41.84-.81,1.09.6,1.96.44-1.4-4.33-2.59-8.7-4.69-12.72-1.01-1.93-2.87-2.88-5-3.12-1.57-.18-2.85.96-2.91,2.42-.07,1.81,1.01,2.26,2.58,2.22,1.17-.03,2.36-.09,3.53.08,2.83.42,4.42,3.45,3.26,6.19-1.12-.06-1.24-1.03-1.56-1.77-1.16-2.65-5.63-3.69-7.92-1.8-.25.2-.46.4-.81.34-1.82-1.53-2.04-3.61-1.9-5.76.15-2.37.08-2.53-2.37-2.56-4.09-.05-8.17-.06-12.26,0-11.16.16-22.27-1.35-33.43-.98-.55.02-1.1-.06-1.62-.27-1.37-1.49.6-1.25.96-1.85.13-.08.27-.1.42-.08,1.13-.82,2.26-.95,3.39-.01,3.15.04,6.3.05,9.45.13,12.5.31,25.01.58,37.51,1.01,2.07.07,4.19.15,6.26.84,5.27,1.76,6.03,6.6,7.67,10.84.64,1.67,1.02,3.44,1.62,5.13.3.85.61,2,1.76,1.92,2.58-.18,3.86,1.57,5.08,3.27,4.25,5.9,9.3,10.97,15.15,15.29,3.55,2.62,7.76,3.64,11.84,4.95,1.15.37,1.39-.81,1.49-1.65.23-1.95.49-3.91.48-5.86-.01-1.54.58-2.24,2-2.65,1.48-.43,2.96-.33,4.45-.42.74-.05,1.84.39,2.12-.38.33-.92-.88-1.1-1.46-1.55-.99-.76-2.02-1.49-2.99-2.27-.43-.35-.86-.82-.47-1.41.49-.75,1.03-.31,1.62-.01,1.76.91,3.23,2.21,4.74,3.45,2.07,1.7,4.37,2.42,7.02,1.98,3.21-.54,6.44-.24,9.67-.32.62-.02,1.65-.25,1.57.85-.06.85-.97.56-1.54.65-6.16,1.04-12.38.85-18.6.93-5.15.06-5.19.06-6.22,4.94-.37,1.76-.57,3.56-.78,5.35-.86,7.46-1.7,14.93-2.55,22.39-.23,2.03-.99,3.97-.92,6.05-.4,1.03-.31,2.07,0,3.1.18.62.38,1.2-.46,1.48Z"/>
  <path class="cls-23" d="m336.43,222.9c-3.18,3.87-6.37,7.73-9.53,11.61-.51.63-1.12.82-1.88.64-1.58-1.07-3.32-1.72-5.22-1.97-.73-.23-1.15-.79-1.48-1.43-2.66-5.03-6.36-9.35-9.66-13.93-4.99-6.95-9.44-14.29-14.8-20.98-.45-.56-.69-1.23-.82-1.94-.19-1.65,1.82-1.19,2.2-2.3,6.37-6.69,12.77-13.36,19.11-20.07,10.18-10.77,20.32-21.58,30.49-32.35.87-.93,1.52-2.12,2.84-2.56.46.05.91.14,1.18.59.3,1.08-.59,1.57-1.16,2.15-8.47,8.58-16.42,17.64-24.92,26.2-4.71,4.74-9.17,9.74-13.73,14.64-3.75,4.04-7.59,8.01-11.53,11.86-1.31,1.28-1.27,2.22-.29,3.61,4.42,6.23,8.84,12.45,13.11,18.79,2.28,3.39,4.96,6.48,6.93,10.12,1.56,2.89,4.63,4.45,7.18,6.4,1.02.78,1.91,0,2.59-.87,7.03-9,14.35-17.77,21.62-26.58,4.61-5.58,9.05-11.31,13.83-16.75,1.14-1.3,2.27-2.67,3.64-3.77,1.05,1.55,1.16,2.98.38,4.96-.54.69.42,1.66.45,2.42.25,6.26-.56,12.49-.54,18.74,0,1.13.4,10.84-1.45,11.14-1.12-.76-.83-10.14-.83-11.19-.04-5.87,0-11.73-.05-17.6,0-.46.68-2.01-1.01-1.12-6.81,8.43-13.67,16.83-20.48,25.27-.79.98-1.73,1.83-2.61,2.72-.54,1.83-2.21,2.53-3.54,3.56Z"/>
  <path class="cls-7" d="m164.67,243.64c-2.24.51-4.15-.73-6.14-1.29-9.64-2.67-19.21-5.56-28.82-8.32-6.61-1.9-13.24-3.72-19.86-5.57-.97-.64.53-3.56-1.6-2.84,1.14-1.59.34-.06,1.28-.13,3.67-.97.97,1.06,4.74,1.58,2.88.07,4.34,1.69,6.61,2.24,4.98,1.23,9.83,2.83,14.71,4.35,7.74,2.42,15.66,4.17,23.38,6.64,1.99.63,2.63.04,2.64-2.29.03-7.16-.28-14.33-.57-21.47-.49-12.08-.82-24.17-1.19-36.26-.14-4.63-1-9.26-.43-13.9.22-1.8-.88-2.4-2.25-2.75-9.39-2.33-18.64-5.19-27.94-7.84-5.9-1.68-11.81-3.34-17.69-5.1-2.24-.67-2.45-.53-2.45,1.81,0,6.06-.23,12.12.79,18.14.46,2.71.05,5.5.18,8.25.51,1.1.5,1.03-.7,2.15-.36.45-.75,0-1.34.07-1.33.04-.8,1.13-.82.05-.03-2.75-.08-5.51-.08-8.26.02-8.34-1.04-16.65-.5-24.99,1.47-1.4,3.12-.91,4.7-.34.87.31,1.66.81,2.63.76,3.46.46,6.68,1.79,9.99,2.78,8.36,2.5,16.81,4.7,25.13,7.32,4.42,1.39,8.98,2.35,13.23,4.3.34.35.62.75.6,1.24-.19,6.77.22,13.53.67,20.27.77,11.56-.07,23.16.98,34.7.48,5.28.3,10.55.39,15.82-.03,2.57-.39,5.14.3,7.68.14.53-.11.9-.56,1.15Z"/>
  <path class="cls-23" d="m295.24,192.61c.2,1.46-1.97.96-1.9,2.31-1.26.01-1.66-1.07-2.22-1.85-3.76-5.15-7.26-10.48-11.05-15.62-2.98-4.04-4.75-4.3-8.81-1.24-11.51,8.68-23.58,16.56-35.38,24.82-10.06,7.04-20.16,14.04-30.02,21.36-3.83,2.84-5.79,6.86-6.18,11.9-.48,6.28,2.63,10.91,5.95,15.48,3.83,5.29,7.47,10.71,11.33,15.98,4.04,5.53,7.59,11.41,12.01,16.66.3,1.06.09,2.25-.38,3-2.74-2.72-5.22-6.65-7.42-9.76-5.82-8.23-11.59-16.5-17.34-24.77-2.62-3.76-5.39-7.36-6.44-12.09-.71-3.22,0-6.05.71-9,.65-2.71.67-2.75-2.2-2.74-2.66.02-5.34-.3-7.95.53.22-1.64,1.38-2.41,2.75-3.01,2.53.85,5.11.48,7.68.37.72-.03,1.39-.36,1.86-.92,4.2-5.03,10.01-7.98,15.12-11.83.56-.42,1.14-.83,1.71-1.25.83-1.35,2.5-1.31,3.61-2.21,5.3-4.21,11.03-7.82,16.52-11.77,10.98-7.91,22.14-15.54,33.24-23.29,2.57-1.79,5.17-3.09,8.29-1.38.97.57,2,1.04,2.83,1.82-.35,2.52,1.72,3.94,2.82,5.7,2.52,4.01,5.44,7.78,8.21,11.63.64.89,1.29,1.87,2.65,1.16Z"/>
  <path class="cls-23" d="m3.1,155.21c0,.47.08.95.02,1.42-.27,1.91.59,2.37,2.41,2.36,13.71-.08,27.42-.05,41.13-.05.79,0,1.58.02,2.36.05.42.02.8.2.82.67.02.47-.35.7-.77.7-1.78,0-1.58,1.23-1.37,2.31.75,3.87,1.64,7.71,2.36,11.58.68,3.66,4.13,21.3,4.16,21.85.17,3.56,1.58,3.62,9.13,3.04-.15,1.62-1.58,1.56-2.63,1.62-2.2.11-4.41-.09-6.61.18-1.18-.1-1.54-1.01-1.75-1.94-1-4.37-1.98-8.74-2.7-13.18-.81-5.04-1.81-10.08-3-15.05-.57-2.39-.6-4.83-1.21-7.21-.49-1.89-1.47-2.48-3.34-2.47-10.64.05-21.28.05-31.92.02-1.44-.32-1.16,1.34-1.98,1.74-.23.04-.42-.04-.57-.22-.37-.75-.5-1.8-1.77-1.47-1.41.04-1.94.85-1.94,2.15,0,.39-.02.79-.02,1.18,0,19.39,0,38.77,0,58.16,0,.63.03,1.26.12,1.88.11.65.52.93,1.14.94,4.69.04,9.38.19,14.06-.09,1.27-.07,2.49-1.04,3.72.09,2.67,3.41,5.65,6.46,9.67,8.32,1,.46,2.05.76,3.08,1.13.82.29,10.87.23,10.98,1.48,2.92,2.32-11.2.42-12.32.17-5.27-1.38-9.02-4.84-12.3-8.95-1.01-.78-2.19-.75-3.38-.76-5.66-.07-11.33.18-16.99-.13l-.06-.02c-.51-.87-.37-1.84-.37-2.77,0-50.82,0-101.65.01-152.47,0-.94-.42-2.61.65-2.62,1.23-.01.72,1.64.72,2.55.03,25.45,0,50.9.06,76.35,0,2.49-.32,5.02.4,7.49Z"/>
  <path class="cls-23" d="m294.36,74.78c-.74-.51-1.58.88-2.51.88-2.74.01-5.49,0-8.23.04-.79.01-1.82-.28-2.08.97-.64.32-1.24.03-1.86-.08-1.09-.25-2.19-.21-3.3-.21-18.13,0-36.25,0-54.38,0-.39,0-.79-.01-1.18,0-2.17.08-2.39.36-1.7,2.38.9,2.59.93,5.09-.49,7.51-.49.83-1.08,1.71-1.99,1.94-2.19.54-4,1.77-5.42,2.75,1.76-.71,4.12-1.12,6.39-1.85,3.49-1.12,6.75,0,8.14,2.51,1.53,2.76.84,6.31-2.01,8.68-7.3,6.09-15.23,11.18-24.1,14.69-2.06.82-3.39,1.95-3.89,4.27-.53,2.46-.87,4.97-1.63,7.38-.46,1.44-3.92,7.46-5.79,7.63-.69-.94,3.2-4.82,3.35-5.69.65-3.87.8-8.21,1.81-12.01.48-1.8,1.43-2.83,3.14-3.44,9.15-3.29,17.04-8.74,24.73-14.53.94-.71,1.84-1.49,2.15-2.73.7-2.82-1.47-4.95-4.47-4.2-1.83.46-3.65.97-5.45,1.54-2.3.72-4.67.77-7.02.55-4-.39-6.53-3.66-5.9-7.59.96-6.02,4.43-10.65,8.41-14.99.22-.24.53-.32.86-.34.86,1.02,2.54,1.04,3.07,2.48-1.8.74-3.52,1.54-4.64,3.31-.64,1.01-.98,1.69.19,2.54,1.48,1.09,2.46,2.63,3.3,4.23.68,1.31,1.35,2.62,3.14,2.14,1.09-.29,2.06-2.88,1.62-4.29-.58-1.85-.67-3.88-2.11-5.41-.42-.45-.67-1.1-.08-1.69.53-.12,1.04,0,1.56.12,6.61-.38,13.22-.15,19.83-.17,13.46-.04,26.92-.11,40.38.04,5.81.06,11.62-.38,17.43.12.3.1.54.27.74.51Z"/>
  <path class="cls-23" d="m273.42,342.48c-.43-1.07.9-1.47.89-2.38.52-.45,1.03-.19,1.55,0,4.57,1.68,8.72.96,12.69-1.88,8.58-6.13,17.26-12.11,25.85-18.22,7.63-5.42,15.3-10.78,23.01-16.08,6.34-4.36,12.5-8.99,18.99-13.13.7-.12.94-.66,1.21-1.22.29-.6.71-1,1.43-.6,1.65.67,2.7,2.83,2.17,4.78-.46,1.68-1.23,3.19-2.75,4.25-11.53,8.09-23.03,16.23-34.57,24.31-10.24,7.17-20.6,14.18-30.78,21.44-5.51,3.93-11.45,4.93-17.86,3.43-1.86-.44-2.92-.51-2.85,1.76.01.39-.06.79-.43,1.04-.27-1.8.06-3.41,1.45-4.7.39-.35.87-.44,1.33-.27,3.07,1.14,6.25.51,9.37.62,1.99.07,3.66-.93,5.24-1.96,5.54-3.62,10.85-7.57,16.32-11.3,9.69-6.61,19.15-13.55,28.78-20.24,7.57-5.25,15.33-10.23,22.6-15.9,1.08-.84,2.1-1.71,1.55-3.53-2.94,1.49-5.52,3.42-8.12,5.24-8.07,5.63-16.17,11.23-24.18,16.96-8.39,6-16.83,11.91-25.33,17.75-3.77,2.59-7.56,5.15-11.22,7.87-4.32,3.22-9.03,2.71-13.8,2.28-.83-.08-1.68-.27-2.53-.3Z"/>
  <path class="cls-7" d="m190.63,225.12c-.89.95-1.79,1.89-2.68,2.84-4.45,4.94-8.92,9.87-13.35,14.84-.79.89-1.59,1.32-2.85,1.24-2.35-.14-4.72-.03-7.08-.03-.52-2.82-.57-5.66-.45-8.51,1.38.38,1.04,1.56,1.09,2.49.21,4.01.19,4.01,4.11,3.61.63-.06,1.25-.1,1.85.11q.38.83-.74.94c2.85.3,3.81-.56,3.6-3.22,7.79-8.13,15.25-16.55,22.71-24.97,1.36-1.53,2.85-2.94,4.21-4.47,1.16-1.31,1.57-2.71.88-4.35-.41-.97-.56-1.97-.54-3,.31-12.92-.16-25.85-.69-38.74-.37-9.03-.59-18.05-.75-27.08-.01-.61.16-1.43-.47-1.73-.84-.4-1.23.5-1.66.98-7.44,8.35-15.21,16.4-22.61,24.79-.99,1.13-2.01,2.23-3.49,2.74-1.27.23-9.93.83-11.19.47-.7-.39-.42-1.42.28-1.63,3.56-1.03,8.04,2,14.43-5.99,7.05-7.7,14.11-15.4,21.24-23.02.86-1.15,1.7-2.31,2.65-3.4,2.39-1.56,3.61-1.08,3.54,1.7-.13,5.29.36,10.54.6,15.8.56,12.11.15,24.24.95,36.34.5,7.62.38,15.26.88,22.87.15,2.18-.55,3.99-2.06,5.57-3.48,3.65-6.58,7.64-10.18,11.18-.66.65-1.23,1.46-2.26,1.62Z"/>
  <path class="cls-23" d="m456.55,204.72c.54-1.49-.69-3.15.46-4.57.09,3.03.29,3.11,3.28,2.61,6.17-1.02,12.23-2.59,18.36-3.8,4.43-.88,8.87-1.83,13.3-2.74,4.89-1,9.64-2.67,13.3-6.33,2.67-2.67,4.61-5.78,5.34-9.63.3-1.58.83-3.09.91-4.76.32-6.85-2.4-12.31-7.17-17.03-12.94-12.82-25.81-25.7-38.69-38.58-3.82-3.81-7.35-7.94-11.43-11.45-2.5-2.15-4.8-5-8.54-5.29l.02.02c-1.53-1.44-3.48-1.91-5.45-2.39-5.11-1.24-10.36-1.89-15.39-3.56-1.58-.52-3.39-.5-5.03-1.01,1.32-1.58,2.97-.73,4.4-.43,4.92,1.04,9.77,2.39,14.69,3.38,5.33,1.07,10.14,3.1,14.4,6.49,4.36,3.47,8.09,7.61,11.98,11.55,8.13,8.22,16.43,16.28,24.59,24.47,5.57,5.59,11.22,11.11,16.7,16.78,11.76,12.15,7.4,31.56-8.44,37.58-1.74.66-3.65.91-5.49,1.28-9.91,2.01-19.81,4.04-29.65,6.38-1.98.47-4,.79-6,1.19-.16-.04-.31-.09-.47-.13Z"/>
  <path class="cls-23" d="m114.59,148.48c-.8.2-2.29-.07-2.89-.59-1.46-1.26-3.02-.32-4.72-.2-.24-.74.3-.71.76-.77.68-.09,1.41.2,2.05-.23,5.29-3.33,11.12-2.53,16.88-2.16.45.03.93.41,1.29-.04.38-.48.23-1.04-.04-1.55-2.11-4.08-3.99-8.29-7.14-11.76-1.5-1.66-2.14-3.84-2.31-5.96-.22-2.67-1.2-5.18-1.27-7.88-.1-4.01-3.09-5.46-6.3-6.58-.95-.33-2.03-.4-2.52-1.49.31.02.61.04.92.06,1.03.07,1.96,1.69,3.08.23,1-1.3.89-2.74.4-4.19-.24-.72-.85-1.34-.6-2.19,1.77,1.34,2.06,3.14,1.6,5.16-.22.95-.47,1.85.8,2.33,12.59,4.75,19.85,14.91,26.36,25.89,2.92,4.93,5.05,10.22,7.62,15.3.51.72,1.64.24,2.1,1.07.19.7-.11,1.18-.68,1.55-1.06.42-1.99-.06-2.94-.41-6.26-2.27-12.6-4.33-18.83-6.68-5.09-1.92-10.1-1.81-15.13.17.18.55,1.68.1,1.5.91Z"/>
  <path class="cls-23" d="m398.58,76.42c.58.91.49,1.12,1.31,1.57-.36.6-1.12.08-1.53.54-.48.64-.96,1.27-1.44,1.91-.9,1.67-.41,3.46-1.06,5.33-.62,2.16-1.75,3.58-3.6,4.68-2.16,1.15-4.41,1.12-6.7.45-1.19-.31-2.37-1.17-2.95-1.9-.63-.48-.93-1.02-1.74-2.39-.06-.1-.42.03-.51.11-.57,4.26-2.32,7.5-5.71,8.04-.93.15-1.07,1.08-.82,1.83,1.07,3.18,2.24,6.94,4.65,8.96-.38.45-1.05-.66-1.24.3-2.42-2.51-3.24-5.74-4.29-8.91-.46-1.37-1.7-1.71-3.26-2.11-3.24-.83-5.27-4.08-5.36-7.46-.08-2.96.66-6.04,5.84-8.02.62-.57-.14-2.06-.5-2.81.52-.22.23.91.67.08,1.1-2.12,2.46-4.12,2.83-6.56.09-.6.07-1.33.87-1.47.79-.14,1.35.23,1.61,1.01-1.96,1.96-2.94,4.42-4.03,6.79-.37.81.18,2.57.59,2.98,2.99-.32,6.88,1.23,7.6,4.11.12.49.44,1.54.47,2.14.01.23.27-.08.35.03-.11-2.83-.8-7.62,5.43-9.29,1.48-.19,2.54-.46,4.27-.16,1.88.59,2.79,1.1,3.97,2.38,1.57,2.62,1.83.48,2.51-.51.29-.43,1.31-1.39,1.81-1.65Z"/>
  <path class="cls-23" d="m19.89,470.22c.29,1.09-.46,2.34.5,3.33.89,1.3.25,2.59-.1,3.85-.62,2.2-1.4,4.34-2.08,6.53-.54,1.76.15,2.34,1.8,2.24,1.73-.1,3.46-.14,5.19-.1,25.11.48,50.22.41,75.33.56,5.73.03,11.48.34,17.22.4.86,0,1.75.01,2.41.72-.42,1.56-1.7.85-2.56.85-30.83.05-61.65.06-92.48.07-2.92,0-5.83.02-8.75,0-.91,0-2.05.34-2.47-.83-.35-.98-.25-1.99.45-2.9,1.2-1.55,1.81-2.81,1.7-4.92,1.12-3.14,2.25-6.82,3.83-9.8Z"/>
  <path class="cls-23" d="m239.4,74.94c-.01-.13-5.69-.14-5.7-.27,1.11-1.06,8.18-.88,9.48-.89,14.65-.02,29.3-.01,43.94-.02.79,0,1.58.01,2.36,0,3.54-.1,4.45-.99,4.46-4.56.03-13.07,0-26.14.01-39.22,0-6.46,0-12.91,0-19.37,0-1.18-.08-2.37.24-3.52.14-.36.46-.95.7-.79,1.23.77-7.33-4.5-1.79-4.77,3.87.38,3.84,5.72,3.85,6.68.03,7.47.02,14.94.02,22.41,0,13.29-.02,26.58,0,39.88,0,2.36-.96,4.04-3.13,5.01-.22-.05-1.24.45-1.46.4-5.34-.35-9.9-.59-15.25-.63-11.74-.09-23.49-.02-35.23-.04-.84,0-1.73.29-2.52-.28Z"/>
  <path class="cls-23" d="m367.12,188.79c.26-1.79-.92-3.15-1.41-4.72-1.01-.53-1.23-1.54-1.59-2.5-3.4-9.11-6.29-18.39-9.54-27.55-1.44-4.05-2.79-8.14-4.18-12.21-.43-1.25-.76-2.56-1.66-3.6-.43-.05-.83-.16-1.06-.59.27-.32.55-.64.82-.96.82-.52,1.36-1.78,2.67-1.01,2.18,2.98,2.91,6.59,4.09,9.98,4.39,12.61,8.51,25.32,12.81,37.97,1.19,3.49,2.55,6.93,3.61,10.46.42,1.41,1.37,1.91,2.76,2.14,3.76.61,7.53.39,11.3.44.86.01,1.75-.07,2.56.29.52.23,1.05.57.29,1.17-2.4.72-4.87.56-7.25.24-1.95-.26-3.87-.31-5.62-.33.31-.04.82,0,1.32,0,3.79,0,3.87-.03,5.26,3.59.7,1.82,1.83,2.55,3.74,2.54,9.52-.06,19.02.74,28.54.48,4.16-.11,8.31.67,12.49.51.81-.03,1.79-.03,2.14,1.06-.69.86-1.68.79-2.6.78-6.37-.07-12.74-.03-19.11-.12-7.39-.1-14.74-.8-22.13-.82-3.61,0-4.35-.54-5.32-4.01-.5-1.78-1.49-2.7-3.36-2.59-.47.03-.94,0-1.42,0-4.92-.02-5.58-.44-7-5.17-.53-1.77-1.41-3.51-1.14-5.47Z"/>
  <path class="cls-23" d="m150.41,152.85c-.73-.11-1.76.33-1.85-.99,1.29.16,1.83-.66,2.18-1.7,4.28-12.7,9.19-25.17,13.93-37.69,2.52-6.65,6.15-12.76,9.84-18.82,3.6-5.9,7.82-11.3,12.43-16.42.3-.33,1.77-1.22,1.21-1.47-.52-.23-1.44,0-1.88-.01-2.05-.03-4.09-.03-6.14-.05-.86-.01-3.1-.48-3.59-1.46-6.91-8.64,9.14.46,14.13,1.44.25,1.32-.78,1.98-1.49,2.76-10.22,11.14-18,23.79-23.4,37.9-4.32,11.3-8.46,22.67-12.88,33.93-.63,1.61.43,2.69.44,4.04-1.68.93-2.19-.51-2.95-1.45Z"/>
  <path class="cls-23" d="m158.53,402.59c6.18.02,8.34.25,3.23.36-3.56.08-3.58.03-3.57,3.52.05,17.32-.98,34.62-1.11,51.94-.93,1.72-.76,3.7-.81,5.48-.23,7.62-.11,15.26-.08,22.89,0,.81.57,1.85-.92,1.84-1.6-.02-.43-1.12-.63-1.69-.07-.21-.21-.41-.32-.61-.63-.61-.69-1.39-.61-2.19.48-4.4.1-8.82.25-13.23.55-16.68.97-33.37,1.06-50.06.03-4.94.28-9.91.36-14.87.01-.87,0-1.74.34-2.56.7-1.06,1.67-1.2,2.79-.82Z"/>
  <path class="cls-23" d="m280.09,76.19c.48.16.97.32,1.45.48,0,32.48.01,64.96.02,97.44-1.2.04-2.06-.66-2.91-1.37.67-1.64.68-3.37.68-5.1,0-29.05-.01-58.09.01-87.14,0-1.46-.36-3.02.75-4.3Z"/>
  <path class="cls-15" d="m471.92,220.63c-.58-.05-1.94-.99-4.06,0,.06-.76-.8.76-.3.76,2.26-.02,4.53-.01,6.8-.15-3.71-.66-7.6.43-11.19-1.19,16.08,0,32.17-.05,48.25.04,2.29.01,2.97-.62,2.89-2.9-.17-4.72-.07-9.46-.03-14.19,0-.79-.38-2.04.86-2.1,1.27-.06.99,1.19.99,1.99.03,5.52-.04,11.04.06,16.56.04,1.97-.92,2.45-2.59,2.44-3.86-.02-7.73,0-11.59,0-10.64,0-21.29,0-31.93.02.9-1.19,2.39-2.51,1.84-1.25Z"/>
  <path class="cls-23" d="m280.03,308.44c.08-.56.04-1.01.17-2.45,9.15-6.51,18.48-12.9,27.66-19.38,9.62-6.8,19.27-13.56,29.04-20.15,1.32-.89,2.66-1.69,4.31-1.71.79.05,1.22-.32,1.97.32.47.33,1.28.81,1.72,1.29.35.29.33.63.14,1-.39.35-.87.44-1.37.44-2.31-.73-4.32-.06-6.2,1.31-8.85,6.43-17.86,12.63-26.84,18.88-9.69,6.74-19.21,13.74-29.14,20.13-.33.22-.68.4-1.08.43-.1-.05-.28-.06-.38-.11Z"/>
  <path class="cls-23" d="m109.47,225.98c-.65.08-17.7,2.09-21.06,3.12-2.32.71-4.57,1.73-6.94,2.23-6.73,1.42-13.39,3.12-20.22,4.09-5.43.77-10.81,1.87-16.31,2.04-.77-.8-2.41.26-2.82-1.32.57-.69,1.38-.74,2.16-.72,2.38.06,4.69-.56,7.02-.73,7.55-.57,14.88-2.37,22.26-3.85,5.94-1.19,11.74-2.93,17.57-4.53.61-.17,1.19-.52,1.81-.53,5.89-.12,11.7-1.45,17.62-1.22.47.02.94.12,1.36.35.49.42.39.79-.19.93-.73.18-1.51-.03-2.26.13Z"/>
  <path class="cls-23" d="m104.99,316.08c.13-1.19.84-1.31,1.84-1.04,4.79,1.31,9.77,1.07,14.64,1.73,5.11.7,9.53-1.44,13.71-3.81,1.62-.92.77-3.38.41-5.04-.68-3.09-1.84-6.07-2.52-9.15-.24-1.08-.54-3.26-.9-4.34.36-.48.1-.37,1.28.31.3.96.6,1.93.91,2.89.55,1.7.84,3.47,1.45,5.16.69,2.65,1.35,5.32,2.09,7.96.51,1.82-.47,2.85-1.8,3.68-6.15,3.81-12.84,4.75-19.9,3.74-2.95-.42-5.91-.84-8.87-1.18-.89-.1-1.66-.32-2.33-.9Z"/>
  <path class="cls-23" d="m133.55,295.06c-.76-.08-.76-.32-1.19.05-.12-1.19-.39-1.72-.89-2.87-.86-3.11-1.66-4.8-2.3-7.75-.83-2.85-2.51-7.09-2.88-8.32-.77-2.56-1.44-4.89-2.34-7.4-.71-1.96.26.92,1.42,1.32.91-1.92.09-3.87.27-5.76.33,2.92-.25,3.62.04,4.85.76,3.2,1.68,6.32,3.13,9.9,1.85,4.55,2.72,9.37,4.14,14.07.18.58.58,1.3.6,1.92Z"/>
  <path class="cls-23" d="m343.5,264.94c.09.22-1.59.31-2.38.46-1.09-2.83-3.02-5.16-4.77-7.55-4.65-6.34-9.11-12.81-13.4-19.4-.73-1.12-1.91-1.89-2.55-3.09-.42-.8-2.78-4.35-2.16-5.41,2.29-.43,5.37,3.66,6.78,5.2-.5-.09-1-.18-2-.36,2.57,3.71,4.89,7.09,7.24,10.44,4.26,6.06,8.53,12.12,12.81,18.17.33.47.52.96.43,1.53Z"/>
  <path class="cls-23" d="m15.3,301c-.66-.1-1.48.03-1.52-1,.69-.5,1.48-.45,2.27-.45,13.3,0,26.6,0,39.91,0,.97,0,1.99-.11,3.2,1.45H15.3Z"/>
  <path class="cls-23" d="m343.65,268.24c-.6-1.35,1.22-1.55,1.19-1.85.71.3.51,1.66-.14,2.69-.17.27.32-.24.97.54.35.51.03,12.88,9.97,16.98,1.27.84,2.87,1.59,3.98,2.68-.72.09-.99-.21-1.05.48-.08.81-.62,1.15-1.41,1.12-.5-.7-.99-1.35-1.83-1.76-5.37-2.65-8.62-7.13-10.66-12.62-.36-.98-.36-2-.35-3.03.01-.97-65.96,42.1-66.67,41.36-.41-.77,37.69-26.9,38.23-27.22.83-.5,27.82-18.58,27.78-19.38Z"/>
  <path class="cls-23" d="m107.96,324.47c-4.87.21-9.67-.74-14.5-1.09-1.57-.11-3.11-.28-4.67.02-.45.09-1.13.23-1.36,0-1.34-1.34-2.44-.23-3.61.22,2.92-4.46,4.86-9.43,7.41-14.09.41-.74.73-1.54,1.2-2.24.31-.47.83-.71,1.44-.42.82.39.35.93.13,1.38-2.04,4.14-3.99,8.33-6.21,12.37-.99,1.81-.6,2.12,1.23,2.13,6.06.03,12.08.75,18.1,1.37.29.03.57.23.86.35Z"/>
  <path class="cls-23" d="m361.06,126.71c-1.13.13-2.27-.46-3.39.01,6.66-6.57,12.13-14.41,20.4-19.28,1.19-.54,2.55.15,2.82,1.79-4.44-.41-6.89,2.83-9.56,5.43-3.28,3.19-6.28,6.66-9.41,10-.55.59-1.07,1.16-.86,2.05Z"/>
  <path class="cls-23" d="m380.97,109.29c-.57-1.18-1.9-.73-2.45-1.95-.35-.44-1.07-1.22-1.42-1.66.08-1.25.52-.33,1.05-.4,3.5,4.01,10.64,3.47,15.5.23,1.44-1.05,2.74-2.17,3.82-3.18,1.59-.65,1.04-.78,1,.45-.02.16-.04.31-.07.47-2.25,1.86-4.27,3.98-7.15,5.05-3.38,1.25-6.73,2.02-10.29,1.01Z"/>
  <path class="cls-23" d="m351.08,135.83c-1.06-.35-1.69.64-2.58.84,1.01-1.84.07-3.49-.58-5.13-1.94-4.92-1.89-5.02,3.41-4.84,1.96.06,3.93.07,5.89.11-.47.47-.94.95-1.41,1.42-.89.89-2.04.61-3.1.64-3.03.07-3.03.05-2.04,3.02.25.74.59,1.44.75,2.21.13.62.16,1.24-.35,1.74Z"/>
  <path class="cls-23" d="m389.45,94.59c-2.55,3.99-7.92,5.8-10.89,3.23,3.37-.25,6.43-.67,8.62-3.15q1.77-1.37,2.27-.08Z"/>
  <path class="cls-24" d="m91.13,302.1c2.88-2.22-.29-2.25-1.07-3.22-.4-.5-1.76-.26-1.31-1.26.47-1.04,1.49-.47,2.23-.13.98.45,1.95.94,2.85,1.54.61.41,1.67.62,1.59,1.51-.09.91-1.08,1.25-1.85,1.62-.73.35-1.5.39-2.44-.06Z"/>
  <path class="cls-23" d="m405.68,83.76c-2.2-.06-2.7-.92-1.63-2.6.58-.91,1.25-1.76,1.89-2.63.38-.51.97-.61,1.46-.33.61.35.41.9.08,1.4-.57.89-1.14,1.61-.43,2.91.63,1.16-.71,1.17-1.37,1.26Z"/>
  <path class="cls-23" d="m397.72,103.69c-.15-1.18.05-.94-.43-1.21,1.86-1.46,2.11-3.05,2.97-4.86.48-.78.86-.82,1.34-.5.36.24.22.86-.21,1.37-.9,1.07-1.97,3.99-3.67,5.21Z"/>
  <path class="cls-4" d="m0,226.71c6.06-.02,12.11-.05,18.17-.06.85,0,1.78-.1,2.19.96-5.87-.97-11.78-.22-17.66-.48-.91-.04-1.9.35-2.7-.42Z"/>
  <path class="cls-23" d="m96.07,104.62c1.27-.24,2.51-.37,3.42.83-1.09.25-1.07.75-.61,1.7,2.26,4.68,4.44,9.4,6.6,14.13.32.69.43,1.5.53,2.27.18,1.26-.33,1.87-1.7,1.85-3.23-.06-6.45-.01-9.68-.01-11.02,0-22.03-.05-33.05.04-2.41.02-3.47-1.1-4.31-3.14-1.44-3.52-2.6-7.12-3.55-10.78-.71-2.76-1.11-5.6-1.66-8.41.8-.79,1.64-1.48,2.87-1.28-.02,6.82,1.92,13.17,4.59,19.35.74,1.7,2.17,2.12,3.87,2.12,4.41,0,8.83,0,13.24,0,7.8,0,15.6.02,23.4,0,2.99,0,3.37-.63,2.16-3.37-1.75-3.96-3.54-7.91-5.47-11.79-.52-1.06-1.53-2.13-.65-3.49Z"/>
  <path class="cls-23" d="m109.79,146.69c-.7,1-2.16-.13-2.81,1-.2,5.02.08,10.03.33,15.05.3,5.96.17,11.94.19,17.91.72.94.67-.29,5.06-1.37-.72,1.22-4.09,5.09-4.87,5.63-7.78,5.37-16.31,9.15-25.27,12.04-4.5,1.45-9.13,2.37-13.7,3.55-1.39.36-2.81.27-4.23.31-3.89.47-10.27.23-10.38.14,2.02-1.17,2.61-.57,4.71-.83.96-.12,2.07.3,2.7-.84,7.79-.39,15.17-2.5,22.48-5.08,6.03-2.12,11.75-4.87,17.4-7.81,1.51-.79,2.91-1.81,4.31-2.79.87-.61,1.41-1.47,1.25-2.62-.05-.39,0-.79-.02-1.18-.31-9.73-.65-19.45-.91-29.18-.11-3.89-.03-3.9,3.77-3.92Z"/>
  <path class="cls-23" d="m443.31,105.53c-3.31,3.2-4.73,7.2-5.32,11.69-.47,3.56-.27,7.03.14,10.54.07.57.36,1.38-.45,1.64-.79.25-.99-.57-1.35-1.05-.19-.25-.46-.52-.47-.79-.49-8.46-.86-16.88,6.14-23.4.82-.76,1.61-1.22,2.72-1.01.66,1.46-.83,1.65-1.4,2.38Z"/>
  <path class="cls-23" d="m443.31,105.53c.27-.91,1.54-1.23,1.4-2.38.32,0,.64.01.96.02,0,0-.02-.02-.02-.02-.23,1.34-1.06,2.09-2.35,2.38Z"/>
  <path class="cls-21" d="m325.21,240.87c4.32,6.73,9.08,13.18,13.6,19.78,1,1.45,3.05,2.45,2.31,4.76-1.46-.23-2.61.57-3.67,1.3-14.18,9.84-28.33,19.72-42.49,29.6-4.29,2.99-8.58,5.98-12.85,9-.6.42-1.13.85-1.91.69-.03-.11,0,.11,0,0,.17-.57,1.97-12.64,2.73-15.95.4-1.73.15-2.79-2.22-2.94-.15-.05-.29-.12-.44-.16-3.19-.75-3.33-.88-3.09-4.21.1-1.34.07-2.48-1.2-3.3-1.08-.7-1.23-1.71-.82-2.91,2.44-7.06,4.77-14.15,7.29-21.18.68-1.89,1.78-3.24,3.9-3.69,1.29-.28,2.57-.78,3.75-1.41,2.34-1.26,2.69-3.21,1-5.25-1.83-2.21-1.83-2.3.7-3.75,1.05-.6,1.92-1.34,2.53-2.4,1.2-2.09,1.95-4.37,3.55-6.31,1.59-1.93.1-4.97-2.44-5.86-1.19-.42-2.46-.54-3.69-.83-1.34-.32-1.74-1.08-.99-2.22,1.31-1.97,1.32-3.83-.26-5.62-1.57-1.78-3.53-1.77-5.64-1.22-7.09,1.86-13.96,4.21-20.5,7.63-7.54,3.95-12.63,9.94-16.14,17.53-3.45,7.46-5.81,15.28-8.1,23.13-.43,1.46-.94,2.65-2.65,2.91-1.1.17-1.43,1.05-1.69,2.03-.55,2.05-.98,4.12-1.32,6.22-.24,1.49-.92,2.53-2.72,2.08-1.23-.31-1.71.43-1.93,1.49-.16.76-.06,2.38-.62,3.01-.02.14-.16-.25-.19-.11-.98.2-1.45-.78-1.9-1.43-4.63-6.66-9.13-13.41-13.95-19.93-2.7-3.65-5.11-7.48-7.91-11.07-2.34-3-4.93-6.17-5.63-9.92-.7-3.79-1.17-7.7.72-11.67,1.89-3.96,4.73-6.56,8.2-8.93,5.4-3.69,10.58-7.69,15.92-11.46,5.73-4.04,11.55-7.94,17.31-11.93,8.91-6.17,17.81-12.36,26.69-18.57,1.28-.9,2.41-1.99,3.71-2.88,3.1-2.13,5.7-1.69,7.82,1.38,3.24,4.68,6.52,9.33,9.81,13.97,1.13,1.59,2.35,3.12,3.54,4.67,5.12,7.27,10.37,14.47,15.32,21.85,3.5,5.22,14.79,21.37,16.54,24.1Z"/>
  <path class="cls-23" d="m230.6,278.38c.5-.35,2.34-.2,3.1-1.59.45-2.28.99-4.55,1.4-6.84.27-1.53.68-2.81,2.61-2.63,1.19.11,1.44-.76,1.66-1.6,2.17-8.53,4.95-16.85,8.6-24.86,3.83-8.39,10.11-14.34,18.43-18.28,6.08-2.88,12.41-4.96,18.91-6.59,4.15-1.04,7.59,1.77,7.14,5.67-.16,1.36-1.56,1.98-1.64,3.38,1.61.33,3.24.54,4.8,1.01,3.62,1.07,5.51,6.84,1.94,7.97-2.48.79-1.22,1.46-1.49,2.55-.64,2.58-2.09,4.67-4.76,5.65-.83.3-1.78.42-.47,1.63,3.38,3.08,2.63,6.5-1.91,7.41-4.92.98-6.16,4.5-7.38,8.44-1.45,4.65-3,9.28-4.68,13.85-.45,1.23-.55,2.57-1.33,3.72-.56.83.24,1.52.98,1.81,1.59.62,1.94,1.63,1.34,3.16-.16.41-.03.94-.08,1.41-.14,1.51-.14,2.89,2.01,2.79.3-.01.62.44.93.67-1.64-.09-3.46-.38-6.75-1.24.17-.47.62-.69.92-1.05,1.41-1.75.92-3.52-1.22-4.16-5.56-1.66-11.1-3.41-16.65-5.1-5.48-1.67-10.99-3.23-16.46-4.92-2.73-.85-2.82-.73-3.47,1.96-.49,2.03-.56,4.22-1.85,6.02-.85.02-1.41-.03-2.25-.14-1.94-.27-1.83-.12-2.39-.08Z"/>
  <path class="cls-23" d="m123.51,294.74c2.01.73,3.69,0,4.14-1.07-.02-1.62-3.4-5.67-6.86-7.83-.81-.67-1.44-1.06-.78-1.61.76-.63,10.16,7.44,9.56,10.5-1.71,1.85-3.86,1.55-5.98,1.39-1.67-.13-.31-.91-.09-1.38Z"/>
  <path class="cls-23" d="m122.37,304.29c-1.95-.06-3.39.06-4.71-.52-.65-.29-1.84-.18-1.71-1.22.11-.88,1.2-.9,1.93-1.05,1.3-.27,2.63-.37,3.95-.57,1.85-.28,3.7-.64,5.56-.86.85-.1,1.99-.6,2.42.69.41,1.24-.71,1.64-1.46,2.08-2,1.16-4.16,1.78-5.97,1.46Z"/>
  <path class="cls-25" d="m455.62,212.31c.06,11.09-1.2,6.89-3.47,8.96-6.13-1.86-12.02-.37-19.08-1.45-3.26.28-6.52.7-9.66,1.31-4.39.84-7.92-2.59-11.81-.23-1.4.85-3.7-.91-5.35-.91-12.61-.07-30.55-.03-40.19-.68-.33-1.65.44-21.59.17-28.28-.03-.81.26-2.46.81-3.72,1.35,2.18,1.6,6.17,2.47,8.52.77,2.09,1.94,3.07,4.18,2.85,1.09-.11,2.22.14,3.3,0,2.63-.37,3.61,1.24,3.82,3.34.25,2.51,1.5,3.33,3.87,3.32,6.2-.04,12.38.55,18.57.75,8.62.29,17.25.11,25.88.13,1.97-1.22,4.14-.44,6.22-.64.78-.07,1.57-.03,2.36-.02,1.21.02,1.49-.62,1.24-1.67.15-1.3-.72-2.6.02-3.9.65-.44,1.29-.48,1.94,0,2-.57-4.67,2.89-5.08,1.99-.8-1.78-3.4-8.23,1.6-7.37,3.08.53,11.65,1.77,14.81,1.83,2.78.05,4,.41,3.46,2.99-.13.61-.02,1.32-.06,1.94-.34,3.38-.4,6.8-.01,10.1v.87Z"/>
  <path class="cls-23" d="m129.15,304.63c.51,0,.98-.03,1.45,0,.41.03.79.22.82.68.04.48-.33.75-.74.7-2.21-.26-4.1.75-6.07,1.45-.45.16-1.09.3-1.28-.14-.21-.51.14-.98.74-1.26,1.64-.76,3.23-1.61,5.08-1.44Z"/>
  <path class="cls-12" d="m351.08,135.83c.06-2.19-1.1-4.07-1.8-6.02-.58-1.64.1-1.55,1.14-1.57,1.8-.02,3.6-.02,5.4-.02,15.01.36,30.02.72,45.03,1.08,1.49.04,2.99.09,4.48.05,1.5-.03,2.13.26,1.56,2.02-.78,2.42-.26,4.76,1.36,6.8.31.2.45.5.53.84-.08,1.5.71,2.74,1.22,4.06.08.21.14.43.19.65.38,2.35,1.34,4.51,2.32,6.65.77,1.2,1.24,2.52,1.5,3.92-.04,1.62.98,2.96,1.24,4.5.34,2.02-.21,2.63-2.23,2.35-2.41-.33-4.31-1.81-6.41-2.84-.77-.38-1.53-.8-2.29-1.2-1.44-.76-2.77-.6-3.85.58-1.02,1.11-.96,2.45-.32,3.74.6,1.21,1.58,2.13,2.52,3.08.48.49,1.24.89,1.06,1.7-.23.98-1.19.83-1.93,1-.23.05-.46.11-.66.22-.41.21-.81.44-1.2.69-1.7,1.15-1.89,2.9-.99,4.37,2.03,3.3,3.36,6.95,6.45,9.72,4.14,3.71,8.99,5.64,14.05,7.35.89.3,1.81.63,2.72.73,4.77.51,5.53,4.1,6.17,7.83-.69,1.07-1.76,1.22-2.9,1.18-11.06-.43-22.12-.92-33.2-.78-1.15.01-2.39.22-3.31-.81-4.86-.24-9.72-.56-14.58-.66-1.84-.04-2.68-.82-3.22-2.42-4.06-11.98-8.26-23.92-12.2-35.95-2.51-7.65-5.2-15.23-7.84-22.82Z"/>
  <path class="cls-12" d="m425.85,162.68c.27-2.41-1.33-4.29-1.84-6.48-.25-1.06-.69-2.08-1.09-3.1-.74-1.85-.52-3.45,1.34-4.44,1.87-.99,3.07.07,4.12,1.54,3.23,4.54,6.92,8.7,11.12,12.35,5.02,4.36,10.66,7.66,17.32,8.82,1.44.25,1.85.95,1.69,2.25-.81,6.46-1.64,12.93-2.42,19.39-.21,1.77-.97,2.38-2.8,2.09-5.44-.86-10.89-1.58-16.35-2.33-1.16-.16-2.31-.51-3.5-.28-1.36.4-2.61-.06-3.87-.46-5.17-1.61-10.51-2.73-15.51-4.89-1.51-.65-3.01-1.15-3.65-3.02-.46-1.36-2.05-1.64-3.28-2.09-1.78-.65-3.14-1.77-4.18-3.31-.31-.45-.63-.95-.2-1.51.41-.53.97-.42,1.51-.27.77.21,1.46.58,2.14.97,2.92,1.65,6.01,2.91,9.25,3.82-2.32-1.06-4.69-2.02-7.03-3.07-2.16-.97-4.17-2.21-6.3-3.23-.79-.38-1.43-.98-2.01-1.62-2.11-2.3-1.98-3.93.48-6.18,1.56-.72,2.91.12,4.28.64,3.79,1.45,7.98,1.67,11.54,3.79.98.47,1.9,1.1,3.08,1.26-.01-1.14-.83-.86-1.31-1.06-4.51-1.43-8.95-3.01-12.84-5.8-1.32-1.35-2.87-2.46-4.1-3.91-1.42-1.67-1.73-3.29-.68-4.42,1.34-1.44,2.78-1.05,4.27-.16,2.99,1.78,6.11,3.26,9.45,4.27.23.06.45.14.67.23,1.47.69,3.05.91,4.65,1.06,1.34.04,2.68.07,4.01,0,.73-.05,1.64.15,2.01-.84Z"/>
  <path class="cls-23" d="m428.68,191.05c1.31.16,5.99,1.52,7.25,1.56,1.17,1.14.49.38,1.72,1.36,0,1.7,3.23,12.18.13,12.41-2.89,0-5.78-.07-8.67-.11-.42-.46-.99-.41-1.54-.42-7.3-.06-14.59-.6-21.91-.55-6.99.05-13.98-.33-20.97-.46-1.45-.03-2.39-.49-2.74-1.98-.18-.75-.7-1.44-.8-2.2-.27-2.03-1.5-2.54-3.3-2.42-1.01.06-2.02.01-3.03-.55,4.7,0,9.4,0,14.09,0,12.1-.08,24.18.53,36.27.77,1.03.02,2.66.96,2.96-1.15-.59-1.18-.74-2.5-1.26-3.72-.84-1.98-.39-2.43,1.82-2.21.31.03-.31-.51-.04-.33Z"/>
  <path class="cls-23" d="m425.23,159.98c1.84,5.13.76,4.37-.44,4.34-1.7-.05-3.39-.15-5.09-.23-1.66-.34-3.28-.58-4.79-1.33h0c.99-3.09-.17-4.88-1.15-7.64-.46-1.27-1.2-3.41-1.66-4.68-.7-2.39-1.61-4.72-2.38-7.09h0c-.52-1.41-.86-2.87-1.42-4.26-.02-.31-1.52-4.07-1.54-4.38-.08-1.45,1.97,1.34,3.52,1.56,1.6.23,3.23.34,4.85.43,1.09.06,1.37.8,1.68,1.64.39,1.07.42,2.3,1.38,3.12.08.06.16.13.25.19.44,1.25.45,2.65,1.2,3.81,0,.1.02.21.02.31.05.69-.16,1.62.21,2.04,3.1,3.61,2.39,8.62,4.68,12.5.46.77-.34-.8.68-.34Z"/>
  <path class="cls-14" d="m418.19,141.46c-2.04-4.91-1.07-5.57-5.45-5.64-.55,0-1.1-.02-1.65-.03-2.59-.06-3.35-.82-3.09-3.15.19-1.73,2.1-3.15,3.91-2.81,3.09.57,5.22,2.31,6.29,5.31,1.18,3.29,2.4,6.56,3.59,9.85.11.29.19.61.18.92-.03.73.36.19-.58.51-1.18.4-.67.57-1.15.07-.21-.22-.39-.47-.59-.7,0,0-.02-.08-.02-.08-.78-1.28-.92-2.79-1.42-4.17l-.02-.07Z"/>
  <path class="cls-8" d="m343.45,270.54c1.29.01,1.41.82,1.45,1.89.31,7.81,4.49,12.99,11.27,16.33.99.49,1.55,1,.98,2.13-4.43,3.06-8.88,6.1-13.3,9.18-7.56,5.27-15.1,10.55-22.64,15.84-5.43,3.81-10.84,7.66-16.27,11.48-5.55,3.9-11.08,7.84-16.68,11.67-4.29,2.93-8.8,2.82-13.38.63-.75-2.82.4-5.5.79-8.2.63-4.36,1.74-8.65,2.13-13.06.12-1.96,1.2-3.38,2.71-4.46,6.09-4.33,12.26-8.54,18.33-12.88,7.1-5.08,14.34-9.94,21.45-14.99,7.05-5,14.13-9.96,21.19-14.95.58-.41,1.16-.84,1.94-.61Z"/>
  <text/>
  <path class="cls-12" d="m235.24,278.6c.06-2.77,1.24-5.33,1.57-8.05.17-1.4,1.12-1.35,2.3-1,7.93,2.41,15.88,4.74,23.81,7.11,3.74,1.12,7.45,2.33,11.19,3.41,1.21.35,2.37.61,2.16,2.2-.2,1.53.23,3.54-2.31,3.59-4.89-1.08-9.83-1.88-14.78-2.67-5.01-.8-9.96-1.92-14.95-2.86-3-.56-6.07-.78-9-1.73Z"/>
  <path class="cls-26" d="m111.47,225.04c.39-.29.7.26,1.13.27,1.25.86,4.63-.29,5.99-.43.85-.43,1.45.19,2.42.09,4.59-.45,8.59-2.04,12.6-4.58,3.65-3.11,5.83-7.16,9.01-9.12,1.11-1.29,1.87-2.84,1-4.57-.87-1.75-2.38-2.7-4.33-2.82-.79-.05-7.29,1.73-7.85.82,1.29-1.12,8.3-3.9,9.84-4.66.79-.39,1.47-.91,2.09-1.51,1.72-1.63,2.05-3.01,1.15-4.59-1.09-1.9-2.85-2.62-5.05-1.91-1.2.38-2.41.73-3.61,1.12-5.78,1.87-11.66,3.18-17.8,2.79-2.37-.15-2.67-.48-2.45-2.86,1.93-2.77,3.55-5.72,5.14-8.69,1.24-2.32.98-4.99-.53-6.3-2.16-1.87-4.07-1.94-6.64-.29-.73.47-1.34,1.08-2,1.63-.64.54-1.62.33-2.62-.17.2-9.28-1.14-17.57-.62-26.87.17-3.08,0-2.96,2.85-2.11,5.14,1.54,10.33,2.88,15.48,4.38,4.91,1.44,9.73,3.25,14.7,4.41,5.22,1.21,10.2,3.27,15.5,4.1,2.77.43,3.19,1.26,3.15,4.12-.07,4.55,2.2,68.49,2.26,71.54.06,2.82-1.14,2.57-3.78,1.58-6.94-2.61-14.21-4.02-21.3-6.12-4.55-1.35-8.99-3.11-13.58-4.27-10.28-2.35-12.55-4.08-12.17-5Z"/>
  <path class="cls-26" d="m171.76,242.43c-1.5-.24-2.92.29-4.38.43-1.95.2-2.88-.41-2.78-2.56.07-1.5-2.11-74.72-2.69-76.85.76-.8,1.65-.64,2.56-.35,1.05.66,3.12-.05,4.28,0,1.52.06,1.23,1.61,1.33,2.95.24,3.14.97,6.24.92,9.38-.13,9.67.57,19.32.6,28.99.03,11.39,1.38,22.75.9,34.16-.05,1.31.28,2.7-.75,3.83Z"/>
  <path class="cls-23" d="m108.93,180.56c2.02-.49,3.38-3.18,5.08-4.2,2.58-1.54,4.47-.68,6.64.85,1.44,1.02,2.18,4.27,1.25,6.04-1.63,3.1-3.5,6.07-5.3,9.08-.09.15-1.05,2.49-2.17,3.14-1.5-.33-.82-1.15-.41-1.88,1.99-3.55,4.01-7.08,5.97-10.64,1.12-2.04.77-3.71-.92-4.95-1.81-1.33-3.54-1.08-5.12.38-1.31,1.21-2.25,2.84-4.08,3.42.53-.86.19-.84-.94-1.26Z"/>
  <path class="cls-25" d="m348.75,138.21c2.07.01,1.79,1.96,2.2,3.04,1.78,4.61,3.32,9.32,4.89,14.01,1.82,5.45,3.53,10.93,5.39,16.37,1.42,4.17,2.99,8.3,4.49,12.45.08,1.08-.29,1.78-1.2,2.56-1.71,1.47-3.25,3.2-4.61,5.01-4.18,5.58-8.81,10.79-13.22,16.18-5.26,6.42-10.39,12.94-15.63,19.38-1.28,1.57-2.79,2.93-3.84,4.73-.69,1.18-2,1.57-3.24.65-1.56-1.17-2.94-2.6-4.55-3.69-2.61-1.78-3.43-4.78-5.17-7.14-6.3-8.52-12.3-17.26-18.26-26.03-.48-.71-.91-.99-.04-1.87,6.2-6.3,12.34-12.65,18.35-19.14,6.91-7.45,14.05-14.68,21.04-22.06,4.52-4.77,8.94-9.63,13.4-14.44Z"/>
  <path class="cls-23" d="m217.55,211.41c.04-2.21.12-4.41.12-6.62,0-27.43,0-54.87.04-82.3,0-1.1-.73-3.09,1.09-3.03,1.46.05.75,1.95.75,2.99.04,27.59.03,55.19.05,82.78,0,1.4-.42,3.03,1.35,3.84-.69,1.41-2.87.68-3.39,2.34Z"/>
  <path class="cls-23" d="m3.47,225.2c5.04,0,10.07-.01,15.11.04,1.34.01,1.69-.12,1.23-1.68-1.93-6.6-2.81-13.43-4.18-20.15-1.15-5.63-2.16-11.29-3.35-16.92-1.43-6.79-2.68-13.61-3.95-20.42-.2-1.07-.76-4.56-.8-5.65.98-.48.45.05,2.13,0,.05,4.24,1.31,8.28,2.07,12.41.51,2.75,1.04,5.49,1.57,8.24.74,3.79,1.73,7.55,2.24,11.34.45,3.34,1.24,6.61,1.79,9.92.55,3.27.87,6.63,2,9.81.58,1.64.2,3.39.66,5.11.84,3.1,1.93,6.06,3.33,8.93-.87-.64-1.68-1.5-2.84-.37-.28.27-.88.31-1.33.31-4.78.02-9.55,0-14.33.01-.67,0-1.27-.07-1.36-.92Z"/>
  <path class="cls-12" d="m153.37,154.2c-1.48-1.04-1.81-2.24-1.08-4.01,1.99-4.81,3.84-9.68,5.67-14.55,2.27-6.04,4.5-12.09,6.7-18.15,3.9-10.78,9.44-20.68,16.18-29.9,3.03-4.15,6.55-7.95,9.85-11.9,6.02-6.28,12.34-12.23,19.22-17.58,2.16-1.68,4.27-3.43,6.48-5.05,2.07-1.52,3.67-1.4,5.22.21,1.65,1.72,1.71,2.96-.19,5.12-3.72,4.23-7.57,8.35-11.37,12.51-3.28,3.6-6.25,7.45-8,12.02-2.13,5.58-.79,10.42,6.45,10.35,3.3-.03,6.35-.96,9.39-1.98,2.46-.82,5.05-.3,6.1,1.54.97,1.71.33,4.3-1.66,5.83-7.97,6.1-16.19,11.79-25.77,15.13-1.38.48-1.97,1.22-2.35,2.57-1.11,3.91-1.85,7.9-2.51,11.9-.15.93-.48,1.63-1.12,2.24-2.4,2.89-1.65.86-2.49,1.25-8.26,3.81-13.5,10.66-18.21,18.02-1.39,2.18-2.83,4.36-3.95,6.72-.52,1.09-1.48,1.79-2.7,1.44-3.39-.96-6.88-1.68-9.85-3.75Z"/>
  <path class="cls-23" d="m152.88,153.84c2.95.97,5.94,1.84,8.84,2.93,1.75.66,2.56.31,3.49-1.4,4.52-8.33,28.02-27.07,30-27.49.89,0,2.56,2.27,3.45,2.27-.84,1.17-.67.97-1.5,2.19-.5-.79-1.23-2.46-2.45-2.59-4.17,3.08-24.22,19.1-28.42,27.14-.92,1.77-1.92,2.51-3.86,1.74-4.27-1.7-11.71-2.89-15.87-4.9.15-.47,3.21-.76,3.36-1.22,1.04.34,1.58,1.76,2.96,1.34Z"/>
  <path class="cls-12" d="m212.87,73.41c.47.31.93.63,1.4.94,1.65,2,2.39,4.42,3.15,6.83.43,1.38-.81,4.76-2.2,5.13-1.93.51-2.94-.64-3.75-2.31-.9-1.87-1.86-3.79-3.96-4.71-.58-.25-.74-.78-.65-1.38.29-1.89,3.97-4.64,6.02-4.51Z"/>
  <path class="cls-17" d="m211.34,87.43c-.11.8-.62,1.4-1.17,1.73-.75.44-1.72.5-2.41-.22-1.66-1.71-2.53-3.93-3.64-5.99-.39-.73.2-1.51.84-2.04.52-.43,1.15-.65,1.73-.19,2.23,1.77,3.17,4.43,4.65,6.71Z"/>
  <path class="cls-26" d="m171.83,162.78c3.51-2.7,6.02-6.36,9-9.57,5.7-6.13,11.34-12.32,17.01-18.47.55-.59,1.08-1.6,1.99-1.27.92.34.79,1.43.78,2.3,0,1.58,1.26,67.76,2.21,69.94,1.2,2.76-1.35,4.43-2.91,6.17-6.88,7.7-13.8,15.35-20.78,22.95-1.51,1.65-2.75,3.67-4.99,4.54-.89-.88-.67-2.03-.77-3.11-1.13-13.08-.53-26.21-1.1-39.3-.44-10.2-.98-20.4-1.25-30.61-.03-1.24-.18-2.55.81-3.57Z"/>
  <path class="cls-7" d="m171.83,162.78c-1.18,1.31,2.22,70.68,2.31,76.59.1.69,1.79.38,1.08,1.33-.72.96-1.31,2.4-2.96,2.23-.76-.08-1.52-.23-2.36-.36.48-.67,1.49-.02,1.86-.78-.01-7.09-2.09-73.49-2.34-76.85-.1-1.33-1-1.13-1.86-1.21-1.19-.11-6.48,1.6-6.48-1.31,1.06-.04,5.11-.14,6.18-.18,1.5.04,3.07.51,4.56.55Z"/>
  <path class="cls-23" d="m292.38,2.46c-17.49-.02-34.99-.04-52.48-.05-20.17-.01-40.35-.02-60.52-.03.63-.69,1.48-.44,2.23-.44,36.71-.02,73.43-.02,110.14-.02.63,0,1.26.09,1.88.13-.31.45-.84.24-1.24.4Z"/>
  <path class="cls-21" d="m145.73,149.86c-.09,1.28-.73,1.05-1.48.78-3.46-1.19-6.86-2.6-10.41-3.43-2.9-.68-3.52-2.66-4.27-5.01-1.29-4.06-3.38-7.75-6.26-10.9-1.66-1.82-2.55-3.71-2.72-6.23-.19-2.78-1.01-5.52-1.59-8.27-.13-.62-.43-1.29.1-1.78.68-.62,1.17.21,1.61.49,5.04,3.13,9.02,7.44,12.51,12.13,3.01,4.04,5.74,8.32,8.01,12.85,1.43,2.86,2.83,5.73,4.24,8.59.13.28.2.59.26.78Z"/>
  <path class="cls-12" d="m393.58,79.57c1.53,3.91,1.23,6.27-1.05,8.32-2.44,2.19-6.03,2.21-8.53.08-1.92-1.64-3.17-5.67-.78-8.45,1.15-2.47,8.44-3.11,10.35.06Z"/>
  <path class="cls-11" d="m390.9,75.63c-1.8,0-3.61,0-5.41,0"/>
  <path class="cls-21" d="m343.28,267.37c.85.95.04,1.34-.59,1.8-4.76,3.52-9.73,6.73-14.49,10.26-5.64,4.18-11.54,8.02-17.3,12.04-9.54,6.65-19.06,13.34-28.61,19.98-.74.52-2.05,1.46-2.87.96.15-1.05.43-3.04.6-3.96,5.39-3.77,10.74-7.41,16.13-11.18,7.36-5.16,14.71-10.33,22.08-15.47,6.57-4.59,13.18-9.15,19.74-13.75,1.68-1.18,3.4-1.53,5.31-.67Z"/>
  <path class="cls-23" d="m113.35,280.84c.63.09,1.22-.09,1.39.48.17.56-.3.93-.76.99-2.13.31-3.57,1.86-5.32,2.85-.42.24-.78.59-1.25.19-.46-.4-.32-.89.03-1.24,1.7-1.69,3.65-2.94,5.9-3.28Z"/>
  <path class="cls-23" d="m114.73,288.01c-.12.96-.42,1.78-1.54,1.69-1.03-.09-1.11-.94-1.14-1.75-.03-.87.26-1.63,1.24-1.65,1.1-.03,1.38.81,1.44,1.71Z"/>
  <path class="cls-23" d="m106.66,328.56c-.5.64-1.22.6-1.93.63-12.4.49-22.21,5.69-29.1,16.1-.93,1.41-1.5,3.07-2.18,4.64-.33.77-.43,2.03-1.51,1.6-1-.4-.38-1.47-.09-2.28,2.74-7.83,8.39-13.04,15.39-16.98,5.23-2.94,10.82-4.73,16.87-4.86,1.47-.03,1.47.02,2.54,1.15Z"/>
  <path class="cls-12" d="m286.59,244.99c.39,0,.79.02,1.18,0,1.45-.1,2.81.14,3.1,1.8.31,1.7-.77,2.57-2.3,3.04-1.12.34-2.21,1.04-3.33,1.1-2.65.16-3.18,1.99-3.85,4.02-2.42,7.28-4.99,14.5-7.43,21.77-.6,1.8-1.79,1.2-2.85.89-5.19-1.51-10.36-3.08-15.53-4.65-4.41-1.34-8.79-2.8-13.24-4-1.72-.46-1.69-1.43-1.34-2.61,1.52-5.17,2.91-10.39,4.74-15.45,2.01-5.58,4.37-11.03,7.79-15.95,3.6-5.18,8.69-8.43,14.23-11.1,5.23-2.52,10.79-4.18,16.31-5.91.96-.3,2.02-.28,3.04-.35,1.81-.12,3.08.63,3.41,2.5.31,1.78-.41,3.07-2.13,3.74-2.71,1.06-5.54,1.74-8.38,2.25-2.73.5-5.32,1.3-7.78,2.57-.56.29-1.35.56-.98,1.32.3.6,1.07.2,1.49-.03,5.89-3.17,12.27-2.85,18.63-2.73.71.01,1.41.08,2.12.13,1.56.1,3.04.39,3.52,2.16.47,1.7-.12,3.08-1.54,4.12-.83.61-1.07,1.49-1.2,2.46-.35,2.67-2.19,4.2-4.49,4.94-1.97.64-3.7,1.66-5.54,2.5-.51.23-1.2.46-1.09,1.06.15.85,1,.54,1.57.56.63.03,1.26-.07,1.89-.11,0-.02,0-.04,0-.05Z"/>
  <path class="cls-20" d="m120.03,302.72c2.57-.7,4.58-1.31,6.87-.76-2.09,1.38-4.14,1.54-6.87.76Z"/>
  <path class="cls-23" d="m429.61,191.59c-.38.03-.78.13-1.15.07-1.53-.25-1.69.32-1.21,1.65.96,1.18,2.38,3.75.67,5.49-1.42-.84-.8-4-1.43-5.22-.54-1.06-1.02-2.13-2.29-2.01-4.98.48-29.12-15.72-20.15-14.64,1.15-.29-4.59-3.02-5.02-3.56-1.67-2.18-1.47-4.6.75-5.88.33.26.93.04,1.09.6-2.15,2.71-1.6,5.12,1.63,6.74,4.05,2.02,7.13,4.46,11.53,5.72.37.11,1.17.51,1.51.7.59.33.56,1.14-.05.86-3.97-1.77-13.09-5.71-12.63-4.21.79,1.75,10.11,8.47,12.2,9.32,8.53,4.82,8.06,2.42,12.17,3.46.81.21,1.74.17,2.36.9Z"/>
  <path class="cls-23" d="m405.52,167.49c-1.18-1.24-4.44-3.58-5.49-4.87-1.29-1.59-1.75-3.46-.36-5.17,1.3-1.61,2.98-1.94,5-.94,2.78,1.39,5.36,3.17,8.41,4.07,2.01.59,3.22.18,2.95-1.35-.28-1.6,1.8.81,2.29-.97,1.42,1.89-2.95.14-2.33,2.35.3,1.08-1.06,1.27-1.07,2.16-3.78-.37-6.85-2.48-10.05-4.2-1.36-.73-2.65-1.44-3.76-.06-.98,1.22-.28,2.37.67,3.54,1.24,1.52,3.01,2.44,4.13,4.04-.06,2.46-.08,2.52-2.45,1.64-.93-.34-2.29.69-3.04-.23"/>
  <path class="cls-23" d="m400.82,167.22c1.63.09,2.72-.2,4.28.4,1.01.14,0-.54-.64-1.09.37.04,1.08-.48,1.45-.44.52,2.33,8.98,4.3,13.2,6.34,1.38,1.1.14,1.03-.26.79-.4-.24-7.6-2.75-13.1-4.51-1.07-.34-1.91-.31-2.79-.52-.62-.15-1.38-.07-2.08-.08-1.09.64-1.14.14-1.09-.6.29-.18.75-.1,1.03-.27Z"/>
  <path class="cls-13" d="m336.17,294.75c-.04.8-.77.95-1.25,1.28-7.05,4.94-14.13,9.84-21.17,14.79-8.05,5.66-16.07,11.38-24.11,17.06-.89.63-1.82,1.2-2.79,1.7-.46.24-1.13.41-1.41-.28-.23-.56.31-.74.7-1.02,4.34-3.04,8.65-6.13,12.99-9.17,8.26-5.78,16.54-11.53,24.8-17.3,3.07-2.14,6.13-4.31,9.22-6.44.64-.44,1.37-.75,2.09-1.03.35-.14.79-.13.92.41Z"/>
  <path class="cls-13" d="m294.38,313.35c-.13,1.06-1.01,1.58-1.73,2.09-3.38,2.39-6.83,4.68-10.23,7.04-.62.43-1.29.97-1.84.27-.66-.84.37-1.24.85-1.59,3.47-2.51,6.98-4.98,10.5-7.42.7-.48,1.5-.92,2.44-.39Z"/>
  <path class="cls-23" d="m114.43,195.48c.15-1.16.36-2.29,1.53-2.92-.3,1.83.41,2.39,2.31,2.41,6.27.08,12.3-.9,18.15-3.21,1.04-.41,2.21-.61,3.31-.99,2.08-.71,4.16.31,5.53,2.54,1.13,1.85.45,3.44-.92,4.86-1.89,1.97-8.42,4.9-11.76,6.25,1.53.15,8.52-1.68,10.03-.48,2.15,1.71,2.98,3.98,1.3,6.14-.95,1.22-2.64,2.33-4.31,3.84.54,1.57-.57,2.93-2.06,4.1-4.99,3.9-10.26,7.21-16.9,7.17-.99,0-2.74.61-14.07.89-.26-.31-.53-1.03-.44-1.41,22.73.7,25.05-4.32,27.54-5.62,2.18-1.19,3.46-2,4.91-3.96.76-.79.09-1.97,1.03-2.67.79-.75,1.62-1.48,2.37-2.27,1.08-1.12,2.17-2.68,1.19-4.01-.76-1.35-2.69-2.08-4.93-1.69-6.36,1.11-11.28,2.11-13.42,2.32-2.32.23-1.39-.41.32-.91,3.58-.05,11.29-4.33,17.11-7.96,1.42-1.16,2.04-2.29,1.27-4.02-.8-1.8-2.35-1.74-3.82-1.35-3.02.8-5.95,1.95-8.99,2.63-3.76.84-7.57,1.53-11.47,1.11-1.56-.19-3.28-.06-4.8-.82h-.01Z"/>
  <path class="cls-23" d="m140.45,211.63c-.01,1.18-1.11,3.28-2.22,3.89,1.46-1.25.13-1.83-1.02-1.3-4.84,2.23-10.13,2.82-15.2,4.21-.68.19-1.35.24-1.57-.5-.29-.99.53-1.15,1.25-1.26,4.09-.61,8.03-1.87,12.04-2.83,1.96-.47,3.82-1.22,6.72-2.21Z"/>
  <path class="cls-23" d="m387.33,81.78c1.4-.62,3.02.28,2.57,2.17-.18.75-.36,1.1-1.15,1.42-1.75.69-3.69-2.22-1.42-3.59Z"/>
  <path class="cls-23" d="m286.22,234.62c-2.67.13-5.2.88-7.72,1.67-.45.14-1.13.62-1.33-.21-.15-.63.43-.86,1.01-1.03,1.86-.56,3.65-1.34,5.62-1.46,1.61-.22,11.17-.26,12.9.79-.78.96-9.78-.25-10.49.25Z"/>
  <path class="cls-23" d="m475.77,220.05c.07.51.14,1.32.21,1.82-.87.54-114.26-.02-115.19-.01-6.3.01-12.6.05-18.9-.02-1.92-.02-3.75.14-5.45,1.07,1.13-1.26,2.44-2.37,3.27-3.88,6.68.48,13.36.1,20.04.24,1.23.03,113.81.58,116.02.79Z"/>
  <path class="cls-23" d="m26.57,447.96c2.16-7.18,4.61-14.27,6.93-21.41,2.78-8.56,5.59-17.12,8.33-25.69,2.32-7.24,4.52-14.51,6.84-21.74,1.84-5.73,3.79-11.41,5.66-17.13,1.77-5.43,3.42-10.9,5.26-16.3,3.71-10.88,10.97-18.18,22.06-21.54.67-.2,1.32-.51,1.97-.76,1.1-.97,2.13-2.24,3.69-.62.18.19.61.14.92.07,2.9-.7,5.79.06,8.62.39,3.64.42,7.32.25,10.92,1,8.41.44,16.77,1.4,25.15,2.16,6.03.55,12.07,1.1,18.11,1.58,13.58,1.06,27.13,2.41,40.7,3.59,8.39.72,16.78,1.54,25.18,2.18,1.5.11,2.21-.32,2.52-1.97,1.41-7.54,3.13-15.02,4.46-22.57.79-4.46,4.25-25.91,6.18-30.21,1.08.72-.42,1.82.01,1.32.45-.38.9-.96,1.45-.11.51,2.65-.55,5.13-1.03,7.62-.73,3.77-1.23,7.59-2,11.35-.58,2.84-1.29,5.65-1.76,8.52-1.01,6.2-2.88,12.24-3.47,18.52-.16,1.65-.87,3.18-1.15,4.82-.28,1.64.15,2.55,1.85,2.88,1.47.29,2.92.66,4.35,1.11.93.29,2.03.76,1.85,1.82-.17,1-1.37.81-2.21.86-.63.03-1.25-.18-2.27-.2,1.98,2.02,3.93,3.73,5.17,5.99.63,1.16,2.15,2.53.44,3.66-1.48.98-2.33-.61-3.13-1.68-2.33-3.1-5-5.88-8.04-8.3-.69-.55-1.39-1.18-2.27-1.16-3.18.07-6.23-1.09-9.36-1.05-5.23.07-10.37-.71-15.54-1.15-7.04-.6-14.1-1.15-21.13-1.8-5.72-.53-11.44-1.05-17.17-1.49-7.06-.53-14.06-1.69-21.16-1.81-3.61-.06-7.21-.72-10.82-.97-7.45-.53-14.85-1.58-22.33-1.84-2.91-.1-5.72-1.01-8.68-.96-14.36.24-25.69,8.58-29.93,22.12-3.88,12.4-8.06,24.7-12,37.08-4.32,13.58-8.72,27.14-13.07,40.71-4.42,13.79-8.43,27.72-13.49,41.3-.53,1.35.87,3.62-1.49,4.1-.45,1.14-.13,2.73-1.8,3.17-1.14-1.08-.52-2.26-.2-3.42h0c.74-1.16,5.52-17.54,6.87-22.02Z"/>
  <path class="cls-23" d="m231.49,280.14c-.36.29-.72.59-1.08.88-.78-2.22-.39-2.77,1.63-2.98.93-.09,1.87-.12,2.8-.06,5.07.97,10.16,1.86,15.24,2.78,6.7,1.22,13.41,2.39,20.11,3.58,1.16.21,2.32.42,3.43.81,2.59-.28,4.78,1.63,7.38,1.36,2.3.44,2.12,1.22,1.94,3.52-15.5,79.61-8.3,99.82-35.24,109.39-12.67,4.32-52.9,3.1-69.67,3.3-.31,0-18.46.41-19.44-.03-3.2-1.44,18.39-.82,5.53-.83-.79-.29-.43-.68-.02-.94.77-.49,1.66-.46,2.52-.44,13.55.33,27.08-.68,40.62-.51,8.51.11,17.02.09,25.52,0,9.79-.1,18.37-3.2,25.17-10.53,4.18-4.51,6.73-9.76,7.95-15.8,1.22-6.09,2.26-12.22,3.23-18.33,1.35-8.54,2.92-17.04,4.27-25.57.81-5.12,1.87-10.2,2.69-15.33,1.24-7.77,2.63-15.51,3.92-23.27.22-1.33-.38-1.9-1.57-2.12-3.71-.69-7.41-1.41-11.12-2.1-6.57-1.21-13.11-2.6-19.72-3.53-4.84-.68-9.55-1.96-14.37-2.66-.62-.09-1.26-.12-1.74-.61Z"/>
  <path class="cls-16" d="m156.14,403.08c-.18,14.24-.19,28.49-.58,42.73-.33,12.1-.88,24.19-.89,36.3,0,1.4-.22,2.81-.33,4.21-11.28,3.03-22.79.66-34.17,1.43-23.79-.7-47.59-.24-71.37-.63-8.82-.14-17.63-.05-26.45-.31-1.4-.04-2.76.39-4.21.09-1.35-.28-1.66-.53-1.16-1.97,2.21-6.89,9.99-31.14,12.03-37.5,1.87-5.84,3.55-11.75,5.71-17.51,1.64-4.36,2.63-8.96,4.17-13.36,2.05-5.87,3.61-11.88,5.69-17.74,1.59-4.46,3.06-8.97,4.31-13.56,1.42-5.24,3.42-10.33,5.14-15.5,1.23-3.71,2.34-7.45,3.64-11.13,2.25-6.37,3.42-13.13,6.98-19.02,4.47-7.41,10.96-11.97,19.31-14.06,4.98-1.25,9.93-1.24,14.94-.2,2.15.45,4.38.28,6.58.51,7.97.81,15.96,1.36,23.94,2.03,10.02.85,20.03,1.83,30.04,2.63,7.59.61,15.19,1.38,22.8,1.86,6.56.42,13.14,1,19.68,1.82.78.1,1.57.27,2.34.22,4.67-.27,9.2,1.09,13.85,1.12.59,0,1.31.21,1.76.58,3.38,2.81,6.65,5.73,9.14,9.39.27.39.44.85.74,1.2.45.53,1.08.76,1.68.33.59-.42.28-1-.02-1.47-1.03-1.67-1.98-3.41-3.44-4.75-1.21-1.12-2.46-2.18-4.14-3.66,2.55-.58,4.36.81,6.16-.04-.12-.98-.85-1.16-1.65-1.34-1.54-.34-3.04-.96-4.59-1.06-2.38-.16-2.57-1.37-2.2-3.3,1.42-7.35,2.63-14.74,4.18-22.07,1.4-6.61,2.8-13.2,3.85-19.88.49-3.12,1.23-6.24,1.88-9.36,4.3-.28,8.27,1.48,12.44,1.98,4.02.48,7.98,1.37,12,1.91,4.85.65,9.59,2.11,14.43,2.88,3.01.48,5.97,1.26,9,1.58,1.54.16,1.78.84,1.54,2.18-1.52,8.48-3.19,16.93-4.44,25.45-1.19,8.19-2.74,16.31-4.12,24.46-1.1,6.53-2.21,13.08-3.39,19.6-.95,5.27-1.52,10.66-2.76,15.84-1.63,6.8-5.46,12.55-10.98,17.05-3.06,2.49-6.44,4.55-10.14,5.76-10.48,3.1-80.81,2.25-81.42,2.74-2.94.35-5.88.83-8.83.74-9.29-.27-18.58-.25-27.86-.43-3.27-.06-6.5-.68-9.05-.5,11.06.69,22.86.72,34.67.79,1.19,0,2.56-.11,3.56.9Z"/>
  <path class="cls-23" d="m156.14,403.08c-9.26-.83-18.55-.29-27.83-.57-4.01-.12-8.02-.25-12.03-.41-.7-.03-1.9.35-1.87-.74.03-.84,1.17-.51,1.82-.5,9.9.2,19.81.47,29.71.64,5.9.1,11.8.05,17.7.07,12.44.02,24.88.04,37.32.08.82,0,1.69-.22,2.91.43-1.61,0-2.77,0-3.94,0-12.92,0-25.83,0-38.75.04-.89,0-1.91-.38-2.67.47-.72.53-1.57.43-2.39.49Z"/>
  <path class="cls-6" d="m96.08,294.71c-1.95-1.16-3.78-1.53-6.05-.58-2.06.86-2.78-.15-3.66-1.6-.52-.86-1.08-1.69-1.62-2.54-1.49-2.41-2.64-4.95-3.18-7.75-.31-1.63-.24-3.14.94-4.42.5-.54.98-1.14.7-1.89-1.2-3.29.53-5.39,2.87-7.26,2.24-1.51,4.63-2.75,7.12-3.79,3.29-1.37,6.6-2.69,10.03-3.67.13-.02.27-.05.4-.09,2.01-.65,4.07-1.11,6.17-1.4h0c4.69-.76,9.34-1.2,13.65,1.49h.02c.97.78,1.87,1.62,2.37,2.81h0c.88,1.62.42,3.38.48,5.08.01.39-.11.81-.53.97-.53.2-.9-.15-1.24-.47-.35-.32-.52-.78-.78-1.17-1.42-2.2-2.13-2.33-4.34-.79-4.13,2.35-8.75,3.09-13.3,4.05-1.02.04-2.05-.08-3.05.09-1.35.24-2.03.98-2.81,2.3-2.28,3.82-.04,7.14.61,10.6.31,1.65.7,3.38,1.56,4.91.12.22.21.46.28.71.19.77.08,1.58.26,2.34.39,1.72.12,3.14-1.63,3.96-1.73.81-3.2.44-4.41-1.04-.25-.3-.54-.57-.82-.85Z"/>
  <path class="cls-23" d="m126.71,284.88c-.01.97-.21,1.82-1.34,1.85-1.03.03-1.21-.81-1.33-1.61-.13-.86.08-1.65,1.04-1.78,1.09-.15,1.46.65,1.62,1.53Z"/>
  <path class="cls-23" d="m126.5,279.17c.51.37,1.12.49,1.01,1.08-.11.57-.7.68-1.14.52-2.02-.72-3.67-.03-5.68.03-.48.01-.97.16-1.19-.41-.22-.57.14-.94.61-1.08,2.29-.7,4.24-.88,6.39-.13Z"/>
  <circle class="cls-19" cx="92.56" cy="300" r="6.39"/>
  <polygon class="cls-23" points="90.82 297.87 96.73 299.24 88.66 303.75 88.66 303.29 95.6 299.49 90.65 298.29 90.82 297.87"/>
  <path class="cls-2" d="m377.63,83.34c1.53,3.91,1.39,5.94-.49,8.35-.99,1.28-3.91,2.62-4.28,2.15-.65-2.51-.99-13.44-1.48-14.09-.37-.49-.44-.43-.78.08-.19.29,1.15,11.04,1.13,13.85-.14.64-2.05-.36-3.67-1.95-1.92-1.64-3.17-5.67-.78-8.45,1.15-2.47,8.44-3.11,10.35.06Z"/>
  <path class="cls-23" d="m374.36,84.93c1.4-.62,3.02.28,2.57,2.17-.18.75-.36,1.1-1.15,1.42-1.75.69-3.69-2.22-1.42-3.59Z"/>
  <polygon class="cls-23" points="369.67 80.67 370.78 78.78 372.31 80.13 371.79 81.16 370.43 81.33 369.67 80.67"/>
  <path class="cls-12" d="m96.07,104.62c.26,2.33,1.82,4.1,2.69,6.17,1.35,3.23,2.95,6.35,4.42,9.53,1.32,2.87.84,3.6-2.34,3.6-12.59,0-25.17-.05-37.76.03-2.42.01-3.58-.93-4.51-3.16-2.1-5.03-3.37-10.23-4.36-15.56-.25-1.35-.25-2.43.71-3.42,3.09-.84,6.17-1.7,9.26-2.53,1.09-.29,1.5-1,1.49-2.07-.01-4.48-.07-8.97.02-13.45.04-1.77-.69-2.09-2.26-1.93-2.54.26-4.38-.99-5.51-3.18-1.09-2.11-.67-4.14.83-5.9,1.49-1.75,3.43-2.44,5.68-1.8,2.02.57,2.73-.23,2.8-2.18.11-3.36-.63-6.55-1.94-9.58-.79-1.83-.44-2.91,1.51-3.13,2.71-.3,5.02-1.61,7.47-2.59,3.24-1.53,6.12-3.5,8.05-6.62h0c3.35-.56,5.91.64,7.29,3.44,1.04,2.1,1.83,4.31,2.69,6.49h0c1.2,3.13,2.23,6.31,2.8,9.63.14,3.47,1.53,6.71,1.8,10.16.2,2.61.16,5.16-1.01,7.57-1.06,2.31-3.35,2.76-5.42,3.33-2.4.66-4.95.57-7.41,1.09-2.03.43-3.91-1.08-6.49-.92,1.7.64,3.01,1.08,4.36,1.08,2.05,0,3.04.96,3.2,2.93-.25,4.21.96,8.64-2.49,12.77,1.52-.79,1.91-1.71,2.35-2.6,1.21-2.49,1.47-2.58,4.13-1.48.43.18.93.15,1.33.44,2.37.99,4.9,1.7,6.6,3.84Z"/>
  <path class="cls-23" d="m83.58,76.47c1.52-.54,2.69-1.57,3.51-1.03,1.33,1.02,1.31.07,2.94.11,1.21.7.97.81,1.94,1.46-2.87,3.07-5.12,4.77-8.4-.54Z"/>
  <path class="cls-23" d="m86.25,72.56c2.23-.27,4.37-1.2,1.73-3.24-.94-.7-1.5-1.07-1.41-2.13.04-.51,1.4,1.24,1.91,1.7.29.26,1.07.93,1.28,1.24.6.9.54.7.27,1.57-.99.79-1.88,1.96-3.78.86Z"/>
  <path class="cls-3" d="m65.04,76.87c-.08,1.09-.85,1.37-1.6,1.61-1.03.33-1.11-.23-1.12-1.11-.01-.9-1.01-1.1-1.6-1.56-.51-.39-.93-1.04-.26-1.23,1.46-.42,2.51,1.05,3.91,1.27.49.08.66.62.68,1.01Z"/>
  <path class="cls-1" d="m76.62,64.65c0-1.25,2.27-.99,3.53-.64,1.18.33-1.98.3-3.53.64Z"/>
  <path class="cls-23" d="m77.02,63.98c.56-.23,1.68-.45,1.89.78.12.68.19,1.29-.17,1.78-.59.79-1.72.42-2.16-.47-.08-.82-.34-1.41.44-2.09Z"/>
  <path class="cls-12" d="m90.92,76.96c-2.78,2.1-4.61,1.14-6.48-.35.77.03,2.59,0,3.33.4.47.26.46-.4,1.77-.12.69.06.57.03,1.38.07Z"/>
  <path class="cls-1" d="m87.7,61.95c0-1.25,2.26-1.08,3.53-.64,1.16.4-1.98.3-3.53.64Z"/>
  <path class="cls-23" d="m88.1,61.21c.56-.23,1.68-.45,1.89.78.12.68.19,1.29-.17,1.78-.59.79-1.72.42-2.16-.47-.08-.82-.34-1.41.44-2.09Z"/>
  <circle class="cls-5" cx="76.62" cy="75.79" r="4.92"/>
  <path class="cls-23" d="m84.18,92.53c-.07-2.03-1.11-2.63-3.12-2.64-1.5,0-3.01-.76-4.51-1.21-.46-.14-.89-.43-.69-1.02.19-.57.7-.55,1.17-.49.3.04.59.19.89.28,5.2,1.55,10.29,1.01,15.36-.68,1.22-.41,1.88-1.31,2.76-2.02.24-.19.45-.16.63.09-1,2.72-3.66,2.89-5.85,3.63-1.31.44-2.79.43-4.2.54-.87.07-1.75.01-2.31.88.33.91.72,1.82-.15,2.66Z"/>
  <path class="cls-23" d="m84.21,90.26c.05-.89.76.03.81-.86,1.17.66,0,0,.06.93.09,1.47.08,2.96-.04,4.43-.13,1.64.27,2.67,2.13,2.87,1.06.11,2.09.57,2.84,1.44-2.98-1.33-4.87-.43-5.67,2.75-.05.22-1.57,2.57-2.59,1.65-.78-.7.41-1.42.77-2.14.91-1.84,2.06-3.54,1.37-5.96-.45-1.54.18-3.39.33-5.11Z"/>
  <path class="cls-23" d="m103.17,106.93c-1.31-.29-2.29-1.4-3.68-1.47-1.09-.56-2.33-.06-3.44-.48-2.11-1.75-4.68-2.68-7.08-3.92-.35-.17-.68-.46-1.04-.51-3.66-.58-4.19-3.02-3.89-6.16.16-1.6.26-3.27-.44-4.82.14-1.67,1.45-1.6,2.6-1.68,2.35-.16,4.64-.52,6.82-1.47,1.17-.51,2.23-1.14,2.72-2.41,1.98-3.99,1.07-8.06.31-12.11-.13-.69-.42-1.34-.53-2.03-.46-4.34-1.67-8.47-3.32-12.49-.12-.2-.21-.41-.29-.63-.35-2.79-1.74-5.2-3.05-7.58-1.28-2.32-3.86-1.86-6.02-2.16-.16.15-.32.28-.48.43-2.26,2.87-5.3,4.76-8.31,6.7-2.01,1.09-4.04,2.13-6.35,2.44-1.8.24-2.1,1.22-1.6,2.85.84,2.69,1.85,5.35,1.77,8.26-.1,3.41-.6,3.95-4.05,3.78-2.17-.11-3.81.71-5.01,2.51-1.04,1.57-.86,3.17-.01,4.69.96,1.73,2.59,2.4,4.51,2.56,2.78.23,3.08.55,3.12,3.29.05,3.86.06,7.71,0,11.57-.04,2.74-.59,3.33-3.27,4.09-2.57.73-5.13,1.49-7.73,2.14-1.21-.11-2.22.67-3.38.8-.31.02-.62.05-.93.07-1.58.53-3.15,1.13-4.82,1.35-2.97.8-5.94,1.61-8.92,2.41-1.74.43-3.48.88-5.2,1.41h0c-1.29.6-2.1.46-2.08-1.23.02-1.53-.47-2.98-1.26-4.23-1.51-2.41-1.12-4.44.81-6.34.58-.57.98-1.22.95-2.07.54-1.87.32-3.74.03-5.61-.41-2.73.3-5.05,2.75-6.52,3.62-2.15,4.46-5.25,3.4-9.11-.02-1.57-.11-3.15.06-4.72.44-1.63,1.81-2.33,3.11-3.1,1.24-.26,2.24-1.05,3.37-1.54,1.78-1.17,1.14-2.64.49-4.11-.12-.21-.2-.42-.27-.65-.62-3.14-.49-6.23.91-9.15,1.63-3.4,4.34-5.22,8.17-5.23.32,0,.62-.01.86-.25.65-.52,1.29-.96,1.68-1.83,1.46-3.26,3.89-4.67,7.59-4.03,4.02.69,7.76.42,11.33-1.71,1.53-.91,3.24-.6,4.79.01,3.6,1.41,7.26,1.73,11.08,1.27,2.37-.28,4.67.07,6.71,1.55,2.64,1.91,3.6,5.09,2.36,8.88-.68,2.09-.62,4.18-.53,6.29.11,2.52,2.59,3.35,3.73,5.15.78,1.9.49,3.86.26,5.8-.28,2.38-.04,4.28,2.35,5.8,2.84,1.8,3.72,4.66,2.73,8.03-.6,2.05-.99,4.17.75,5.97h0c.83.81,1.82,1.45,2.6,2.33,1.72,1.97,2.28,4.15,1.21,6.63-2.43,2.86-1.49,5.7.04,8.54.74,1.47,1.6,2.88,1.34,4.65-.36,2.5-1.37,3.14-3.67,2.18-.5-.21-1.04-.38-1.47-.74h0c-1.73-.81-3.5-1.53-5.22-2.35Z"/>
  <path class="cls-23" d="m391.37,79.85c.46.43,1.3.49.88.91-.31.31-.73-.21-1.15-.42-1.66-.65-2.48-.81-3.88-.53-.48-.05-.85.39-1.14.11-.44-.42.23-.63.72-.72,2.36-.41,2.52-.37,4.56.64Z"/>
  <path class="cls-23" d="m375.22,82.71c.6.19,1.39-.12,1.19.44-.15.41-.75.12-1.22.11-1.78.12-2.59.34-3.72,1.2-.45.17-.6.72-.99.59-.58-.19-.06-.67.34-.96,1.95-1.39,2.11-1.42,4.39-1.39Z"/>
  <path class="cls-23" d="m215.35,74.69c-.36-.11.47.52.11.41-.76.12-1.51-1.69-2.59-1.69-.66-1.15-3.06-.34-2.82-2.51.6-.36.91-1.07,1.47-1.69,3.12-3.42,6.05-7.26,9.08-10.78,1.81-2.1,1.97-3.08.7-4.49-1.45-1.61-2.88-1.69-4.97-.15-5.71,4.18-11.11,8.72-16.28,13.56-2.63,2.47-5.35,4.86-7.88,7.44-.6.62-1.21,1.25-2.13,1.41-3.96-1.28-8.15-.46-12.15-1.4-1.82-.65-2.73-2.08-3.28-3.82-.44-3.65-.25-7.31-.25-10.97.03-14.87.01-29.74.01-44.61,0-2.52-.05-5.04.02-7.55.06-2.17.12-4.62,2.03-5.97,1.64-1.28,3.86-1.58,5.72-1.63,25.78-.67,97.62.07,108.42.09,1.15,0,3.27,1.04,4.32,1.81-.1.12-1.19-.13-1.29,0-1.26.65-2.63.4-3.95.4-35.36.02-70.72,0-106.08.02-1.17,0-2.37-.18-3.49.33-1.94.81-2.88,2.25-3.04,4.37-.12,1.57-.35,3.12-.35,4.71,0,17.89.01,35.78,0,53.67,0,1.74.12,3.46.53,5.16.44,1.81,1.61,2.75,3.42,2.55,2.28-.25,4.56-.25,6.85-.24,1.92.01,3.19-1.06,4.5-2.26,7.07-6.51,14.12-13.04,21.77-18.88,1.83-1.39,3.76-2.21,6.12-2.02,2.17.17,3.84,1.03,4.58,3.12.73,2.07.92,4.16-.68,6.02-2.88,3.34-5.74,6.7-8.8,9.88-1.68,1.75-1.56,2.08.53,3.25,1.37.77,2.83.9,4.34.9,5.67,0,11.35-.02,17.02.01,1.08,0,2.24-.2,3.12.71.05.33-.08.54-.41.63-8.08.13-16.16-.19-24.24.18Z"/>
  <path class="cls-22" d="m292.38,2.46c1.9.36,2.72,1.44,2.89,3.23-.01,21.12-.02,42.24-.03,63.36,0,3.61-1.16,4.77-4.77,4.77-16.86.01-33.73.02-50.59.02-6.69,0-13.39-.17-20.08.07-2.66.1-4.66-1.1-6.78-2.16-1.17-.59-.22-1.51.33-2.08,3.51-3.58,6.8-7.35,10.03-11.18,2.1-2.49.77-7.1-2.4-7.73-2.01-.4-3.98-.34-5.83,1.04-6.21,4.64-12.04,9.74-17.72,15-2.07,1.92-4.15,3.84-6.21,5.78-.71.67-1.49,1.19-2.47,1.24-2.9.13-5.79-.02-8.71.32-1.61.19-3.2-.79-3.49-2.74-.24-1.62-.56-3.23-.56-4.9.04-18.19.05-36.38,0-54.57,0-2.14.43-4.21.54-6.32.09-1.73,1.7-2.31,2.84-3.23.82-.42,1.7-.21,2.55-.21,35.98-.01,71.96-.01,107.94,0,.84,0,1.73-.29,2.52.28Z"/>
  <g>
    <path class="cls-9" d="m209.82,49.25c-1.45-.85-2.6-2-3.46-3.46-.85-1.45-1.28-3.03-1.28-4.74v-5.69h3.75v5.48c0,1.04.26,1.99.78,2.86.52.87,1.22,1.57,2.1,2.09.88.52,1.83.78,2.85.78s2.02-.26,2.89-.78c.87-.52,1.57-1.21,2.09-2.09.52-.87.78-1.83.78-2.86v-16.23h3.75v16.44c0,1.71-.43,3.28-1.28,4.74-.85,1.45-2.01,2.6-3.46,3.46s-3.04,1.28-4.77,1.28-3.28-.43-4.74-1.28Z"/>
    <path class="cls-9" d="m233.33,41.06c.53,0,.96-.16,1.31-.49.34-.32.52-.74.52-1.25,0-.34-.1-.65-.29-.93-.19-.27-.52-.56-.99-.87l-6.15-4.23,2.13-3.08,6.76,4.66c.73.57,1.29,1.19,1.69,1.87.4.68.59,1.5.59,2.45,0,1.08-.26,2.06-.79,2.95-.53.89-1.25,1.59-2.16,2.1-.91.51-1.9.76-2.95.76h-7.07v-3.96h7.4Z"/>
    <path class="cls-9" d="m243.39,44.27c-.84-.5-1.51-1.17-2-2.01-.49-.84-.73-1.77-.73-2.79v-14.83h3.75v14.59c0,.51.17.94.52,1.29.34.36.77.53,1.28.53h1.55c.2,0,.3.1.3.3v3.35c0,.2-.1.3-.3.3h-1.58c-1.02,0-1.94-.25-2.79-.75Z"/>
    <path class="cls-9" d="m247.45,44.72v-3.35c0-.2.1-.3.3-.3h1.34c.51,0,.93-.17,1.28-.52.34-.34.52-.77.52-1.28v-5.12h3.75v5.12c0,.51.17.93.5,1.28.33.35.76.52,1.26.52h1.34c.2,0,.3.1.3.3v3.35c0,.2-.1.3-.3.3h-1.34c-1.56,0-2.78-.57-3.65-1.71-.87,1.14-2.09,1.71-3.65,1.71h-1.34c-.2,0-.3-.1-.3-.3Zm3.59,2.95h3.5v3.5h-3.5v-3.5Z"/>
    <path class="cls-9" d="m257.44,44.72v-3.35c0-.2.1-.3.3-.3h2.95c.49,0,.9-.18,1.25-.53.35-.35.52-.79.52-1.29v-6h3.75v6.24c0,1.02-.24,1.94-.73,2.79-.49.84-1.15,1.51-2,2.01-.84.5-1.77.75-2.79.75h-2.95c-.2,0-.3-.1-.3-.3Zm.15-17.66h3.5v3.5h-3.5v-3.5Zm5.09,0h3.5v3.5h-3.5v-3.5Z"/>
  </g>
  <path class="cls-23" d="m3.97,158.78c-.45-9.48,2.26-45.72,22-49.55,2.8-.52,4.26-.18,6.64-1.01.13-.44-.7-1.52-1.16-1.48-1.65.14-3.58.74-5.44,1.06-16.54,4.68-23.38,25.73-23.24,50.97,0,0,.94.15,1.19,0Z"/>
  <path class="cls-10" d="m370.65,81.33c.04.45.35,2.65.35,2.65,0,0-.87.65-.74.91.08.17.44.18.74,0,.31,3.08.87,7.44.74,8.95-1.15.3-5.54-2.72-5.71-6.04-.41-4.53,2.61-6.21,4.62-6.48Z"/>
</svg>