<svg width="20" height="19" viewBox="0 0 20 19" fill="none" xmlns="http://www.w3.org/2000/svg">
<path d="M16.1556 15.7089C15.4569 14.8286 14.5528 14.1148 13.5148 13.6236C12.4767 13.1323 11.333 12.8772 10.1736 12.8782C9.01424 12.8772 7.87048 13.1323 6.83242 13.6236C5.79435 14.1148 4.89034 14.8286 4.1916 15.7089M16.1556 15.7089C17.5191 14.5549 18.4807 13.0338 18.9148 11.3473C19.3488 9.66087 19.2339 7.8887 18.5851 6.26584C17.9363 4.64299 16.7843 3.24612 15.282 2.2605C13.7797 1.27488 11.9979 0.74707 10.1731 0.74707C8.34826 0.74707 6.56653 1.27488 5.0642 2.2605C3.56187 3.24612 2.40993 4.64299 1.76113 6.26584C1.11234 7.8887 0.997349 9.66087 1.43142 11.3473C1.86548 13.0338 2.8281 14.5549 4.1916 15.7089M16.1556 15.7089C14.5096 17.1058 12.3792 17.8765 10.1736 17.8735C7.96763 17.8767 5.83783 17.106 4.1916 15.7089M13.1736 7.1693C13.1736 7.92634 12.8575 8.65238 12.2949 9.1877C11.7323 9.72301 10.9692 10.0237 10.1736 10.0237C9.37795 10.0237 8.61489 9.72301 8.05228 9.1877C7.48967 8.65238 7.1736 7.92634 7.1736 7.1693C7.1736 6.41225 7.48967 5.68621 8.05228 5.1509C8.61489 4.61558 9.37795 4.31485 10.1736 4.31485C10.9692 4.31485 11.7323 4.61558 12.2949 5.1509C12.8575 5.68621 13.1736 6.41225 13.1736 7.1693Z" stroke="#446878" stroke-linecap="round" stroke-linejoin="round"/>
</svg>
