<svg width="148" height="148" viewBox="0 0 148 148" fill="none" xmlns="http://www.w3.org/2000/svg">
<circle cx="74" cy="74" r="74" fill="#F2F1FA"/>
<g clip-path="url(#clip0_1078_21)">
<path d="M113.241 84.2873C112.784 83.993 112.437 84.0963 112.115 84.0963C84.1553 84.0911 56.1956 84.0963 28.2411 84.0911C27.4679 84.0911 26.6843 84.1221 25.9215 84.0292C24.2142 83.8123 22.974 82.2892 23.0518 80.5906C23.1348 78.8403 24.5256 77.4463 26.2743 77.3689C26.6428 77.3534 27.0164 77.3534 27.3848 77.3534C58.676 77.3534 89.9725 77.3534 121.264 77.3586C123.023 77.3586 124.211 78.0401 124.756 79.5322C125.27 80.9417 124.907 82.2273 123.838 83.2909C120.298 86.812 116.754 90.3281 113.21 93.8441C111.238 95.8009 109.271 97.7628 107.305 99.7144C105.691 101.315 103.641 101.423 102.209 99.9932C100.751 98.5321 100.906 96.4514 102.541 94.8457C106.101 91.3555 109.635 87.8395 113.236 84.277L113.241 84.2873Z" fill="#971B49"/>
<path d="M26.2841 70.5538C24.8156 70.5176 23.7725 69.7793 23.2536 68.4679C22.7191 67.11 23.0253 65.8193 24.0631 64.7712C26.4242 62.391 28.8113 60.0367 31.188 57.6772C34.3482 54.5329 37.5863 51.4609 40.6428 48.2289C42.6303 46.1275 45.8788 46.9226 46.6208 49.1066C47.1294 50.5987 46.7454 51.8688 45.6556 52.953C42.3553 56.2367 39.0549 59.5152 35.7493 62.7937C35.5833 62.959 35.3965 63.1087 35.2564 63.2946C35.0073 63.6147 35.0228 63.847 35.5054 63.8573C35.8739 63.8625 36.2475 63.8625 36.6159 63.8625C64.3369 63.8625 92.0527 63.8625 119.774 63.8625C120.479 63.8625 121.19 63.8625 121.896 63.8883C123.692 63.9503 124.942 65.4888 124.994 67.425C125.036 68.8706 123.188 70.8429 121.709 70.5434C121.367 70.3317 120.983 70.435 120.625 70.435C89.536 70.4298 58.4523 70.4298 27.3635 70.435C27.0054 70.435 26.6214 70.3214 26.2789 70.5486L26.2841 70.5538Z" fill="#466A78"/>
<path d="M26.2847 70.5536C26.5701 70.2025 26.9696 70.3419 27.3225 70.3419C58.4373 70.3368 89.5573 70.3368 120.672 70.3419C121.025 70.3419 121.424 70.2025 121.715 70.5433C121.31 70.5588 120.911 70.5846 120.506 70.5846C89.4327 70.5846 58.3646 70.5846 27.2914 70.5846C26.9541 70.5846 26.622 70.5588 26.2847 70.5485V70.5536Z" fill="#2B85B5"/>
</g>
<defs>
<clipPath id="clip0_1078_21">
<rect width="102" height="54" fill="white" transform="translate(23 47)"/>
</clipPath>
</defs>
</svg>
