<svg width="148" height="148" viewBox="0 0 148 148" fill="none" xmlns="http://www.w3.org/2000/svg">
<circle cx="74" cy="74" r="74" fill="#F2F1FA"/>
<g clip-path="url(#clip0_1078_23)">
<path d="M70.1307 68.569C71.9392 68.5346 73.3703 67.7242 74.6054 66.4571C75.9581 65.077 77.3402 63.7313 78.6978 62.3561C79.5408 61.5064 80.3838 60.6518 81.1925 59.7678C81.5943 59.3307 81.8835 59.3159 82.3099 59.7481C87.1767 64.6497 92.0532 69.5365 96.9298 74.4233C99.4882 76.9871 102.056 79.5459 104.615 82.1146C106.159 83.6616 106.565 85.5083 105.619 87.4876C104.786 89.2312 102.762 90.3313 100.65 89.8156C99.9734 89.6486 99.395 89.3048 98.8265 88.9217C98.209 88.5043 98.111 89.2312 97.7777 89.4325C97.4493 89.6339 97.6012 89.8205 97.7973 90.071C98.8853 91.4757 99.0324 93.0817 98.3609 94.6435C97.6552 96.279 96.3074 97.1925 94.4499 97.2367C93.3618 97.2662 92.3718 97.0059 91.5484 96.2839C91.1661 95.945 90.9701 96.2053 90.7789 96.4509C90.578 96.7112 89.9899 96.8487 90.431 97.3595C91.9846 99.1472 91.6758 101.971 89.8723 103.548C88.4607 104.776 86.0298 104.987 84.4909 103.857C83.8733 103.405 83.3293 103.563 82.9764 104.265C82.8245 104.564 83.099 104.682 83.2117 104.835C84.0645 105.994 84.3291 107.285 83.9273 108.646C83.4813 110.163 82.5206 111.323 80.9719 111.779C79.3398 112.261 77.8205 111.941 76.5658 110.709C75.4484 109.613 75.4484 109.608 76.5315 108.523C78.2861 106.765 80.0064 104.977 81.81 103.273C83.7067 101.48 83.9763 98.6217 83.1186 96.7849C81.8933 94.172 79.5751 92.9392 76.8746 93.3322C76.4188 93.396 76.1149 93.4746 76.2326 92.7624C76.9236 88.5436 73.1547 85.3168 69.4642 86.0731C69.0084 86.1665 68.9055 86.0731 68.9888 85.5525C69.6259 81.5006 66.3275 78.1756 62.3233 78.8092C61.7744 78.8976 61.5833 78.7552 61.6813 78.1756C62.0832 75.7985 61.054 73.5295 59.0396 72.2722C57.0841 71.0492 54.3934 71.1131 52.5604 72.557C51.0019 73.7799 49.708 75.2927 48.3063 76.6875C46.4047 78.5784 44.503 80.4791 42.621 82.3896C42.3221 82.6892 42.1113 82.6794 41.8271 82.4191C39.5383 80.3661 37.6415 78.0037 36.2839 75.2288C34.5245 71.6435 33.7844 67.8274 34.054 63.8442C34.2892 60.3228 35.2988 57.0125 37.1073 53.9674C38.906 50.9371 41.283 48.452 44.2335 46.5513C46.9977 44.7684 50.0314 43.6732 53.3054 43.2164C56.7263 42.74 60.0737 43.0642 63.3281 44.1201C66.0285 44.9943 68.4987 46.3646 70.6453 48.2457C71.503 48.9971 72.2872 49.8222 73.1302 50.5884C73.439 50.8684 73.4635 51.0697 73.1596 51.3693C71.5128 52.995 69.8759 54.6354 68.234 56.2709C67.4008 57.1058 66.5137 57.8916 65.7443 58.7806C62.9899 61.973 64.2985 66.6584 67.7684 68.0238C67.8713 68.0631 67.9694 68.1319 68.0674 68.1859C68.2291 68.2497 68.185 68.3234 70.8561 68.7311C70.9443 69.0503 72.0814 71.8989 71.8461 72.2132C71.5913 72.557 67.8762 74.2907 67.592 74.222C66.3373 73.9076 67.3224 80.7541 64.7445 77.0558C64.7739 77.2376 60.9167 73.0138 62.9507 70.6809C63.6466 69.8852 65.7296 72.4244 65.3571 72.2918C65.0581 72.1887 64.769 72.0364 64.4406 72.061C63.7937 72.1101 63.3281 72.4342 63.034 73.004C62.7105 73.6424 62.8134 74.2613 63.23 74.8015C63.828 75.5824 64.5435 76.2504 65.2885 76.8889C65.4012 76.9871 65.5433 77.1639 65.6953 77.0116C65.8717 76.8397 65.7198 76.658 65.5825 76.5451C65.0532 76.103 65.112 75.6905 65.5727 75.2288C66.1707 74.6345 66.3373 73.9224 66.1021 73.0973C65.955 72.5816 66.1168 72.3999 66.5579 72.4735C68.0135 72.7191 68.8418 72.3213 69.5671 71.0247C69.6308 70.9068 69.6406 70.73 69.7632 70.676C70.4983 70.3371 70.0572 69.9982 69.773 69.6593C69.4985 69.3302 69.1848 69.0306 68.9692 68.6132C69.3711 68.3971 69.7485 68.5739 70.116 68.5641L70.1307 68.569Z" fill="#476B78"/>
<path d="M71.9099 54.6105C71.954 54.5663 72.003 54.5221 72.0472 54.4828C72.7235 54.198 73.1205 53.5791 73.5959 53.088C75.125 51.5213 76.7081 50.0135 78.2715 48.4811C78.4725 48.2798 78.8057 48.2061 78.8596 47.8623C80.673 46.3447 82.7217 45.2347 84.9321 44.4145C88.1374 43.221 91.4554 42.7594 94.8518 43.1277C101.204 43.8153 106.389 46.6787 110.339 51.7177C112.78 54.8315 114.24 58.3874 114.78 62.2968C115.26 65.8036 114.932 69.2514 113.785 72.6157C112.515 76.3434 110.339 79.4523 107.492 82.1241C107.139 82.4532 106.938 82.4532 106.61 82.1241C103.929 79.4081 101.238 76.697 98.5423 73.9958C95.4596 70.9065 92.3621 67.8369 89.2793 64.7476C87.1326 62.5964 83.8097 59.2469 81.668 57.0908C81.4719 56.7814 83.0746 53.2599 83.202 53.0831C83.4078 52.8031 83.6774 57.0122 83.7019 56.6586C83.7166 56.4719 83.5206 56.3492 83.2951 56.3C83.0207 56.2411 83.0354 56.4769 82.9961 56.6488C82.8883 57.1104 82.756 57.5426 82.1532 57.5181L82.1385 57.5033C82.0159 57.4002 81.8983 57.2725 81.7219 57.3462C81.119 57.5868 80.8691 57.1939 80.7171 56.7421C80.5505 56.2558 80.8446 55.5879 81.2563 55.3865C81.4033 55.3178 81.5601 55.2932 81.717 55.2588C81.9032 55.2195 82.0992 55.1655 82.0404 54.915C81.9865 54.6842 81.7807 54.6891 81.5944 54.7039C80.9034 54.7579 80.2417 55.4798 80.178 56.246C80.1682 56.359 80.1731 56.4719 80.178 56.5849C80.2515 57.6359 80.2466 57.6507 79.1978 57.5475C78.5068 57.4788 78.0314 57.7636 77.6491 58.3235C77.2472 58.908 77.2815 59.4581 77.6148 60.0474C77.7765 60.3372 78.1 60.5435 78.0902 60.9266C77.7079 61.3833 77.3354 61.8548 76.7963 62.1495C76.2327 61.6436 76.2131 61.4668 76.6689 60.9364C76.7424 60.848 76.8306 60.7743 76.8943 60.681C76.9923 60.5386 77.0413 60.3814 76.8845 60.2537C76.7522 60.1457 76.6297 60.2292 76.5218 60.3225C76.4532 60.3814 76.3895 60.4502 76.3209 60.5091C75.7818 60.9855 75.6739 60.9855 75.1348 60.4649C74.9192 60.2586 74.7231 60.0376 74.5026 59.8412C74.3654 59.7184 74.2036 59.5759 74.037 59.7724C73.9096 59.9247 74.0125 60.072 74.1154 60.1997C74.2624 60.3765 74.4291 60.5287 74.5908 60.6908C75.0907 61.1869 75.5808 61.6977 76.0954 62.1839C76.2327 62.3116 76.463 62.4196 76.3062 62.6848C76.2474 62.734 76.1935 62.7782 76.1346 62.8273C75.424 62.6505 74.9143 62.9943 74.4585 63.4854C74.2575 63.7015 74.0566 63.9225 73.8017 64.0797C73.6106 64.1975 73.4097 64.2221 73.2332 64.06C73.0421 63.8832 73.1058 63.6671 73.2332 63.5001C73.5763 63.0483 73.9586 62.621 74.336 62.1986C74.4683 62.0513 74.6986 61.9138 74.483 61.6977C74.2869 61.5012 74.0958 61.6633 73.9537 61.8155C73.5665 62.233 73.145 62.621 72.797 63.0728C72.2824 63.7359 73.5812 63.4707 72.0717 63.8243C72.2971 63.9029 69.8515 55.8089 82.1728 57.1006C82.0306 57.243 73.1156 65.9853 72.9735 66.1277C71.9932 66.0541 71.9295 65.9165 71.3316 66.609C71.1208 66.8497 70.8268 67.0756 70.5082 66.8006C70.17 66.5059 70.4494 66.221 70.6111 65.9656C70.8611 65.5727 71.2679 65.3468 71.5914 65.0325C71.7237 64.9048 70.9346 65.7446 70.768 65.5727C70.6062 65.4008 71.3267 64.4971 71.214 64.6347C70.6945 65.2682 69.8417 65.6415 69.724 66.5894C69.6897 66.8595 69.4839 66.9774 69.2241 66.9185C68.9791 66.8595 68.7242 66.9332 68.4841 66.8448C65.6758 65.7741 64.8083 62.2428 66.5874 60.0278C67.5676 58.8098 68.7242 57.744 69.876 56.688C70.7043 56.1429 71.3561 55.4258 71.9246 54.6253L71.9099 54.6105Z" fill="#971B49"/>
<path d="M57.6623 100.291C57.6182 98.8621 58.2651 97.7423 59.2306 96.7747C61.9115 94.0882 64.6071 91.4115 67.2978 88.7397C68.5672 87.4775 70.0767 87.0453 71.8019 87.5757C73.429 88.0767 74.4582 89.1915 74.8307 90.8565C75.164 92.3545 74.8454 93.7346 73.7623 94.8347C70.8903 97.7521 68.0133 100.665 65.0776 103.518C63.7249 104.834 62.0242 105.06 60.3236 104.309C58.6327 103.562 57.7064 102.187 57.6623 100.291Z" fill="#971B49"/>
<path d="M82.1972 99.1224C82.2168 100.296 81.8002 101.323 80.9916 102.143C78.1146 105.055 75.223 107.953 72.3118 110.831C70.9493 112.182 68.7144 112.344 66.9941 111.288C65.3424 110.271 64.5485 108.154 65.0827 106.298C65.4307 105.075 66.3129 104.26 67.1558 103.41C69.626 100.93 72.101 98.4495 74.581 95.9791C75.7915 94.7758 77.2716 94.378 78.9037 94.8003C80.6093 95.2424 81.663 96.3916 82.0992 98.1057C82.1286 98.2138 82.1482 98.3267 82.158 98.4397C82.1776 98.6656 82.1825 98.8964 82.1923 99.1224H82.1972Z" fill="#971B49"/>
<path d="M50.4283 93.0716C50.3695 91.775 50.7959 90.7387 51.6291 89.8939C54.4374 87.0453 57.2359 84.182 60.1079 81.3972C62.6663 78.9121 66.6999 80.0662 67.5772 83.5337C67.984 85.1348 67.4889 86.5984 66.298 87.7869C63.5779 90.5029 60.8578 93.2189 58.1475 95.9398C56.0449 98.0468 53.0014 97.8995 51.2076 95.5469C50.6489 94.8151 50.3499 93.9458 50.4332 93.0716H50.4283Z" fill="#971B49"/>
<path d="M43.8952 88.1552C42.7042 86.5443 42.9346 84.0346 44.4294 82.5317C47.1985 79.742 49.9774 76.9573 52.7514 74.1774C54.5109 72.4143 57.3192 72.3602 59.0787 74.0547C60.8137 75.7245 60.9362 78.4847 59.2208 80.2627C56.3292 83.2537 53.3591 86.1612 50.4185 89.1031C50.2078 89.3143 49.9676 89.4862 49.6686 89.555C49.0462 89.8742 48.4875 89.8104 48.0072 89.275C47.2132 88.3959 46.282 87.9735 45.0763 88.3419C44.6842 88.4597 44.2628 88.4155 43.8952 88.1602V88.1552Z" fill="#971B49"/>
<path d="M43.895 88.1552C44.4782 88.1847 45.0468 88.1945 45.63 88.0472C46.6592 87.7819 47.4434 88.3664 48.056 89.0638C48.5412 89.6139 49.0607 89.6237 49.6685 89.55C48.5363 90.4341 45.978 90.3457 44.6792 89.0736C44.3949 88.7937 44.0372 88.5628 43.895 88.1552Z" fill="#971B49"/>
<path d="M68.4692 66.8251C68.5379 66.8153 68.6016 66.7956 68.6702 66.7907C69.1603 66.7563 69.5083 66.7711 69.6945 66.054C69.8954 65.2829 70.7384 64.8016 71.356 64.2466C71.5471 64.0747 71.7824 64.2565 71.9343 64.448C72.1009 64.6543 72.0176 64.8114 71.8657 64.9882C71.4981 65.4205 70.9149 65.6267 70.6502 66.1621C70.5669 66.3241 70.2924 66.4617 70.5277 66.6827C70.758 66.8988 70.9443 66.7269 71.1109 66.5599C71.2874 66.3831 71.4883 66.221 71.6402 66.0295C72.145 65.3762 72.7773 65.1651 73.5615 65.445C72.4146 67.0854 70.0425 67.4685 68.4692 66.8202V66.8251Z" fill="#971B49"/>
<path d="M78.8643 47.8573C78.9966 48.5203 78.3448 48.6529 78.036 48.9574C77.3988 49.5812 76.7127 50.1558 76.1099 50.8189C75.6443 51.3296 75.1297 51.7913 74.6346 52.2825C74.0465 52.8669 73.429 53.4219 72.885 54.0456C72.6399 54.3305 72.4243 54.527 72.0469 54.4778C74.2671 52.2186 76.399 49.8661 78.8643 47.8573Z" fill="#B04266"/>
<path d="M78.7515 60.2488C78.2026 59.9934 78.0409 59.5023 78.0752 58.9718C78.0997 58.5445 78.4722 58.353 78.8643 58.24C79.4573 58.0681 82.0794 49.6991 82.2656 56.7372C82.1529 57.2971 79.2367 59.8117 78.7564 60.2537L78.7515 60.2488Z" fill="#971B49"/>
<path d="M71.91 54.6105C72.0619 54.7529 71.9149 54.8659 71.8561 54.9641C71.4591 55.6026 70.7729 55.9758 70.3563 56.5996C70.2632 56.7371 70.0476 56.7862 69.8613 56.6733C70.4789 55.9218 71.1993 55.2686 71.91 54.6105Z" fill="#B04266"/>
</g>
<defs>
<clipPath id="clip0_1078_23">
<rect width="81" height="69" fill="white" transform="translate(34 43)"/>
</clipPath>
</defs>
</svg>
