<svg width="148" height="148" viewBox="0 0 148 148" fill="none" xmlns="http://www.w3.org/2000/svg">
<circle cx="74" cy="74" r="74" fill="#F2F1FA"/>
<rect width="80" height="70.4915" transform="translate(34 35.7544)" fill="#F2F1FA"/>
<g clip-path="url(#clip0_1078_22)">
<path d="M119.96 58.4627C126.527 55.4645 133.1 52.4795 139.694 49.554C140.189 49.336 140.638 49.0653 140.994 48.6492V44.5679C140.855 44.5679 140.69 44.5217 140.572 44.5679C130.995 48.6954 121.418 52.8427 111.835 56.9504C111.089 57.2674 111.228 57.6042 111.492 58.1656C112.158 59.559 112.766 60.9789 113.393 62.3987C113.901 63.5478 115.003 64.8752 114.726 65.7998C114.409 66.8696 112.541 66.9026 111.446 67.563C110.614 68.0649 110.007 67.8668 109.268 67.2659C105.242 63.9969 101.156 60.8006 97.0906 57.5778C96.5956 57.1882 96.16 56.8117 95.4142 56.924C87.3028 58.0863 79.0132 57.4127 70.9942 59.8232C66.6778 61.1175 62.0512 61.4345 57.5434 62.0157C53.656 62.5176 49.9864 63.4157 46.7392 65.7668C45.1024 66.9555 43.2412 67.8272 41.5054 68.8772C40.9246 69.2339 40.4428 69.3659 39.7828 69.0159C37.9876 68.0716 36.166 67.1668 34.318 66.3347C33.5194 65.9715 33.5326 65.5885 33.8626 64.9016C34.8064 62.9469 35.6446 60.9326 36.628 58.9977C37.1032 58.0665 36.8788 57.7495 35.9812 57.3401C29.6451 54.4673 23.3421 51.5352 17.0259 48.6228C13.7457 47.1039 10.4721 45.585 7.03351 44C7.03351 45.3406 7.11271 46.4963 7.01371 47.6388C6.92791 48.6228 7.29091 49.0851 8.16871 49.4813C15.4815 52.7701 22.7547 56.1381 30.0741 59.4071C31.1433 59.8826 31.2357 60.2788 30.7605 61.2959C28.2327 66.6715 25.7841 72.0868 23.3025 77.4822C19.8771 84.9448 16.4253 92.3941 13.0395 99.8764C12.5709 100.907 12.1551 101.052 11.1849 100.524C9.89131 99.8235 8.50531 99.2886 7.03351 98.6282C7.03351 100.081 7.06651 101.342 7.02031 102.597C6.99391 103.244 7.26451 103.522 7.83211 103.773C9.81871 104.651 11.7921 105.562 13.7457 106.52C14.4387 106.857 14.6961 106.698 14.9997 106.025C16.0689 103.594 17.2569 101.21 18.3063 98.7735C18.6759 97.915 18.9861 97.7169 19.8771 98.1593C24.6753 100.557 29.4999 102.894 34.318 105.259C34.7536 105.47 35.1364 105.708 35.44 106.13C37.0306 108.323 39.2416 109.386 41.9146 109.386C42.634 109.386 42.7726 109.571 42.8584 110.238C43.4128 114.788 47.0626 117.681 51.709 117.251C52.2964 117.199 52.3954 117.304 52.5406 117.839C53.9068 122.812 56.857 124.813 61.8598 124.159C62.7112 124.047 63.0808 124.212 63.4306 125.077C64.6582 128.128 67.6942 129.561 70.9018 128.808C72.6112 128.406 74.0038 127.507 75.2314 126.286C76.0498 125.473 76.8616 125.077 78.1618 125.487C80.5972 126.246 83.0722 126.081 85.2634 124.589C85.8706 124.179 86.4118 124.034 87.1246 124.047C90.1672 124.113 92.6752 122.944 94.1536 120.263C94.7476 119.193 95.2756 119.068 96.325 119.206C100.107 119.721 104.555 116.809 105.096 113.375C105.261 112.345 105.473 112.087 106.535 112.054C110.891 111.922 113.67 109.597 114.495 105.496C114.607 104.942 114.937 104.783 115.313 104.611C119.781 102.538 124.269 100.497 128.724 98.4037C129.457 98.0603 129.701 98.2254 129.998 98.9056C130.916 101.032 131.939 103.119 132.843 105.252C133.219 106.137 133.569 106.361 134.519 105.919C136.651 104.922 139.73 104.235 142 103.561L144 97C142.456 96.9141 138.275 99.0179 136.981 99.6122C136.143 100.002 135.668 99.8632 135.258 99.0113C134.414 97.2678 133.628 95.4913 132.83 93.7281C128.078 83.2211 123.266 72.7472 118.521 62.2402C117.155 59.2222 116.99 59.81 119.96 58.4561V58.4627ZM42.1456 105.133C40.7794 105.206 39.6904 104.664 38.9776 103.489C38.2318 102.267 38.1856 100.966 39.0304 99.8169C40.1986 98.2122 41.6044 96.7923 43.1356 95.5376C44.1916 94.6724 45.4918 94.6988 46.693 95.3394C47.8942 95.9866 48.5014 97.0433 48.5014 98.7735C48.4816 100.438 44.1586 105.021 42.1522 105.133H42.1456ZM53.6164 111.744C52.9432 112.444 52.1314 112.814 51.4582 112.787C49.7026 112.787 48.6334 112.133 48.0196 110.839C47.3464 109.426 47.5774 108.079 48.6334 106.943C50.3164 105.127 52.0456 103.363 53.7616 101.58C55.0024 100.286 56.2168 98.9584 57.4906 97.6971C58.9426 96.2574 61.0744 96.2244 62.4406 97.5518C63.853 98.9254 63.919 100.973 62.4802 102.498C59.5564 105.609 56.5798 108.666 53.623 111.744H53.6164ZM63.1006 119.286C62.5528 119.847 61.7806 120.085 61.1074 120.025C59.4904 120.045 58.4542 119.338 57.814 118.07C57.1606 116.769 57.3058 115.442 58.2694 114.412C61.345 111.11 64.4536 107.841 67.6414 104.644C68.902 103.376 70.981 103.555 72.2548 104.783C73.4824 105.972 73.786 107.993 72.6244 109.267C69.5224 112.675 66.3082 115.977 63.1006 119.286ZM72.3736 123.525C71.08 124.846 69.562 124.919 68.407 123.796C67.2784 122.7 67.3048 121.102 68.5258 119.807C70.717 117.489 72.9082 115.171 75.1522 112.899C76.0432 111.995 77.1388 111.565 78.4456 112.087C79.5874 112.543 79.759 113.52 79.858 114.544C79.9174 115.33 79.6402 115.97 79.1122 116.525C76.8682 118.856 74.644 121.214 72.3802 123.532L72.3736 123.525ZM82.003 121.716C81.8842 122.31 81.5674 122.819 80.9008 122.885C80.2342 122.944 79.5478 122.997 78.6502 122.37C79.2376 121.868 79.7194 121.412 80.254 121.016C80.6038 120.752 80.815 120.071 81.3892 120.369C81.8644 120.62 82.1218 121.148 82.003 121.722V121.716ZM106.72 108.911C105.816 108.963 105.169 108.561 104.549 107.953C101.374 104.816 98.173 101.699 94.9852 98.5754C94.7806 98.3707 94.5826 98.1527 94.3648 97.9612C93.1966 96.9046 91.8304 96.8782 90.8866 97.8952C89.9758 98.8858 90.0418 100.127 91.1572 101.23C93.6718 103.72 96.2194 106.183 98.7472 108.666C99.229 109.142 99.7241 109.624 100.107 110.172C100.8 111.176 101.15 112.285 100.45 113.434C99.7438 114.59 98.6087 114.966 97.3216 114.867C95.8564 114.755 94.6684 114.049 93.6388 113.025C91.1242 110.529 88.5964 108.046 86.0686 105.569C84.742 104.268 83.4022 104.123 82.3924 105.146C81.343 106.203 81.4816 107.491 82.8346 108.812C84.8476 110.78 86.8738 112.728 88.9066 114.683C89.4346 115.191 89.9164 115.739 90.2134 116.413C90.6886 117.476 90.6622 118.506 89.7382 119.332C88.7878 120.184 87.6658 120.256 86.656 119.55C85.6726 118.856 84.841 117.952 83.9236 117.159C83.5342 116.822 83.752 116.499 83.8378 116.116C84.8872 111.48 82.6432 107.762 78.0892 106.652C77.5282 106.513 77.317 106.395 77.2378 105.787C76.6438 101.25 73.2448 98.5754 68.7172 99.0839C68.077 99.1565 67.7734 99.1962 67.6546 98.4367C67.1464 95.1941 65.206 93.0941 62.137 92.1695C59.035 91.2318 56.3224 92.1101 54.0388 94.4017C53.7022 94.7385 53.458 95.1875 52.9564 95.3328C50.2438 89.1053 43.723 87.9364 39.0502 92.9026C37.2814 94.7847 35.0704 96.3631 34.2982 99.0377C34.1662 99.5066 33.8032 99.3547 33.4732 99.1962C29.4933 97.2216 25.5135 95.2338 21.5205 93.2856C20.9331 93.0016 21.0519 92.7176 21.2565 92.2686C24.6423 84.9514 28.0347 77.6275 31.3809 70.2905C31.7307 69.5244 32.0343 69.5508 32.6679 69.9141C35.3146 71.4264 38.0008 72.8594 40.6276 74.4048C41.4262 74.8803 41.9674 74.7944 42.6868 74.2925C45.1486 72.5755 47.7028 70.9905 50.1382 69.2339C51.9004 67.9659 53.7352 67.0876 55.9132 66.7772C59.0086 66.3347 62.071 65.7007 65.272 65.4035C63.7936 66.546 62.3152 67.6819 60.8368 68.8244C59.4178 69.9141 57.9856 70.9971 56.5666 72.1C54.316 73.8434 54.3754 75.8973 56.7712 77.4954C59.629 79.404 62.863 80.1833 66.2356 80.3748C70.2484 80.5993 74.1556 80.005 77.9176 78.5785C78.4588 78.3738 78.901 78.3804 79.4422 78.5521C82.432 79.4965 85.4416 80.4012 88.4446 81.306C89.1112 81.5041 89.6392 81.8607 90.1342 82.356C95.9356 88.2203 101.75 94.0715 107.558 99.9292C108.621 100.999 109.611 102.122 110.165 103.561C111.208 106.249 109.584 108.752 106.694 108.911H106.72ZM117.722 71.849C120.983 79.0672 124.263 86.2788 127.563 93.4771C127.873 94.1573 127.649 94.3819 127.068 94.6328C122.877 96.4951 118.692 98.3773 114.515 100.273C114.02 100.497 113.729 100.59 113.307 100.068C110.033 96.0196 106.133 92.579 102.417 88.9534C98.8397 85.4599 95.2162 82.0192 91.6324 78.5323C91.0978 78.0106 90.5236 77.6605 89.8108 77.4228C86.1478 76.2077 82.5772 74.7086 78.7888 73.8633C77.4226 73.5595 76.2214 73.5529 74.9542 74.451C73.225 75.6727 71.1196 75.9765 69.0208 76.1284C65.9848 76.3464 63.0544 75.8841 59.8798 74.834C64.6252 71.2084 69.133 67.6951 73.72 64.2875C74.974 63.3563 76.6372 63.7261 78.1024 63.5544C83.5408 62.9138 88.9924 62.4251 94.4374 61.8308C95.137 61.7581 95.6122 61.943 96.127 62.3789C100.391 66.0441 104.7 69.6697 108.938 73.368C109.69 74.0284 110.284 74.0548 111.122 73.6651C112.878 72.8528 114.68 72.1594 116.435 71.3471C117.122 71.0301 117.405 71.149 117.716 71.8358L117.722 71.849Z" fill="#456978"/>
</g>
<defs>
<clipPath id="clip0_1078_22">
<rect width="134" height="85" fill="white" transform="translate(7 44)"/>
</clipPath>
</defs>
</svg>
